SplineFontDB: 3.2
FontName: HersheyTex
FullName: HersheyTex-Light
FamilyName: HersheyTex_Light
Weight: Light
Copyright: no copyright, use at your own risk
Version: 1.0
ItalicAngle: 0
UnderlinePosition: -99
UnderlineWidth: 51
Ascent: 819
Descent: 205
InvalidEm: 0
sfntRevision: 0x00010000
LayerCount: 2
Layer: 0 0 "Back" 1
Layer: 1 0 "Fore" 0
XUID: [1021 565 -594955042 24668]
StyleMap: 0x0000
FSType: 0
OS2Version: 4
OS2_WeightWidthSlopeOnly: 0
OS2_UseTypoMetrics: 1
CreationTime: 1581386846
ModificationTime: 1648429306
PfmFamily: 17
TTFWeight: 300
TTFWidth: 5
LineGap: 92
VLineGap: 0
Panose: 2 0 5 3 0 0 0 0 0 0
OS2TypoAscent: 819
OS2TypoAOffset: 0
OS2TypoDescent: -205
OS2TypoDOffset: 0
OS2TypoLinegap: 92
OS2WinAscent: 823
OS2WinAOffset: 0
OS2WinDescent: 209
OS2WinDOffset: 0
HheadAscent: 823
HheadAOffset: 0
HheadDescent: -209
HheadDOffset: 0
OS2SubXSize: 665
OS2SubYSize: 716
OS2SubXOff: 0
OS2SubYOff: 143
OS2SupXSize: 665
OS2SupYSize: 716
OS2SupXOff: 0
OS2SupYOff: 491
OS2StrikeYSize: 51
OS2StrikeYPos: 265
OS2CapHeight: 693
OS2XHeight: 472
OS2Vendor: 'PfEd'
OS2CodePages: 00000001.00000000
OS2UnicodeRanges: 800000a3.000040e0.00000000.00000000
MarkAttachClasses: 1
DEI: 91125
LangName: 1033 "" "" "" "FontForge 2.0 : HersheyTex : 27-3-2022" "" "Version 1.0"
Encoding: UnicodeBmp
UnicodeInterp: none
NameList: AGL For New Fonts
DisplaySize: -96
AntiAlias: 1
FitToEm: 0
WinInfo: 64 8 2
BeginPrivate: 7
BlueValues 23 [16 16 472 473 693 693]
OtherBlues 11 [-205 -205]
BlueShift 2 20
StdHW 4 [16]
StdVW 4 [16]
StemSnapH 35 [15 16 18 20 34 74 200 201 235 237]
StemSnapV 36 [15 16 18 34 75 110 140 220 265 327]
EndPrivate
TeXData: 1 0 0 241664 120832 80554 482817 1048576 80554 0 0 0 0 0 0 0 0 0 0 0 0 0 0 0
BeginChars: 65539 220

StartChar: .notdef
Encoding: 65536 -1 0
Width: 374
GlyphClass: 1
Flags: MW
HStem: 0 34<68 272 68 306> 648 34<68 272 68 68>
VStem: 34 34<34 34 34 648> 272 34<34 648 648 648>
LayerCount: 2
Fore
SplineSet
34 0 m 1
 34 682 l 1
 306 682 l 1
 306 0 l 1
 34 0 l 1
68 34 m 1
 272 34 l 1
 272 648 l 1
 68 648 l 1
 68 34 l 1
EndSplineSet
Validated: 1
EndChar

StartChar: exclam
Encoding: 33 33 2
Width: 315
GlyphClass: 1
Flags: MW
HStem: 673 20G<162.5 167.5>
VStem: 157 16<244 685>
LayerCount: 2
Fore
SplineSet
186 55 m 1
 165 75 l 1
 145 55 l 1
 165 35 l 1
 186 55 l 1
171 92 m 2
 203 61 l 2
 206 57 206 53 203 49 c 2
 171 18 l 2
 167 14 163 14 160 18 c 2
 128 49 l 2
 125 53 125 57 128 61 c 2
 160 92 l 2
 161 93 164 94 166 94 c 0
 168 94 170 93 171 92 c 2
157 685 m 2
 157 690 160 693 165 693 c 0
 170 693 173 690 173 685 c 2
 173 244 l 2
 173 239 170 236 165 236 c 0
 160 236 157 239 157 244 c 2
 157 685 l 2
EndSplineSet
Validated: 1
EndChar

StartChar: quotedbl
Encoding: 34 34 3
Width: 504
GlyphClass: 1
Flags: MW
HStem: 456 237<131.5 136.5 383.5 388.5>
VStem: 126 16<464 685> 378 16<464 685>
LayerCount: 2
Fore
SplineSet
378 685 m 2
 378 690 381 693 386 693 c 0
 391 693 394 690 394 685 c 2
 394 464 l 2
 394 459 391 456 386 456 c 0
 381 456 378 459 378 464 c 2
 378 685 l 2
126 685 m 2
 126 690 129 693 134 693 c 0
 139 693 142 690 142 685 c 2
 142 464 l 2
 142 459 139 456 134 456 c 0
 129 456 126 459 126 464 c 2
 126 685 l 2
EndSplineSet
Validated: 1
EndChar

StartChar: numbersign
Encoding: 35 35 4
Width: 660
GlyphClass: 1
Flags: MW
HStem: 204 16<99.5 217 102 213 102 230 233 402 422 543> 394 16<131.5 258 134 254 134 271 274 443 463 574>
LayerCount: 2
Fore
SplineSet
102 204 m 2
 97 204 94 207 94 212 c 0
 94 217 97 220 102 220 c 2
 217 220 l 1
 254 394 l 1
 134 394 l 2
 129 394 126 397 126 402 c 0
 126 407 129 410 134 410 c 2
 258 410 l 1
 346 813 l 2
 349 822 366 820 362 809 c 2
 274 410 l 1
 447 410 l 1
 535 813 l 2
 538 822 555 820 551 809 c 2
 463 410 l 1
 574 410 l 2
 579 410 582 407 582 402 c 0
 582 397 579 394 574 394 c 2
 460 394 l 1
 422 220 l 1
 543 220 l 2
 548 220 551 217 551 212 c 0
 551 207 548 204 543 204 c 2
 419 204 l 1
 330 -199 l 2
 327 -209 312 -205 315 -195 c 2
 402 204 l 1
 230 204 l 1
 141 -199 l 2
 138 -209 123 -205 126 -195 c 2
 213 204 l 1
 102 204 l 2
443 394 m 1
 271 394 l 1
 233 220 l 1
 406 220 l 1
 443 394 l 1
EndSplineSet
Validated: 1
EndChar

StartChar: dollar
Encoding: 36 36 5
Width: 629
GlyphClass: 1
Flags: MW
HStem: 16 16<268 378 268 378> 677 16<268 378 268 378>
VStem: 94 16<529 587 529 590 529 591.5> 252 16<-102 16 35 380 402 674 674 674 693 811> 378 16<-102 16 16 16 35 338 360 674 693 811> 535 16<121 211 211 211>
LayerCount: 2
Fore
SplineSet
549 596 m 2
 555 590 546 576 537 585 c 2
 476 647 l 1
 394 674 l 1
 394 355 l 1
 420 346 l 1
 421 346 l 1
 484 314 l 2
 485 314 485 314 486 313 c 0
 497 302 508 290 519 279 c 1
 550 216 l 2
 551 215 551 213 551 212 c 2
 551 118 l 2
 551 116 550 114 549 112 c 2
 486 49 l 2
 485 48 484 48 483 47 c 2
 394 18 l 1
 394 -102 l 2
 394 -107 391 -110 386 -110 c 0
 381 -110 378 -107 378 -102 c 2
 378 16 l 1
 268 16 l 1
 268 -102 l 2
 268 -107 265 -110 260 -110 c 0
 255 -110 252 -107 252 -102 c 2
 252 18 l 1
 162 47 l 2
 161 48 160 48 159 49 c 2
 96 112 l 2
 90 121 98 131 108 124 c 2
 169 62 l 1
 252 35 l 1
 252 385 l 1
 225 394 l 1
 224 394 l 1
 161 426 l 2
 160 426 160 426 159 427 c 0
 148 438 137 450 126 461 c 1
 95 524 l 2
 94 525 94 527 94 528 c 2
 94 590 l 2
 94 593 95 595 96 596 c 2
 159 659 l 2
 160 660 161 660 162 661 c 2
 252 691 l 1
 252 811 l 2
 252 816 255 819 260 819 c 0
 265 819 268 816 268 811 c 2
 268 693 l 1
 378 693 l 1
 378 811 l 2
 378 816 381 819 386 819 c 0
 391 819 394 816 394 811 c 2
 394 691 l 1
 483 661 l 2
 484 660 485 660 486 659 c 2
 549 596 l 2
378 677 m 1
 268 677 l 1
 268 397 l 1
 378 360 l 1
 378 677 l 1
378 32 m 1
 378 343 l 1
 268 380 l 1
 268 32 l 1
 378 32 l 1
394 35 m 1
 476 62 l 1
 535 121 l 1
 535 211 l 1
 505 271 l 1
 475 300 l 1
 414 331 l 1
 394 338 l 1
 394 35 l 1
252 674 m 1
 169 647 l 1
 110 587 l 1
 110 529 l 1
 140 469 l 1
 170 440 l 1
 231 409 l 1
 252 402 l 1
 252 674 l 1
EndSplineSet
Validated: 1
EndChar

StartChar: percent
Encoding: 37 37 6
Width: 755
GlyphClass: 1
Flags: MW
HStem: 16 16<510.5 573 515 573 515 578> 236 16<545 545 545 603> 456 16<164 226 168 226 168 228> 614 16<418 510 418 514 415 510> 677 16<198 256 198 198>
VStem: 94 16<531 589 531 590 531 590.5> 315 16<561 619 619 619> 441 16<90 148 90 153 90 153> 661 16<120 178 178 178>
LayerCount: 2
Fore
SplineSet
545 236 m 1
 486 207 l 1
 457 148 l 1
 457 90 l 1
 515 32 l 1
 573 32 l 1
 632 61 l 1
 661 120 l 1
 661 178 l 1
 603 236 l 1
 545 236 l 1
539 251 m 2
 540 252 542 252 543 252 c 2
 606 252 l 2
 608 252 610 251 612 250 c 2
 675 187 l 2
 676 185 677 183 677 181 c 2
 677 118 l 2
 677 117 677 115 676 114 c 2
 645 51 l 2
 644 50 642 49 641 48 c 2
 578 16 l 1
 512 16 l 2
 509 16 507 17 506 18 c 2
 443 81 l 2
 442 82 441 84 441 86 c 2
 441 153 l 1
 473 216 l 2
 474 217 475 219 476 220 c 2
 539 251 l 2
300 656 m 1
 328 628 l 2
 330 626 331 624 331 622 c 2
 331 559 l 2
 331 558 331 556 330 555 c 2
 298 492 l 1
 295 489 l 1
 232 457 l 2
 231 456 229 456 228 456 c 2
 165 456 l 2
 163 456 161 457 159 459 c 2
 96 522 l 2
 95 523 94 525 94 528 c 2
 94 590 l 2
 94 591 94 593 95 594 c 2
 126 657 l 1
 130 661 l 1
 193 692 l 2
 194 693 196 693 197 693 c 2
 260 693 l 2
 262 693 304 673 326 661 c 1
 418 630 l 1
 510 630 l 1
 603 661 l 1
 665 692 l 2
 673 696 681 686 675 680 c 2
 108 18 l 2
 103 13 88 17 96 29 c 2
 637 660 l 1
 610 646 l 1
 609 646 l 1
 514 614 l 1
 415 614 l 1
 320 646 l 1
 319 646 l 1
 300 656 l 1
256 677 m 1
 198 677 l 1
 139 648 l 1
 110 589 l 1
 110 531 l 1
 168 472 l 1
 226 472 l 1
 285 502 l 1
 315 561 l 1
 315 619 l 1
 256 677 l 1
EndSplineSet
Validated: 1
EndChar

StartChar: ampersand
Encoding: 38 38 7
Width: 818
GlyphClass: 1
Flags: MW
HStem: 16 16<230 352 230 358 224 352 639 697> 456 16<672 697 672 672>
VStem: 94 16<151 211 151 212 151 212.5> 252 16<529 589 529 594 529 594> 440 16<529 589 589 589> 724 16<58 86 402 430 430 430>
LayerCount: 2
Fore
SplineSet
320 405 m 1
 381 439 l 1
 410 469 l 1
 440 529 l 1
 440 589 l 1
 411 648 l 1
 354 676 l 1
 297 648 l 1
 268 589 l 1
 268 529 l 1
 298 437 l 1
 320 405 l 1
485 141 m 1
 347 334 l 1
 315 383 l 1
 170 301 l 1
 140 271 l 1
 110 211 l 1
 110 151 l 1
 140 91 l 1
 170 62 l 1
 230 32 l 1
 352 32 l 1
 412 62 l 1
 474 123 l 1
 485 141 l 1
740 402 m 2
 740 397 737 394 732 394 c 0
 727 394 724 397 724 402 c 2
 724 430 l 1
 697 456 l 1
 672 456 l 1
 644 428 l 1
 613 367 l 1
 550 210 l 1
 550 208 l 1
 505 141 l 1
 518 123 l 1
 579 62 l 1
 639 32 l 1
 697 32 l 1
 724 58 l 1
 724 86 l 2
 724 91 727 94 732 94 c 0
 737 94 740 91 740 86 c 2
 740 55 l 2
 740 53 739 51 738 49 c 2
 706 18 l 2
 705 17 703 16 700 16 c 2
 634 16 l 1
 571 48 l 2
 570 48 570 48 569 49 c 2
 505 113 l 1
 495 127 l 1
 487 114 l 2
 486 113 486 113 486 112 c 2
 423 49 l 2
 422 48 422 48 421 48 c 2
 358 16 l 1
 224 16 l 1
 161 48 l 2
 160 48 160 48 159 49 c 0
 148 60 137 72 126 83 c 1
 95 146 l 2
 94 147 94 149 94 150 c 2
 94 212 l 2
 94 213 94 215 95 216 c 2
 126 279 l 1
 137 290 148 302 159 313 c 0
 160 313 160 313 161 314 c 2
 306 397 l 1
 284 429 l 1
 283 430 l 1
 252 525 l 1
 252 594 l 1
 284 657 l 2
 285 658 286 660 287 661 c 2
 350 692 l 2
 353 693 355 693 358 692 c 2
 421 661 l 2
 422 660 423 658 424 657 c 2
 456 594 l 1
 456 524 l 1
 424 461 l 2
 424 460 424 460 423 459 c 2
 391 427 l 2
 390 427 390 427 389 426 c 2
 329 392 l 1
 354 350 411 271 495 155 c 1
 536 216 l 1
 599 373 l 1
 599 374 l 1
 630 437 l 1
 663 470 l 2
 665 471 667 472 669 472 c 2
 700 472 l 2
 703 472 705 471 706 470 c 2
 738 439 l 2
 739 437 740 435 740 433 c 2
 740 402 l 2
EndSplineSet
Validated: 1
EndChar

StartChar: quotesingle
Encoding: 39 39 8
Width: 315
GlyphClass: 1
Flags: MW
HStem: 490 201
VStem: 189 16<592 650 650 650>
LayerCount: 2
Fore
SplineSet
171 628 m 2
 179 620 170 609 160 616 c 2
 128 648 l 2
 125 651 125 655 128 659 c 2
 160 691 l 2
 164 694 168 694 171 691 c 2
 203 659 l 2
 204 658 205 656 205 654 c 2
 205 590 l 2
 205 589 205 588 204 587 c 2
 173 524 l 1
 162 513 151 501 140 490 c 0
 131 484 121 492 128 502 c 2
 159 532 l 1
 189 592 l 1
 189 650 l 1
 166 674 l 1
 145 654 l 1
 171 628 l 2
EndSplineSet
Validated: 1
EndChar

StartChar: parenleft
Encoding: 40 40 9
Width: 441
GlyphClass: 1
Flags: MW
VStem: 126 16<245 369 245 372 245 372>
LayerCount: 2
Fore
SplineSet
349 817 m 2
 355 823 369 814 360 805 c 2
 298 743 l 1
 235 649 l 1
 173 525 l 1
 142 369 l 1
 142 245 l 1
 173 89 l 1
 235 -35 l 1
 298 -129 l 1
 360 -191 l 2
 368 -199 357 -211 349 -203 c 2
 286 -140 l 2
 285 -139 285 -139 285 -138 c 2
 222 -44 l 1
 221 -43 l 1
 158 83 l 1
 158 85 l 1
 126 242 l 1
 126 372 l 1
 158 529 l 1
 158 531 l 1
 221 657 l 1
 243 688 264 720 285 752 c 0
 285 753 285 753 286 754 c 2
 349 817 l 2
EndSplineSet
Validated: 1
EndChar

StartChar: parenright
Encoding: 41 41 10
Width: 441
GlyphClass: 1
Flags: MW
VStem: 315 16<245 369 369 369>
LayerCount: 2
Fore
SplineSet
96 805 m 2
 90 814 98 824 108 817 c 2
 171 754 l 2
 171 753 171 753 172 752 c 2
 235 658 l 1
 235 657 l 1
 298 531 l 2
 299 530 299 530 299 529 c 2
 330 372 l 2
 331 371 331 371 331 370 c 2
 331 244 l 2
 331 243 331 243 330 242 c 2
 299 85 l 2
 299 84 299 84 298 83 c 2
 235 -43 l 1
 235 -44 l 1
 172 -138 l 2
 171 -139 171 -139 171 -140 c 2
 108 -203 l 2
 99 -209 89 -201 96 -191 c 2
 159 -129 l 1
 221 -35 l 1
 283 89 l 1
 315 245 l 1
 315 369 l 1
 283 525 l 1
 221 649 l 1
 159 743 l 1
 96 805 l 2
EndSplineSet
Validated: 1
EndChar

StartChar: asterisk
Encoding: 42 42 11
Width: 503
GlyphClass: 1
Flags: MW
HStem: 673 20G<256.5 261.5>
VStem: 251 16<307 482 510 685>
LayerCount: 2
Fore
SplineSet
413 597 m 2
 422 603 425 593 425 591 c 0
 425 588 424 586 421 584 c 2
 275 496 l 1
 421 408 l 2
 424 406 425 404 425 401 c 0
 425 399 422 389 413 395 c 2
 267 482 l 1
 267 307 l 2
 267 302 264 299 259 299 c 0
 254 299 251 302 251 307 c 2
 251 482 l 1
 106 395 l 2
 97 389 94 399 94 401 c 0
 94 404 95 406 98 408 c 2
 244 496 l 1
 98 584 l 2
 95 586 94 588 94 591 c 0
 94 593 97 603 106 597 c 2
 251 510 l 1
 251 685 l 2
 251 690 254 693 259 693 c 0
 264 693 267 690 267 685 c 2
 267 510 l 1
 413 597 l 2
EndSplineSet
Validated: 1
EndChar

StartChar: plus
Encoding: 43 43 12
Width: 819
GlyphClass: 1
Flags: MW
HStem: 16 21G<415.5 420.5> 299 16<131.5 410 134 410 426 701>
VStem: 410 16<24 299 315 590>
LayerCount: 2
Fore
SplineSet
134 299 m 2
 129 299 126 302 126 307 c 0
 126 312 129 315 134 315 c 2
 410 315 l 1
 410 590 l 2
 410 595 413 598 418 598 c 0
 423 598 426 595 426 590 c 2
 426 315 l 1
 701 315 l 2
 706 315 709 312 709 307 c 0
 709 302 706 299 701 299 c 2
 426 299 l 1
 426 24 l 2
 426 19 423 16 418 16 c 0
 413 16 410 19 410 24 c 2
 410 299 l 1
 134 299 l 2
EndSplineSet
Validated: 1
EndChar

StartChar: comma
Encoding: 44 44 13
Width: 315
GlyphClass: 1
Flags: MW
HStem: -108 200<140 171>
VStem: 189 16<-6 36 36 36>
LayerCount: 2
Fore
SplineSet
166 35 m 1
 186 55 l 1
 166 75 l 1
 145 55 l 1
 166 35 l 1
189 36 m 1
 171 18 l 2
 168 14 164 14 160 18 c 2
 128 49 l 2
 125 53 125 57 128 61 c 2
 160 92 l 2
 164 96 168 96 171 92 c 2
 203 61 l 2
 204 59 205 57 205 55 c 2
 205 -8 l 2
 205 -9 205 -11 204 -12 c 2
 173 -75 l 1
 140 -108 l 2
 132 -116 121 -107 128 -97 c 2
 159 -66 l 1
 189 -6 l 1
 189 36 l 1
EndSplineSet
Validated: 1
EndChar

StartChar: hyphen
Encoding: 45 45 14
Width: 819
GlyphClass: 1
Flags: MW
HStem: 299 16<131.5 701 134 701>
LayerCount: 2
Fore
SplineSet
134 299 m 2
 129 299 126 302 126 307 c 0
 126 312 129 315 134 315 c 2
 701 315 l 2
 706 315 709 312 709 307 c 0
 709 302 706 299 701 299 c 2
 134 299 l 2
EndSplineSet
Validated: 1
EndChar

StartChar: period
Encoding: 46 46 15
Width: 315
GlyphClass: 1
Flags: MW
HStem: 18 74<160 171 160 160>
VStem: 128 75<49 61 49 61>
LayerCount: 2
Fore
SplineSet
186 55 m 1
 165 75 l 1
 145 55 l 1
 165 35 l 1
 186 55 l 1
171 92 m 2
 203 61 l 2
 206 57 206 53 203 49 c 2
 171 18 l 2
 167 14 163 14 160 18 c 2
 128 49 l 2
 125 53 125 57 128 61 c 2
 160 92 l 2
 161 93 164 94 166 94 c 0
 168 94 170 93 171 92 c 2
EndSplineSet
Validated: 1
EndChar

StartChar: slash
Encoding: 47 47 16
Width: 693
GlyphClass: 1
Flags: MW
HStem: -205 21G<69 72.5>
LayerCount: 2
Fore
SplineSet
631 815 m 2
 633 818 635 819 638 819 c 2
 638 819 649 819 645 807 c 2
 78 -201 l 2
 76 -204 74 -205 71 -205 c 0
 67 -205 62 -200 64 -193 c 2
 631 815 l 2
EndSplineSet
Validated: 1
EndChar

StartChar: zero
Encoding: 48 48 17
Width: 629
GlyphClass: 1
Flags: MW
HStem: 16 16<292 353 292 357 288 353> 677 16<292 292 292 353>
VStem: 94 16<308 401 308 403 308 403> 535 16<308 401 401 401>
LayerCount: 2
Fore
SplineSet
288 693 m 1
 357 693 l 1
 451 661 l 2
 453 660 454 659 455 658 c 2
 518 563 l 2
 519 562 519 562 519 561 c 2
 551 403 l 1
 551 305 l 1
 519 148 l 2
 519 147 519 146 518 145 c 2
 455 51 l 2
 454 49 453 48 451 47 c 2
 357 16 l 1
 288 16 l 1
 194 47 l 2
 192 48 191 49 190 51 c 2
 127 145 l 2
 126 146 126 147 126 148 c 2
 94 305 l 1
 94 403 l 1
 126 561 l 2
 126 562 126 562 127 563 c 2
 190 658 l 2
 191 659 192 660 194 661 c 2
 288 693 l 1
292 677 m 1
 202 647 l 1
 141 556 l 1
 110 401 l 1
 110 308 l 1
 141 153 l 1
 202 62 l 1
 292 32 l 1
 353 32 l 1
 443 62 l 1
 504 153 l 1
 535 308 l 1
 535 401 l 1
 504 556 l 1
 443 647 l 1
 353 677 l 1
 292 677 l 1
EndSplineSet
Validated: 1
EndChar

StartChar: one
Encoding: 49 49 18
Width: 629
GlyphClass: 1
Flags: MW
HStem: 16 21G<351.5 356.5>
VStem: 346 16<24 666 666 666>
LayerCount: 2
Fore
SplineSet
200 552 m 2
 191 549 189 555 189 559 c 0
 189 562 190 564 193 566 c 2
 255 597 l 1
 349 691 l 2
 353 694 362 694 362 685 c 2
 362 24 l 2
 362 19 359 16 354 16 c 0
 349 16 346 19 346 24 c 2
 346 666 l 1
 266 585 l 2
 265 584 264 584 263 583 c 2
 200 552 l 2
EndSplineSet
Validated: 1
EndChar

StartChar: two
Encoding: 50 50 19
Width: 629
GlyphClass: 1
Flags: MW
HStem: 16 16<121 543 121 543> 677 16<261 384 261 261>
VStem: 125 16<528 557> 503 16<498 557 557 557>
LayerCount: 2
Fore
SplineSet
141 528 m 2
 141 523 138 520 133 520 c 0
 128 520 125 523 125 528 c 2
 125 559 l 2
 125 560 125 562 126 563 c 2
 158 626 l 2
 158 627 158 627 159 628 c 0
 170 639 182 650 193 661 c 1
 256 692 l 2
 257 693 258 693 259 693 c 2
 385 693 l 2
 386 693 388 693 389 692 c 2
 452 661 l 1
 487 627 487 627 487 626 c 2
 519 563 l 1
 519 492 l 1
 487 429 l 1
 424 334 l 1
 323 233 222 133 121 32 c 1
 543 32 l 2
 548 32 551 29 551 24 c 0
 551 19 548 16 543 16 c 2
 102 16 l 2
 93 16 93 25 96 29 c 2
 411 344 l 1
 473 437 l 1
 503 498 l 1
 503 557 l 1
 473 617 l 1
 444 647 l 1
 384 677 l 1
 261 677 l 1
 201 647 l 1
 172 617 l 1
 141 557 l 1
 141 528 l 2
EndSplineSet
Validated: 1
EndChar

StartChar: three
Encoding: 51 51 20
Width: 629
GlyphClass: 1
Flags: MW
HStem: 16 16<261 353 261 357 257 353> 425 16<339 415> 677 16<162.5 512 165 496>
VStem: 535 16<214 274 274 274>
LayerCount: 2
Fore
SplineSet
165 677 m 2
 160 677 157 680 157 685 c 0
 157 690 160 693 165 693 c 2
 512 693 l 2
 515 693 522 687 518 680 c 2
 339 441 l 1
 417 441 l 2
 418 441 420 441 421 440 c 2
 484 409 l 1
 517 376 l 2
 518 375 519 374 519 373 c 2
 551 278 l 1
 551 210 l 1
 519 115 l 2
 519 114 518 113 517 112 c 2
 454 49 l 2
 453 48 452 48 451 47 c 2
 357 16 l 1
 257 16 l 1
 163 47 l 1
 159 49 l 1
 148 60 137 72 126 83 c 1
 95 146 l 2
 91 158 102 158 102 158 c 2
 105 158 107 156 109 153 c 2
 140 91 l 1
 169 62 l 1
 261 32 l 1
 353 32 l 1
 444 62 l 1
 505 122 l 1
 535 214 l 1
 535 274 l 1
 505 366 l 1
 475 395 l 1
 415 425 l 1
 323 425 l 2
 320 425 311 431 316 438 c 2
 496 677 l 1
 165 677 l 2
EndSplineSet
Validated: 1
EndChar

StartChar: four
Encoding: 52 52 21
Width: 629
GlyphClass: 1
Flags: MW
HStem: 16 21G<414.5 419.5> 236 16<97 409 117 409 117 409 425 574> 673 20G<415.5 419.5>
VStem: 409 16<24 236 252 660 660 660>
LayerCount: 2
Fore
SplineSet
417 693 m 0
 422 693 425 690 425 685 c 2
 425 252 l 1
 574 252 l 2
 579 252 582 249 582 244 c 0
 582 239 579 236 574 236 c 2
 425 236 l 1
 425 24 l 2
 425 19 422 16 417 16 c 0
 412 16 409 19 409 24 c 2
 409 236 l 1
 102 236 l 2
 92 236 95 248 95 249 c 2
 410 690 l 2
 412 692 414 693 417 693 c 0
409 252 m 1
 409 660 l 1
 117 252 l 1
 409 252 l 1
EndSplineSet
Validated: 1
EndChar

StartChar: five
Encoding: 53 53 22
Width: 629
GlyphClass: 1
Flags: MW
HStem: 16 16<261 353 261 357 257 353> 456 16<261 353 261 261> 677 16<172 480 172 172>
VStem: 535 16<214 274 274 274>
LayerCount: 2
Fore
SplineSet
480 693 m 2
 485 693 488 690 488 685 c 0
 488 680 485 677 480 677 c 2
 172 677 l 1
 144 423 l 1
 159 439 l 1
 191 451 225 461 257 472 c 1
 357 472 l 1
 451 441 l 2
 452 440 453 440 454 439 c 2
 517 376 l 2
 518 375 519 374 519 373 c 2
 551 278 l 1
 551 210 l 1
 519 115 l 2
 519 114 518 113 517 112 c 2
 454 49 l 2
 453 48 452 48 451 47 c 2
 357 16 l 1
 257 16 l 1
 163 47 l 1
 159 49 l 1
 148 60 137 72 126 83 c 1
 95 146 l 2
 91 158 102 158 102 158 c 2
 105 158 107 156 109 153 c 2
 140 91 l 1
 169 62 l 1
 261 32 l 1
 353 32 l 1
 444 62 l 1
 505 122 l 1
 535 214 l 1
 535 274 l 1
 505 366 l 1
 444 426 l 1
 353 456 l 1
 261 456 l 1
 169 426 l 1
 139 396 l 2
 131 388 125 398 126 402 c 2
 157 686 l 2
 158 691 160 693 165 693 c 2
 480 693 l 2
EndSplineSet
Validated: 1
EndChar

StartChar: six
Encoding: 54 54 23
Width: 630
GlyphClass: 1
Flags: MW
HStem: 16 16<324 353 324 357 320 353> 425 16<324 353 324 324> 677 16<324 385 324 324>
VStem: 126 16<244 244 293 401> 536 16<214 243 243 243>
LayerCount: 2
Fore
SplineSet
142 244 m 1
 173 122 l 1
 233 62 l 1
 324 32 l 1
 353 32 l 1
 445 62 l 1
 505 122 l 1
 536 214 l 1
 536 243 l 1
 505 334 l 1
 445 395 l 1
 353 425 l 1
 324 425 l 1
 233 395 l 1
 172 334 l 1
 142 244 l 1
142 293 m 1
 158 341 l 2
 159 342 159 343 160 344 c 2
 223 407 l 2
 224 408 225 408 226 409 c 2
 320 441 l 1
 357 441 l 1
 452 409 l 2
 453 408 454 408 455 407 c 2
 518 344 l 2
 519 343 519 342 520 341 c 2
 551 247 l 2
 552 246 552 245 552 244 c 2
 552 212 l 2
 552 211 552 211 551 210 c 2
 520 115 l 2
 519 114 519 113 518 112 c 2
 455 49 l 2
 454 48 453 48 452 47 c 2
 357 16 l 1
 320 16 l 1
 226 47 l 2
 225 48 224 48 223 49 c 2
 160 112 l 2
 159 113 158 115 158 116 c 2
 126 242 l 1
 126 403 l 1
 158 561 l 2
 158 562 158 562 159 563 c 2
 222 658 l 2
 223 659 224 660 226 661 c 2
 320 693 l 1
 389 693 l 1
 483 661 l 2
 485 660 487 659 488 657 c 2
 519 594 l 2
 523 582 512 582 512 582 c 2
 509 582 507 584 505 587 c 2
 475 647 l 1
 385 677 l 1
 324 677 l 1
 234 647 l 1
 173 556 l 1
 142 401 l 1
 142 293 l 1
EndSplineSet
Validated: 1
EndChar

StartChar: seven
Encoding: 55 55 24
Width: 629
GlyphClass: 1
Flags: MW
HStem: 15 21G<226.5 230.5> 677 16<99.5 543 102 530>
LayerCount: 2
Fore
SplineSet
543 693 m 2
 548 693 551 690 551 685 c 0
 551 684 551 683 550 682 c 2
 235 20 l 2
 234 17 232 15 229 15 c 0
 224 15 219 20 221 27 c 2
 530 677 l 1
 102 677 l 2
 97 677 94 680 94 685 c 0
 94 690 97 693 102 693 c 2
 543 693 l 2
EndSplineSet
Validated: 1
EndChar

StartChar: eight
Encoding: 56 56 25
Width: 629
GlyphClass: 1
Flags: MW
HStem: 16 16<261 384 261 388 257 384> 677 16<261 384 261 261>
VStem: 94 16<151 242 151 244 151 244.5> 126 16<529 589 529 594 529 594> 504 16<529 589 589 589> 535 16<151 242 242 242>
LayerCount: 2
Fore
SplineSet
352 394 m 1
 322 401 l 1
 293 394 l 1
 201 363 l 1
 140 302 l 1
 110 242 l 1
 110 151 l 1
 140 91 l 1
 169 62 l 1
 261 32 l 1
 384 32 l 1
 476 62 l 1
 505 91 l 1
 535 151 l 1
 535 242 l 1
 505 302 l 1
 444 363 l 1
 352 394 l 1
322 418 m 1
 353 425 383 433 414 441 c 1
 474 470 l 1
 504 529 l 1
 504 589 l 1
 474 647 l 1
 384 677 l 1
 261 677 l 1
 171 647 l 1
 142 589 l 1
 142 529 l 1
 171 470 l 1
 231 441 l 1
 262 433 292 425 322 418 c 1
419 425 m 2
 357 409 l 1
 451 378 l 2
 452 377 453 377 454 376 c 2
 519 311 l 1
 550 248 l 2
 551 247 551 245 551 244 c 2
 551 150 l 2
 551 149 551 147 550 146 c 2
 519 83 l 1
 483 47 l 1
 388 16 l 1
 257 16 l 1
 162 47 l 2
 161 48 160 48 159 49 c 0
 148 60 137 72 126 83 c 1
 95 146 l 2
 94 147 94 149 94 150 c 2
 94 244 l 2
 94 245 94 247 95 248 c 2
 126 311 l 1
 191 376 l 2
 192 377 193 377 194 378 c 2
 288 409 l 1
 226 425 l 2
 225 425 225 425 224 426 c 2
 161 457 l 2
 160 458 159 460 158 461 c 2
 126 524 l 1
 126 594 l 1
 158 657 l 2
 159 659 160 660 162 661 c 2
 257 693 l 1
 388 693 l 1
 483 661 l 2
 485 660 486 659 487 657 c 2
 519 594 l 2
 520 593 520 591 520 590 c 2
 520 528 l 2
 520 527 520 525 519 524 c 2
 487 461 l 2
 486 460 485 458 484 457 c 2
 421 426 l 2
 420 425 420 425 419 425 c 2
EndSplineSet
Validated: 1
EndChar

StartChar: nine
Encoding: 57 57 26
Width: 630
GlyphClass: 1
Flags: MW
HStem: 16 16<261 321 261 325 257 321> 268 16<292 321 292 325 288 321> 677 16<292 321 292 292>
VStem: 94 16<466 495 466 499 466 499> 504 16<308 415 415 415>
LayerCount: 2
Fore
SplineSet
504 415 m 1
 488 367 l 2
 487 366 487 365 486 364 c 2
 423 301 l 2
 422 300 421 300 420 299 c 2
 325 268 l 1
 288 268 l 1
 194 299 l 2
 193 300 192 300 191 301 c 2
 128 364 l 2
 127 365 127 366 126 367 c 2
 94 462 l 1
 94 499 l 1
 126 593 l 2
 127 594 127 595 128 596 c 2
 191 659 l 2
 192 660 193 660 194 661 c 2
 288 693 l 1
 325 693 l 1
 420 661 l 2
 421 660 422 660 423 659 c 2
 486 596 l 2
 487 595 487 594 488 592 c 2
 519 466 l 2
 520 465 520 465 520 464 c 2
 520 307 l 2
 520 306 520 306 519 305 c 2
 488 148 l 2
 488 147 488 146 487 145 c 2
 424 51 l 2
 423 49 421 48 420 47 c 2
 325 16 l 1
 257 16 l 1
 162 47 l 2
 160 48 159 49 158 51 c 2
 126 114 l 2
 123 123 132 126 134 126 c 0
 137 126 139 125 141 122 c 2
 171 62 l 1
 261 32 l 1
 321 32 l 1
 412 62 l 1
 472 153 l 1
 504 308 l 1
 504 415 l 1
503 465 m 1
 473 586 l 1
 413 647 l 1
 321 677 l 1
 292 677 l 1
 201 647 l 1
 140 586 l 1
 110 495 l 1
 110 466 l 1
 140 374 l 1
 201 314 l 1
 292 284 l 1
 321 284 l 1
 413 314 l 1
 473 374 l 1
 503 465 l 1
EndSplineSet
Validated: 1
EndChar

StartChar: colon
Encoding: 58 58 27
Width: 315
GlyphClass: 1
Flags: MW
HStem: 452 20G<165 167>
VStem: 128 75<49 61 49 61 427 439>
LayerCount: 2
Fore
SplineSet
186 55 m 1
 165 75 l 1
 145 55 l 1
 165 35 l 1
 186 55 l 1
171 92 m 2
 203 61 l 2
 206 57 206 53 203 49 c 2
 171 18 l 2
 167 14 163 14 160 18 c 2
 128 49 l 2
 125 53 125 57 128 61 c 2
 160 92 l 2
 161 93 164 94 166 94 c 0
 168 94 170 93 171 92 c 2
186 433 m 1
 165 453 l 1
 145 433 l 1
 165 413 l 1
 186 433 l 1
171 470 m 2
 203 439 l 2
 206 435 206 431 203 427 c 2
 171 396 l 2
 167 392 163 392 160 396 c 2
 128 427 l 2
 125 431 125 435 128 439 c 2
 160 470 l 2
 161 471 164 472 166 472 c 0
 168 472 170 471 171 470 c 2
EndSplineSet
Validated: 1
EndChar

StartChar: semicolon
Encoding: 59 59 28
Width: 315
GlyphClass: 1
Flags: MW
HStem: 452 20G<165 167>
VStem: 189 16<-6 36 36 36>
LayerCount: 2
Fore
SplineSet
166 35 m 1
 186 55 l 1
 166 75 l 1
 145 55 l 1
 166 35 l 1
189 36 m 1
 171 18 l 2
 168 14 164 14 160 18 c 2
 128 49 l 2
 125 53 125 57 128 61 c 2
 160 92 l 2
 164 96 168 96 171 92 c 2
 203 61 l 2
 204 59 205 57 205 55 c 2
 205 -8 l 2
 205 -9 205 -11 204 -12 c 2
 173 -75 l 1
 140 -108 l 2
 132 -116 121 -107 128 -97 c 2
 159 -66 l 1
 189 -6 l 1
 189 36 l 1
186 433 m 1
 166 453 l 1
 145 433 l 1
 166 413 l 1
 186 433 l 1
171 470 m 2
 203 439 l 2
 206 435 206 431 203 427 c 2
 171 396 l 2
 168 392 164 392 160 396 c 2
 128 427 l 2
 125 431 125 435 128 439 c 2
 160 470 l 2
 161 471 164 472 166 472 c 0
 168 472 170 471 171 470 c 2
EndSplineSet
Validated: 1
EndChar

StartChar: less
Encoding: 60 60 29
Width: 756
GlyphClass: 1
Flags: W
LayerCount: 2
Fore
SplineSet
634 597 m 2
 644 604 646 592 646 590 c 0
 646 587 645 585 642 584 c 2
 150 307 l 1
 642 30 l 2
 645 29 646 27 646 24 c 0
 646 22 644 10 634 17 c 2
 130 300 l 2
 127 301 126 303 126 306 c 0
 126 309 127 312 130 314 c 2
 634 597 l 2
EndSplineSet
Validated: 1
EndChar

StartChar: equal
Encoding: 61 61 30
Width: 819
GlyphClass: 1
Flags: MW
HStem: 204 16<131.5 701 134 701> 394 16<131.5 701 134 701>
LayerCount: 2
Fore
SplineSet
134 204 m 2
 129 204 126 207 126 212 c 0
 126 217 129 220 134 220 c 2
 701 220 l 2
 706 220 709 217 709 212 c 0
 709 207 706 204 701 204 c 2
 134 204 l 2
134 394 m 2
 129 394 126 397 126 402 c 0
 126 407 129 410 134 410 c 2
 701 410 l 2
 706 410 709 407 709 402 c 0
 709 397 706 394 701 394 c 2
 134 394 l 2
EndSplineSet
Validated: 1
EndChar

StartChar: greater
Encoding: 62 62 31
Width: 756
GlyphClass: 1
Flags: W
LayerCount: 2
Fore
SplineSet
130 584 m 2
 127 585 126 587 126 590 c 0
 126 592 128 604 138 597 c 2
 642 314 l 2
 645 312 646 309 646 306 c 0
 646 303 645 301 642 300 c 2
 138 17 l 2
 128 10 126 22 126 24 c 0
 126 27 127 29 130 30 c 2
 622 307 l 1
 130 584 l 2
EndSplineSet
Validated: 1
EndChar

StartChar: question
Encoding: 63 63 32
Width: 566
GlyphClass: 1
Flags: MW
HStem: 677 16<230 352 230 230>
VStem: 94 16<528 557> 283 16<244 334> 472 16<498 557 557 557>
CounterMasks: 1 70
LayerCount: 2
Fore
SplineSet
311 55 m 1
 291 75 l 1
 271 55 l 1
 291 35 l 1
 311 55 l 1
297 92 m 2
 328 61 l 2
 332 57 332 53 328 49 c 2
 297 18 l 2
 293 14 289 14 285 18 c 2
 254 49 l 2
 250 53 250 57 254 61 c 2
 285 92 l 2
 287 93 289 94 291 94 c 0
 293 94 295 93 297 92 c 2
110 528 m 2
 110 523 107 520 102 520 c 0
 97 520 94 523 94 528 c 2
 94 559 l 2
 94 560 94 562 95 563 c 2
 126 626 l 1
 161 661 l 1
 224 692 l 2
 225 693 227 693 228 693 c 2
 354 693 l 2
 355 693 357 693 358 692 c 2
 421 661 l 1
 456 626 l 1
 487 563 l 2
 488 562 488 560 488 559 c 2
 488 496 l 2
 488 495 488 493 487 492 c 2
 456 429 l 1
 421 394 l 1
 299 334 l 1
 299 244 l 2
 299 239 296 236 291 236 c 0
 286 236 283 239 283 244 c 2
 283 338 l 2
 283 341 284 344 287 346 c 2
 412 408 l 1
 442 438 l 1
 472 498 l 1
 472 557 l 1
 442 617 l 1
 412 647 l 1
 352 677 l 1
 230 677 l 1
 170 647 l 1
 140 617 l 1
 110 557 l 1
 110 528 l 2
EndSplineSet
Validated: 1
EndChar

StartChar: at
Encoding: 64 64 33
Width: 850
GlyphClass: 1
Flags: MW
HStem: 16 16<387 479 387 483 383 479> 173 16<353.5 447 357 447 357 448 609 666> 520 16<389 478 389 389> 677 16<387 479 387 387>
VStem: 94 16<308 400 308 404 308 404> 252 16<277 369 277 373 277 373> 283 16<277 369 277 373 277 373> 535 16<217 242 242 242 217 278> 566 16<216 275 216 276 216 276> 756 16<340 400 400 400>
LayerCount: 2
Fore
SplineSet
598 528 m 2
 599 533 602 536 607 535 c 0
 612 534 615 532 614 527 c 2
 582 275 l 1
 582 216 l 1
 609 189 l 1
 666 189 l 1
 725 248 l 1
 756 340 l 1
 756 400 l 1
 725 493 l 1
 694 554 l 1
 633 615 l 1
 571 646 l 1
 479 677 l 1
 387 677 l 1
 294 646 l 1
 233 615 l 1
 172 554 l 1
 141 493 l 1
 110 400 l 1
 110 308 l 1
 141 216 l 1
 172 154 l 1
 233 93 l 1
 294 62 l 1
 387 32 l 1
 479 32 l 1
 571 62 l 1
 633 93 l 1
 663 124 l 2
 673 132 681 119 675 112 c 0
 664 101 652 90 641 79 c 1
 578 48 l 1
 577 47 l 1
 483 16 l 1
 383 16 l 1
 288 47 l 2
 288 48 288 48 287 48 c 2
 224 79 l 1
 159 144 l 2
 158 145 158 145 158 146 c 2
 126 209 l 1
 126 210 l 1
 94 304 l 1
 94 404 l 1
 126 499 l 1
 126 500 l 1
 158 563 l 2
 158 564 158 564 159 565 c 2
 222 628 l 2
 223 629 223 629 224 629 c 2
 287 661 l 1
 288 661 l 1
 383 693 l 1
 483 693 l 1
 577 661 l 1
 578 661 l 1
 641 629 l 2
 642 629 642 629 643 628 c 2
 708 563 l 1
 739 500 l 2
 739 499 739 499 740 499 c 2
 771 404 l 2
 772 403 772 403 772 402 c 2
 772 338 l 2
 772 337 772 337 771 336 c 2
 740 241 l 2
 739 240 739 239 738 238 c 2
 675 175 l 2
 673 174 671 173 669 173 c 2
 606 173 l 2
 605 173 603 173 602 174 c 2
 539 205 l 2
 536 207 535 209 535 212 c 2
 535 242 l 1
 519 209 l 1
 515 205 l 1
 452 174 l 2
 451 173 449 173 448 173 c 2
 354 173 l 2
 353 173 351 173 350 174 c 2
 287 205 l 2
 286 206 285 208 284 209 c 2
 252 272 l 1
 252 373 l 1
 283 467 l 2
 284 468 284 469 285 470 c 2
 317 502 l 2
 318 503 318 503 319 503 c 2
 382 535 l 2
 383 536 385 536 386 536 c 2
 480 536 l 2
 481 536 483 536 484 535 c 2
 547 503 l 1
 550 500 l 1
 560 479 l 1
 567 528 l 2
 568 533 571 536 576 535 c 0
 581 534 583 532 582 527 c 2
 573 453 l 1
 582 437 l 2
 585 426 575 423 570 426 c 1
 551 275 l 1
 551 217 l 1
 567 209 l 1
 566 210 566 211 566 212 c 2
 566 276 l 1
 567 276 l 1
 598 528 l 2
535 278 m 1
 557 450 l 1
 537 490 l 1
 478 520 l 1
 389 520 l 1
 329 460 l 1
 299 369 l 1
 299 277 l 1
 329 217 l 1
 357 189 l 1
 447 189 l 1
 506 218 l 1
 535 278 l 1
315 209 m 1
 284 272 l 2
 283 273 283 275 283 276 c 2
 283 373 l 1
 315 467 l 2
 316 468 316 469 317 470 c 2
 345 498 l 1
 327 489 l 1
 298 460 l 1
 268 369 l 1
 268 277 l 1
 297 218 l 1
 315 209 l 1
EndSplineSet
Validated: 1
EndChar

StartChar: A
Encoding: 65 65 34
Width: 566
GlyphClass: 1
Flags: MW
HStem: 16 21G<37.5 41.5 539.5 547.5> 236 16<133 447 135 447 135 449> 673 20G<289 293>
LayerCount: 2
Fore
SplineSet
284 688 m 2
 285 691 287 693 291 693 c 0
 295 693 298 691 299 688 c 2
 551 26 l 2
 551 25 554 16 541 16 c 0
 538 16 537 18 536 21 c 2
 453 237 l 1
 452 236 450 236 449 236 c 2
 134 236 l 2
 132 236 130 236 129 237 c 1
 47 21 l 2
 46 18 43 16 40 16 c 0
 35 16 29 18 32 26 c 2
 284 688 l 2
447 252 m 1
 291 663 l 1
 135 252 l 1
 447 252 l 1
EndSplineSet
Validated: 1
EndChar

StartChar: B
Encoding: 66 66 35
Width: 661
GlyphClass: 1
Flags: MW
HStem: 16 16<131.5 416 142 416 142 420> 362 16<142 416 142 416> 677 16<142 416 142 142>
VStem: 126 16<32 32 32 362 378 677> 567 16<151 242 242 242 498 557 557 557>
LayerCount: 2
Fore
SplineSet
416 378 m 1
 508 408 l 1
 537 438 l 1
 567 498 l 1
 567 557 l 1
 537 617 l 1
 508 647 l 1
 416 677 l 1
 142 677 l 1
 142 378 l 1
 416 378 l 1
443 370 m 1
 515 346 l 2
 516 345 517 345 518 344 c 2
 551 311 l 1
 582 248 l 2
 583 247 583 245 583 244 c 2
 583 150 l 2
 583 149 583 147 582 146 c 2
 551 83 l 1
 515 47 l 1
 420 16 l 1
 134 16 l 2
 129 16 126 19 126 24 c 2
 126 685 l 2
 126 690 129 693 134 693 c 2
 420 693 l 1
 515 661 l 2
 516 660 517 660 518 659 c 2
 551 626 l 1
 582 563 l 2
 583 562 583 560 583 559 c 2
 583 496 l 2
 583 495 583 493 582 492 c 2
 551 429 l 1
 518 396 l 2
 517 395 516 395 515 394 c 2
 443 370 l 1
142 32 m 1
 416 32 l 1
 508 62 l 1
 537 91 l 1
 567 151 l 1
 567 242 l 1
 537 302 l 1
 508 332 l 1
 416 362 l 1
 142 362 l 1
 142 32 l 1
EndSplineSet
Validated: 1
EndChar

StartChar: C
Encoding: 67 67 36
Width: 661
GlyphClass: 1
Flags: MW
HStem: 16 16<293 415 293 421 287 415> 677 16<293 415 293 293>
VStem: 94 16<277 432 277 436 277 436>
LayerCount: 2
Fore
SplineSet
582 531 m 2
 584 524 579 519 574 519 c 0
 571 519 569 521 567 524 c 2
 536 586 l 1
 475 647 l 1
 415 677 l 1
 293 677 l 1
 233 647 l 1
 172 586 l 1
 141 524 l 1
 110 432 l 1
 110 277 l 1
 141 184 l 1
 172 123 l 1
 233 62 l 1
 293 32 l 1
 415 32 l 1
 475 62 l 1
 536 123 l 1
 567 185 l 2
 569 188 571 189 574 189 c 0
 576 189 585 186 582 177 c 2
 550 114 l 2
 550 113 550 113 549 112 c 2
 486 49 l 2
 485 48 485 48 484 48 c 2
 421 16 l 1
 287 16 l 1
 224 48 l 2
 223 48 223 48 222 49 c 2
 159 112 l 2
 158 113 158 113 158 114 c 2
 126 177 l 1
 126 178 l 1
 94 273 l 1
 94 436 l 1
 126 530 l 1
 126 531 l 1
 158 594 l 2
 158 595 158 595 159 596 c 2
 224 661 l 1
 287 692 l 2
 288 693 290 693 291 693 c 2
 417 693 l 2
 418 693 420 693 421 692 c 2
 484 661 l 1
 549 596 l 2
 550 595 550 595 550 594 c 2
 582 531 l 2
EndSplineSet
Validated: 1
EndChar

StartChar: D
Encoding: 68 68 37
Width: 661
GlyphClass: 1
Flags: MW
HStem: 16 16<131.5 353 142 353 142 357> 677 16<142 353 142 142>
VStem: 126 16<32 32 32 677> 567 16<277 432 432 432>
LayerCount: 2
Fore
SplineSet
134 693 m 2
 357 693 l 1
 452 661 l 2
 453 660 454 660 455 659 c 2
 518 596 l 2
 519 595 519 595 519 594 c 2
 551 531 l 1
 551 530 l 1
 583 436 l 1
 583 273 l 1
 551 178 l 1
 551 177 l 1
 519 114 l 2
 519 113 519 113 518 112 c 2
 455 49 l 2
 454 48 453 48 452 47 c 2
 357 16 l 1
 134 16 l 2
 129 16 126 19 126 24 c 2
 126 685 l 2
 126 690 129 693 134 693 c 2
142 32 m 1
 353 32 l 1
 445 62 l 1
 505 123 l 1
 536 184 l 1
 567 277 l 1
 567 432 l 1
 536 524 l 1
 505 586 l 1
 445 647 l 1
 353 677 l 1
 142 677 l 1
 142 32 l 1
EndSplineSet
Validated: 1
EndChar

StartChar: E
Encoding: 69 69 38
Width: 598
GlyphClass: 1
Flags: MW
HStem: 16 16<131.5 544 142 544 142 544> 362 16<142 386 142 386> 677 16<142 544 142 142>
VStem: 126 16<32 362 378 677>
LayerCount: 2
Fore
SplineSet
134 693 m 2
 544 693 l 2
 549 693 552 690 552 685 c 0
 552 680 549 677 544 677 c 2
 142 677 l 1
 142 378 l 1
 386 378 l 2
 391 378 394 375 394 370 c 0
 394 365 391 362 386 362 c 2
 142 362 l 1
 142 32 l 1
 544 32 l 2
 549 32 552 29 552 24 c 0
 552 19 549 16 544 16 c 2
 134 16 l 2
 129 16 126 19 126 24 c 2
 126 685 l 2
 126 690 129 693 134 693 c 2
EndSplineSet
Validated: 1
EndChar

StartChar: F
Encoding: 70 70 39
Width: 566
GlyphClass: 1
Flags: MW
HStem: 16 21G<131.5 136.5> 362 16<142 386 142 386> 677 16<142 544 142 142>
VStem: 126 16<24 362 378 677>
LayerCount: 2
Fore
SplineSet
134 693 m 2
 544 693 l 2
 549 693 552 690 552 685 c 0
 552 680 549 677 544 677 c 2
 142 677 l 1
 142 378 l 1
 386 378 l 2
 391 378 394 375 394 370 c 0
 394 365 391 362 386 362 c 2
 142 362 l 1
 142 24 l 2
 142 19 139 16 134 16 c 0
 129 16 126 19 126 24 c 2
 126 685 l 2
 126 690 129 693 134 693 c 2
EndSplineSet
Validated: 1
EndChar

StartChar: G
Encoding: 71 71 40
Width: 661
GlyphClass: 1
Flags: MW
HStem: 16 16<293 415 293 421 287 415> 268 16<414.5 574 417 566> 677 16<293 415 293 293>
VStem: 94 16<277 432 277 436 277 436> 566 16<183 268 268 268>
LayerCount: 2
Fore
SplineSet
417 268 m 2
 412 268 409 271 409 276 c 0
 409 281 412 284 417 284 c 2
 574 284 l 2
 579 284 582 281 582 276 c 2
 582 177 l 1
 550 114 l 2
 550 113 550 113 549 112 c 2
 486 49 l 2
 485 48 485 48 484 48 c 2
 421 16 l 1
 287 16 l 1
 224 48 l 2
 223 48 223 48 222 49 c 2
 159 112 l 2
 158 113 158 113 158 114 c 2
 126 177 l 1
 126 178 l 1
 94 273 l 1
 94 436 l 1
 126 530 l 1
 126 531 l 1
 158 594 l 2
 158 595 158 595 159 596 c 2
 224 661 l 1
 287 692 l 2
 288 693 290 693 291 693 c 2
 417 693 l 2
 418 693 420 693 421 692 c 2
 484 661 l 1
 549 596 l 2
 550 595 550 595 550 594 c 2
 582 531 l 1
 582 531 586 520 574 520 c 0
 571 520 569 521 567 524 c 2
 536 586 l 1
 475 647 l 1
 415 677 l 1
 293 677 l 1
 233 647 l 1
 172 586 l 1
 141 524 l 1
 110 432 l 1
 110 277 l 1
 141 184 l 1
 172 123 l 1
 233 62 l 1
 293 32 l 1
 415 32 l 1
 475 62 l 1
 536 123 l 1
 566 183 l 1
 566 268 l 1
 417 268 l 2
EndSplineSet
Validated: 1
EndChar

StartChar: H
Encoding: 72 72 41
Width: 693
GlyphClass: 1
Flags: MW
HStem: 16 21G<131.5 136.5 572.5 577.5> 362 16<142 567 142 567> 673 20G<131.5 136.5 572.5 577.5>
VStem: 126 16<24 362 378 685> 567 16<24 362 362 362 378 685>
LayerCount: 2
Fore
SplineSet
567 685 m 2
 567 690 570 693 575 693 c 0
 580 693 583 690 583 685 c 2
 583 24 l 2
 583 19 580 16 575 16 c 0
 570 16 567 19 567 24 c 2
 567 362 l 1
 142 362 l 1
 142 24 l 2
 142 19 139 16 134 16 c 0
 129 16 126 19 126 24 c 2
 126 685 l 2
 126 690 129 693 134 693 c 0
 139 693 142 690 142 685 c 2
 142 378 l 1
 567 378 l 1
 567 685 l 2
EndSplineSet
Validated: 1
EndChar

StartChar: I
Encoding: 73 73 42
Width: 252
GlyphClass: 1
Flags: MW
HStem: 16 21G<131.5 136.5> 673 20G<131.5 136.5>
VStem: 126 16<24 685>
LayerCount: 2
Fore
SplineSet
126 685 m 2
 126 690 129 693 134 693 c 0
 139 693 142 690 142 685 c 2
 142 24 l 2
 142 19 139 16 134 16 c 0
 129 16 126 19 126 24 c 2
 126 685 l 2
EndSplineSet
Validated: 1
EndChar

StartChar: J
Encoding: 74 74 43
Width: 504
GlyphClass: 1
Flags: MW
HStem: 16 16<199 258 199 264 193 258> 673 20G<383.5 388.5>
VStem: 63 16<182 244 182 244 182 246.5> 378 16<182 685 178 687.5>
LayerCount: 2
Fore
SplineSet
378 685 m 2
 378 690 381 693 386 693 c 0
 391 693 394 690 394 685 c 2
 394 178 l 1
 362 84 l 2
 361 83 361 82 360 81 c 2
 329 49 l 2
 328 48 328 48 327 48 c 2
 264 16 l 1
 193 16 l 1
 130 48 l 2
 129 48 129 48 128 49 c 2
 97 81 l 2
 96 82 96 83 95 84 c 2
 63 178 l 1
 63 244 l 2
 63 249 66 252 71 252 c 0
 76 252 79 249 79 244 c 2
 79 182 l 1
 109 91 l 1
 139 62 l 1
 199 32 l 1
 258 32 l 1
 318 62 l 1
 348 91 l 1
 378 182 l 1
 378 685 l 2
EndSplineSet
Validated: 1
EndChar

StartChar: K
Encoding: 75 75 44
Width: 661
GlyphClass: 1
Flags: MW
HStem: 16 20G 673 20G<131.5 136.5>
VStem: 126 16<24 241 263 685>
LayerCount: 2
Fore
SplineSet
569 691 m 2
 577 697 587 687 581 679 c 2
 302 401 l 1
 581 28 l 2
 585 22 581 15 576 15 c 0
 573 15 571 16 569 19 c 2
 291 389 l 1
 142 241 l 1
 142 24 l 2
 142 19 139 16 134 16 c 0
 129 16 126 19 126 24 c 2
 126 685 l 2
 126 690 129 693 134 693 c 0
 139 693 142 690 142 685 c 2
 142 263 l 1
 569 691 l 2
EndSplineSet
Validated: 1
EndChar

StartChar: L
Encoding: 76 76 45
Width: 535
GlyphClass: 1
Flags: MW
HStem: 16 16<131.5 512 142 512 142 512> 673 20G<131.5 136.5>
VStem: 126 16<32 685 32 685 32 687.5>
LayerCount: 2
Fore
SplineSet
126 685 m 2
 126 690 129 693 134 693 c 0
 139 693 142 690 142 685 c 2
 142 32 l 1
 512 32 l 2
 517 32 520 29 520 24 c 0
 520 19 517 16 512 16 c 2
 134 16 l 2
 129 16 126 19 126 24 c 2
 126 685 l 2
EndSplineSet
Validated: 1
EndChar

StartChar: M
Encoding: 77 77 46
Width: 756
GlyphClass: 1
Flags: MW
HStem: 16 21G<131.5 136.5 635.5 640.5> 673 20G<131.5 136 636 640.5>
VStem: 126 16<24 642> 630 16<24 642 642 642>
LayerCount: 2
Fore
SplineSet
638 693 m 0
 643 693 646 690 646 685 c 2
 646 24 l 2
 646 19 643 16 638 16 c 0
 633 16 630 19 630 24 c 2
 630 642 l 1
 393 21 l 2
 392 17 390 15 386 15 c 0
 382 15 380 17 379 21 c 2
 142 642 l 1
 142 24 l 2
 142 19 139 16 134 16 c 0
 129 16 126 19 126 24 c 2
 126 685 l 2
 126 690 129 693 134 693 c 0
 138 693 140 691 141 688 c 2
 386 46 l 1
 631 688 l 2
 632 691 634 693 638 693 c 0
EndSplineSet
Validated: 1
EndChar

StartChar: N
Encoding: 78 78 47
Width: 693
GlyphClass: 1
Flags: MW
HStem: 16 21G<131.5 136.5 573.5 577.5> 673 20G<131.5 135.5 572.5 577.5>
VStem: 126 16<24 659> 567 16<50 685>
LayerCount: 2
Fore
SplineSet
126 685 m 2
 126 690 129 693 134 693 c 0
 137 693 139 692 141 689 c 2
 567 50 l 1
 567 685 l 2
 567 690 570 693 575 693 c 0
 580 693 583 690 583 685 c 2
 583 24 l 2
 583 19 580 16 575 16 c 0
 572 16 570 17 568 19 c 2
 142 659 l 1
 142 24 l 2
 142 19 139 16 134 16 c 0
 129 16 126 19 126 24 c 2
 126 685 l 2
EndSplineSet
Validated: 1
EndChar

StartChar: O
Encoding: 79 79 48
Width: 692
GlyphClass: 1
Flags: MW
HStem: 16 16<293 415 293 421 287 415> 677 16<293 293 293 415>
VStem: 94 16<277 432 277 436 277 436> 598 16<277 432 432 432>
LayerCount: 2
Fore
SplineSet
293 677 m 1
 233 647 l 1
 172 586 l 1
 141 524 l 1
 110 432 l 1
 110 277 l 1
 141 184 l 1
 172 123 l 1
 233 62 l 1
 293 32 l 1
 415 32 l 1
 475 62 l 1
 536 123 l 1
 567 184 l 1
 598 277 l 1
 598 432 l 1
 567 524 l 1
 536 586 l 1
 475 647 l 1
 415 677 l 1
 293 677 l 1
287 692 m 2
 288 693 290 693 291 693 c 2
 417 693 l 2
 418 693 420 693 421 692 c 2
 484 661 l 1
 549 596 l 2
 550 595 550 595 550 594 c 2
 582 531 l 1
 582 530 l 1
 614 436 l 1
 614 273 l 1
 582 178 l 1
 582 177 l 1
 550 114 l 2
 550 113 550 113 549 112 c 2
 486 49 l 2
 485 48 485 48 484 48 c 2
 421 16 l 1
 287 16 l 1
 224 48 l 2
 223 48 223 48 222 49 c 2
 159 112 l 2
 158 113 158 113 158 114 c 2
 126 177 l 1
 126 178 l 1
 94 273 l 1
 94 436 l 1
 126 530 l 1
 126 531 l 1
 158 594 l 2
 158 595 158 595 159 596 c 2
 224 661 l 1
 287 692 l 2
EndSplineSet
Validated: 1
EndChar

StartChar: P
Encoding: 80 80 49
Width: 661
GlyphClass: 1
Flags: MW
HStem: 16 21G<131.5 136.5> 330 16<142 416 142 418 142 416> 677 16<142 416 142 142>
VStem: 126 16<24 330 346 677> 567 16<466 557 557 557>
LayerCount: 2
Fore
SplineSet
134 693 m 2
 420 693 l 1
 515 661 l 2
 516 660 517 660 518 659 c 2
 551 626 l 1
 582 563 l 2
 583 562 583 560 583 559 c 2
 583 464 l 2
 583 463 583 462 582 461 c 2
 551 398 l 1
 515 362 l 1
 420 331 l 2
 419 330 419 330 418 330 c 2
 142 330 l 1
 142 24 l 2
 142 19 139 16 134 16 c 0
 129 16 126 19 126 24 c 2
 126 685 l 2
 126 690 129 693 134 693 c 2
142 346 m 1
 416 346 l 1
 508 377 l 1
 537 406 l 1
 567 466 l 1
 567 557 l 1
 537 617 l 1
 508 647 l 1
 416 677 l 1
 142 677 l 1
 142 346 l 1
EndSplineSet
Validated: 1
EndChar

StartChar: Q
Encoding: 81 81 50
Width: 692
GlyphClass: 1
Flags: MW
HStem: 16 16<293 415 293 421 287 415> 677 16<293 415 293 293>
VStem: 94 16<277 432 277 436 277 436> 598 16<277 432 432 432>
LayerCount: 2
Fore
SplineSet
380 144 m 2
 371 150 385 164 391 155 c 2
 480 66 l 1
 536 123 l 1
 567 184 l 1
 598 277 l 1
 598 432 l 1
 567 524 l 1
 536 586 l 1
 475 647 l 1
 415 677 l 1
 293 677 l 1
 233 647 l 1
 172 586 l 1
 141 524 l 1
 110 432 l 1
 110 277 l 1
 141 184 l 1
 172 123 l 1
 233 62 l 1
 293 32 l 1
 415 32 l 1
 466 57 l 1
 380 144 l 2
287 692 m 2
 288 693 290 693 291 693 c 2
 417 693 l 2
 418 693 420 693 421 692 c 2
 484 661 l 1
 549 596 l 2
 550 595 550 595 550 594 c 2
 582 531 l 1
 582 530 l 1
 614 436 l 1
 614 273 l 1
 582 178 l 1
 582 177 l 1
 550 114 l 2
 550 113 550 113 549 112 c 2
 491 55 l 1
 580 -34 l 2
 589 -40 575 -54 569 -45 c 2
 478 45 l 1
 421 16 l 1
 287 16 l 1
 224 48 l 2
 223 48 223 48 222 49 c 2
 159 112 l 2
 158 113 158 113 158 114 c 2
 126 177 l 1
 126 178 l 1
 94 273 l 1
 94 436 l 1
 126 530 l 1
 126 531 l 1
 158 594 l 2
 158 595 158 595 159 596 c 2
 224 661 l 1
 287 692 l 2
EndSplineSet
Validated: 1
EndChar

StartChar: R
Encoding: 82 82 51
Width: 661
GlyphClass: 1
Flags: MW
HStem: 16 20G 362 16<142 350 142 416 369 416 142 420 369 369> 677 16<142 416 142 142>
VStem: 126 16<24 362 378 677> 567 16<498 557 557 557>
LayerCount: 2
Fore
SplineSet
369 362 m 1
 582 28 l 2
 584 21 581 15 576 15 c 0
 573 15 570 16 568 19 c 2
 350 362 l 1
 142 362 l 1
 142 24 l 2
 142 19 139 16 134 16 c 0
 129 16 126 19 126 24 c 2
 126 685 l 2
 126 690 129 693 134 693 c 2
 420 693 l 1
 515 661 l 2
 516 660 517 660 518 659 c 2
 551 626 l 1
 582 563 l 2
 583 562 583 560 583 559 c 2
 583 496 l 2
 583 495 583 493 582 492 c 2
 551 429 l 1
 518 396 l 2
 517 395 516 395 515 394 c 2
 420 362 l 1
 369 362 l 1
142 378 m 1
 416 378 l 1
 508 408 l 1
 537 438 l 1
 567 498 l 1
 567 557 l 1
 537 617 l 1
 508 647 l 1
 416 677 l 1
 142 677 l 1
 142 378 l 1
EndSplineSet
Validated: 1
EndChar

StartChar: S
Encoding: 83 83 52
Width: 629
GlyphClass: 1
Flags: MW
HStem: 16 16<261 384 261 388 257 384> 677 16<261 384 261 261>
VStem: 94 16<529 587 529 590 529 591.5> 535 16<121 211 211 211>
LayerCount: 2
Fore
SplineSet
549 596 m 2
 555 590 546 576 537 585 c 2
 476 647 l 1
 384 677 l 1
 261 677 l 1
 169 647 l 1
 110 587 l 1
 110 529 l 1
 140 469 l 1
 170 440 l 1
 231 409 l 1
 420 346 l 1
 421 346 l 1
 484 314 l 2
 485 314 485 314 486 313 c 0
 497 302 508 290 519 279 c 1
 550 216 l 2
 551 215 551 213 551 212 c 2
 551 118 l 2
 551 116 550 114 549 112 c 2
 486 49 l 2
 485 48 484 48 483 47 c 2
 388 16 l 1
 257 16 l 1
 162 47 l 2
 161 48 160 48 159 49 c 2
 96 112 l 2
 90 121 98 131 108 124 c 2
 169 62 l 1
 261 32 l 1
 384 32 l 1
 476 62 l 1
 535 121 l 1
 535 211 l 1
 505 271 l 1
 475 300 l 1
 414 331 l 1
 225 394 l 1
 224 394 l 1
 161 426 l 2
 160 426 160 426 159 427 c 0
 148 438 137 450 126 461 c 1
 95 524 l 2
 94 525 94 527 94 528 c 2
 94 590 l 2
 94 593 95 595 96 596 c 2
 159 659 l 2
 160 660 161 660 162 661 c 2
 257 693 l 1
 388 693 l 1
 483 661 l 2
 484 660 485 660 486 659 c 2
 549 596 l 2
EndSplineSet
Validated: 1
EndChar

StartChar: T
Encoding: 84 84 53
Width: 503
GlyphClass: 1
Flags: MW
HStem: 16 21G<257.5 262.5> 677 16<36.5 480 39 252 268 268 268 480>
VStem: 252 16<24 677>
LayerCount: 2
Fore
SplineSet
39 677 m 2
 34 677 31 680 31 685 c 0
 31 690 34 693 39 693 c 2
 480 693 l 2
 485 693 488 690 488 685 c 0
 488 680 485 677 480 677 c 2
 268 677 l 1
 268 24 l 2
 268 19 265 16 260 16 c 0
 255 16 252 19 252 24 c 2
 252 677 l 1
 39 677 l 2
EndSplineSet
Validated: 1
EndChar

StartChar: U
Encoding: 85 85 54
Width: 693
GlyphClass: 1
Flags: MW
HStem: 16 16<324 385 324 389 320 385> 673 20G<131.5 136.5 572.5 577.5>
VStem: 126 16<214 685 214 685 214 687.5> 567 16<214 685 210 687.5>
LayerCount: 2
Fore
SplineSet
126 685 m 2
 126 690 129 693 134 693 c 0
 139 693 142 690 142 685 c 2
 142 214 l 1
 172 122 l 1
 233 62 l 1
 324 32 l 1
 385 32 l 1
 476 62 l 1
 537 122 l 1
 567 214 l 1
 567 685 l 2
 567 690 570 693 575 693 c 0
 580 693 583 690 583 685 c 2
 583 210 l 1
 551 115 l 2
 550 114 550 113 549 112 c 2
 486 49 l 2
 485 48 484 48 483 47 c 2
 389 16 l 1
 320 16 l 1
 226 47 l 2
 225 48 224 48 223 49 c 2
 160 112 l 2
 159 113 159 114 158 115 c 2
 126 210 l 1
 126 685 l 2
EndSplineSet
Validated: 1
EndChar

StartChar: V
Encoding: 86 86 55
Width: 566
GlyphClass: 1
Flags: MW
HStem: 15 21G<290 294> 672 20G<35.5 41.5 540.5 548>
LayerCount: 2
Fore
SplineSet
536 688 m 2
 537 691 539 692 542 692 c 0
 554 692 551 682 551 682 c 1
 299 21 l 2
 298 17 296 15 292 15 c 0
 288 15 285 17 284 21 c 2
 32 682 l 2
 30 687 31 692 40 692 c 0
 43 692 46 691 47 688 c 2
 291 46 l 1
 536 688 l 2
EndSplineSet
Validated: 1
EndChar

StartChar: W
Encoding: 87 87 56
Width: 756
GlyphClass: 1
Flags: MW
HStem: 15 21G<227 231 542 546> 673 20G<384 388>
LayerCount: 2
Fore
SplineSet
693 687 m 2
 695 693 703 695 707 691 c 0
 709 689 710 686 709 683 c 2
 551 22 l 2
 550 17 548 15 544 15 c 0
 540 15 537 17 536 22 c 2
 386 650 l 1
 236 22 l 2
 235 17 233 15 229 15 c 0
 225 15 222 17 221 22 c 2
 63 683 l 2
 61 690 74 701 79 687 c 2
 229 58 l 1
 378 687 l 2
 379 691 382 693 386 693 c 0
 390 693 393 691 394 687 c 2
 544 58 l 1
 693 687 l 2
EndSplineSet
Validated: 1
EndChar

StartChar: X
Encoding: 88 88 57
Width: 629
GlyphClass: 1
Flags: MW
HStem: 15 21G<99.5 103.5 542.5 546.5> 672 21G
LayerCount: 2
Fore
SplineSet
536 689 m 2
 538 692 541 692 544 692 c 0
 547 692 553 689 550 681 c 2
 332 354 l 1
 550 28 l 2
 552 21 549 15 544 15 c 0
 541 15 539 16 536 19 c 2
 323 340 l 1
 109 19 l 2
 107 16 105 15 102 15 c 0
 97 15 92 20 95 28 c 2
 313 354 l 1
 95 681 l 2
 94 685 94 693 102 693 c 0
 105 693 107 692 109 689 c 2
 323 369 l 1
 536 689 l 2
EndSplineSet
Validated: 1
EndChar

StartChar: Y
Encoding: 89 89 58
Width: 566
GlyphClass: 1
Flags: MW
HStem: 16 21G<288.5 293.5> 672 20G<34.5 39.5>
VStem: 283 16<24 367>
LayerCount: 2
Fore
SplineSet
537 690 m 2
 543 699 555 689 549 680 c 2
 299 367 l 1
 299 24 l 2
 299 19 296 16 291 16 c 0
 286 16 283 19 283 24 c 2
 283 367 l 1
 33 680 l 2
 30 685 31 692 38 692 c 0
 41 692 43 692 45 690 c 2
 291 383 l 1
 537 690 l 2
EndSplineSet
Validated: 1
EndChar

StartChar: Z
Encoding: 90 90 59
Width: 629
GlyphClass: 1
Flags: MW
HStem: 16 16<99.5 543 117 543 117 543> 677 16<99.5 543 102 528>
LayerCount: 2
Fore
SplineSet
102 16 m 2
 97 16 94 19 94 24 c 0
 94 25 94 27 95 28 c 2
 528 677 l 1
 102 677 l 2
 97 677 94 680 94 685 c 0
 94 690 97 693 102 693 c 2
 543 693 l 2
 548 693 551 690 551 685 c 0
 551 684 551 682 550 681 c 2
 117 32 l 1
 543 32 l 2
 548 32 551 29 551 24 c 0
 551 19 548 16 543 16 c 2
 102 16 l 2
EndSplineSet
Validated: 1
EndChar

StartChar: bracketleft
Encoding: 91 91 60
Width: 440
GlyphClass: 1
Flags: MW
HStem: -205 16<131.5 158 142 158 174 354> 803 16<142 158 142 142 174 174 174 354>
VStem: 126 16<-189 803 -189 811 -189 813.5> 158 16<-189 803 -189 803>
LayerCount: 2
Fore
SplineSet
158 803 m 1
 142 803 l 1
 142 -189 l 1
 158 -189 l 1
 158 803 l 1
134 -205 m 2
 129 -205 126 -202 126 -197 c 2
 126 811 l 2
 126 816 129 819 134 819 c 2
 354 819 l 2
 359 819 362 816 362 811 c 0
 362 806 359 803 354 803 c 2
 174 803 l 1
 174 -189 l 1
 354 -189 l 2
 359 -189 362 -192 362 -197 c 0
 362 -202 359 -205 354 -205 c 2
 134 -205 l 2
EndSplineSet
Validated: 1
EndChar

StartChar: backslash
Encoding: 92 92 61
Width: 441
GlyphClass: 1
Flags: MW
HStem: 673 20G<6 9.5>
LayerCount: 2
Fore
SplineSet
1 681 m 2
 -1 688 4 693 8 693 c 0
 11 693 13 692 15 689 c 2
 456 -67 l 2
 460 -79 449 -79 449 -79 c 2
 446 -79 444 -78 442 -75 c 2
 1 681 l 2
EndSplineSet
Validated: 1
EndChar

StartChar: bracketright
Encoding: 93 93 62
Width: 440
GlyphClass: 1
Flags: MW
HStem: -205 16<99.5 283 102 283 299 314> 803 16<99.5 322 102 283 299 299 299 314>
VStem: 283 16<-189 803 -189 803> 314 16<-189 803 803 803>
LayerCount: 2
Fore
SplineSet
102 -205 m 2
 97 -205 94 -202 94 -197 c 0
 94 -192 97 -189 102 -189 c 2
 283 -189 l 1
 283 803 l 1
 102 803 l 2
 97 803 94 806 94 811 c 0
 94 816 97 819 102 819 c 2
 322 819 l 2
 327 819 330 816 330 811 c 2
 330 -197 l 2
 330 -202 327 -205 322 -205 c 2
 102 -205 l 2
314 803 m 1
 299 803 l 1
 299 -189 l 1
 314 -189 l 1
 314 803 l 1
EndSplineSet
Validated: 1
EndChar

StartChar: asciicircum
Encoding: 94 94 63
Width: 315
GlyphClass: 1
Flags: MW
HStem: 301 235<14 167.5 164.5 317>
VStem: 2 327<313 313>
LayerCount: 2
Fore
SplineSet
158 531 m 2
 160 534 163 536 166 536 c 0
 169 536 171 534 173 531 c 2
 204 469 l 1
 266 375 l 1
 329 313 l 2
 335 305 325 296 317 301 c 2
 254 364 l 2
 254 365 254 365 253 366 c 2
 190 460 l 1
 190 461 l 1
 166 510 l 1
 141 461 l 1
 141 460 l 1
 78 366 l 2
 77 365 77 365 77 364 c 2
 14 301 l 2
 8 297 -6 302 2 313 c 2
 65 375 l 1
 127 469 l 1
 158 531 l 2
EndSplineSet
Validated: 1
EndChar

StartChar: underscore
Encoding: 95 95 64
Width: 504
GlyphClass: 1
Flags: MW
HStem: -48 16<5.5 512 8 512>
LayerCount: 2
Fore
SplineSet
8 -48 m 2
 3 -48 0 -45 0 -40 c 0
 0 -35 3 -32 8 -32 c 2
 512 -32 l 2
 517 -32 520 -35 520 -40 c 0
 520 -45 517 -48 512 -48 c 2
 8 -48 l 2
EndSplineSet
Validated: 1
EndChar

StartChar: grave
Encoding: 96 96 65
Width: 315
GlyphClass: 1
Flags: MW
HStem: 490 201
VStem: 126 16<531 589 531 590 531 590.5>
LayerCount: 2
Fore
SplineSet
191 691 m 0
 199 697 209 687 203 679 c 2
 172 649 l 1
 142 589 l 1
 142 531 l 1
 166 507 l 1
 186 528 l 1
 160 553 l 2
 151 562 165 571 171 565 c 2
 203 533 l 2
 206 529 206 525 203 522 c 2
 171 490 l 2
 167 487 163 487 160 490 c 2
 128 522 l 2
 127 523 126 525 126 528 c 2
 126 590 l 2
 126 591 126 593 127 594 c 2
 158 657 l 1
 169 668 180 680 191 691 c 0
EndSplineSet
Validated: 1
EndChar

StartChar: a
Encoding: 97 97 66
Width: 598
GlyphClass: 1
Flags: MW
HStem: 16 16<261 352 261 358 256 352> 456 16<261 352 261 261>
VStem: 94 16<214 274 214 278 214 278> 472 16<24 99 99 99 121 367 367 367 389 464>
LayerCount: 2
Fore
SplineSet
472 464 m 2
 472 469 475 472 480 472 c 0
 485 472 488 469 488 464 c 2
 488 24 l 2
 488 19 485 16 480 16 c 0
 475 16 472 19 472 24 c 2
 472 99 l 1
 423 49 l 2
 422 48 422 48 421 48 c 2
 358 16 l 1
 256 16 l 1
 193 48 l 2
 192 48 192 48 191 49 c 2
 128 112 l 2
 127 113 127 114 126 115 c 2
 94 210 l 1
 94 278 l 1
 126 373 l 2
 127 374 127 375 128 376 c 2
 191 439 l 2
 192 440 192 440 193 440 c 2
 256 472 l 1
 358 472 l 1
 421 440 l 2
 422 440 422 440 423 439 c 2
 472 389 l 1
 472 464 l 2
472 367 m 1
 412 426 l 1
 352 456 l 1
 261 456 l 1
 201 426 l 1
 140 366 l 1
 110 274 l 1
 110 214 l 1
 140 122 l 1
 201 62 l 1
 261 32 l 1
 352 32 l 1
 412 62 l 1
 472 121 l 1
 472 367 l 1
EndSplineSet
Validated: 1
EndChar

StartChar: b
Encoding: 98 98 67
Width: 598
GlyphClass: 1
Flags: MW
HStem: 16 16<262 353 262 358 256 353> 456 16<262 353 262 262> 673 20G<131.5 136.5>
VStem: 126 16<24 99 121 367 389 685> 504 16<214 274 274 274>
LayerCount: 2
Fore
SplineSet
126 685 m 2
 126 690 129 693 134 693 c 0
 139 693 142 690 142 685 c 2
 142 389 l 1
 191 439 l 2
 192 440 192 440 193 440 c 2
 256 472 l 1
 358 472 l 1
 421 440 l 2
 422 440 422 440 423 439 c 2
 486 376 l 2
 487 375 487 374 488 373 c 2
 520 278 l 1
 520 210 l 1
 488 115 l 2
 487 114 487 113 486 112 c 2
 423 49 l 2
 422 48 422 48 421 48 c 2
 358 16 l 1
 256 16 l 1
 193 48 l 2
 192 48 192 48 191 49 c 2
 142 99 l 1
 142 24 l 2
 142 19 139 16 134 16 c 0
 129 16 126 19 126 24 c 2
 126 685 l 2
142 121 m 1
 202 62 l 1
 262 32 l 1
 353 32 l 1
 413 62 l 1
 474 122 l 1
 504 214 l 1
 504 274 l 1
 474 366 l 1
 413 426 l 1
 353 456 l 1
 262 456 l 1
 202 426 l 1
 142 367 l 1
 142 121 l 1
EndSplineSet
Validated: 1
EndChar

StartChar: c
Encoding: 99 99 68
Width: 566
GlyphClass: 1
Flags: MW
HStem: 16 16<261 352 261 358 256 352> 456 16<261 352 261 261>
VStem: 94 16<214 274 214 278 214 278>
LayerCount: 2
Fore
SplineSet
486 376 m 2
 492 368 482 358 474 364 c 2
 412 426 l 1
 352 456 l 1
 261 456 l 1
 201 426 l 1
 140 366 l 1
 110 274 l 1
 110 214 l 1
 140 122 l 1
 201 62 l 1
 261 32 l 1
 352 32 l 1
 412 62 l 1
 474 124 l 2
 484 132 492 119 486 112 c 2
 423 49 l 2
 422 48 422 48 421 48 c 2
 358 16 l 1
 256 16 l 1
 193 48 l 2
 192 48 192 48 191 49 c 2
 128 112 l 2
 127 113 127 114 126 115 c 2
 94 210 l 1
 94 278 l 1
 126 373 l 2
 127 374 127 375 128 376 c 2
 191 439 l 2
 192 440 192 440 193 440 c 2
 256 472 l 1
 358 472 l 1
 421 440 l 2
 422 440 422 440 423 439 c 2
 486 376 l 2
EndSplineSet
Validated: 1
EndChar

StartChar: d
Encoding: 100 100 69
Width: 598
GlyphClass: 1
Flags: MW
HStem: 16 16<261 352 261 358 256 352> 456 16<261 352 261 261> 673 20G<477.5 482.5>
VStem: 94 16<214 274 214 278 214 278> 472 16<24 99 99 99 121 367 367 367 389 685>
LayerCount: 2
Fore
SplineSet
472 685 m 2
 472 690 475 693 480 693 c 0
 485 693 488 690 488 685 c 2
 488 24 l 2
 488 19 485 16 480 16 c 0
 475 16 472 19 472 24 c 2
 472 99 l 1
 423 49 l 2
 422 48 422 48 421 48 c 2
 358 16 l 1
 256 16 l 1
 193 48 l 2
 192 48 192 48 191 49 c 2
 128 112 l 2
 127 113 127 114 126 115 c 2
 94 210 l 1
 94 278 l 1
 126 373 l 2
 127 374 127 375 128 376 c 2
 191 439 l 2
 192 440 192 440 193 440 c 2
 256 472 l 1
 358 472 l 1
 421 440 l 2
 422 440 422 440 423 439 c 2
 472 389 l 1
 472 685 l 2
472 367 m 1
 412 426 l 1
 352 456 l 1
 261 456 l 1
 201 426 l 1
 140 366 l 1
 110 274 l 1
 110 214 l 1
 140 122 l 1
 201 62 l 1
 261 32 l 1
 352 32 l 1
 412 62 l 1
 472 121 l 1
 472 367 l 1
EndSplineSet
Validated: 1
EndChar

StartChar: e
Encoding: 101 101 70
Width: 566
GlyphClass: 1
Flags: MW
HStem: 16 16<261 352 261 358 256 352> 268 16<110 472 113 472 113 480> 456 16<261 352 261 261>
VStem: 94 16<214 268 214 278 214 278> 472 16<284 337 337 337>
LayerCount: 2
Fore
SplineSet
110 268 m 1
 110 214 l 1
 140 122 l 1
 201 62 l 1
 261 32 l 1
 352 32 l 1
 412 62 l 1
 474 124 l 2
 482 130 492 120 486 112 c 2
 423 49 l 2
 422 48 422 48 421 48 c 2
 358 16 l 1
 256 16 l 1
 193 48 l 2
 192 48 192 48 191 49 c 2
 128 112 l 2
 127 113 127 114 126 115 c 2
 94 210 l 1
 94 278 l 1
 126 373 l 2
 127 374 127 375 128 376 c 2
 191 439 l 2
 192 440 192 440 193 440 c 2
 256 472 l 1
 358 472 l 1
 421 440 l 2
 422 440 422 440 423 439 c 0
 434 428 445 416 456 405 c 1
 487 342 l 2
 488 341 488 339 488 338 c 2
 488 276 l 2
 488 271 485 268 480 268 c 2
 110 268 l 1
113 284 m 1
 472 284 l 1
 472 337 l 1
 442 397 l 1
 412 426 l 1
 352 456 l 1
 261 456 l 1
 201 426 l 1
 140 366 l 1
 113 284 l 1
EndSplineSet
Validated: 1
EndChar

StartChar: f
Encoding: 102 102 71
Width: 378
GlyphClass: 1
Flags: MW
HStem: 16 21G<163.5 168.5> 456 16<68.5 158 71 158 174 292> 677 16<262 323 262 262>
VStem: 158 16<24 456 472 558>
LayerCount: 2
Fore
SplineSet
71 456 m 2
 66 456 63 459 63 464 c 0
 63 469 66 472 71 472 c 2
 158 472 l 1
 158 562 l 1
 189 656 l 2
 190 658 191 660 193 661 c 2
 256 692 l 2
 257 693 259 693 260 693 c 2
 323 693 l 2
 328 693 331 690 331 685 c 0
 331 680 328 677 323 677 c 2
 262 677 l 1
 204 648 l 1
 174 558 l 1
 174 472 l 1
 292 472 l 2
 297 472 300 469 300 464 c 0
 300 459 297 456 292 456 c 2
 174 456 l 1
 174 24 l 2
 174 19 171 16 166 16 c 0
 161 16 158 19 158 24 c 2
 158 456 l 1
 71 456 l 2
EndSplineSet
Validated: 1
EndChar

StartChar: g
Encoding: 103 103 72
Width: 598
GlyphClass: 1
Flags: MW
HStem: -205 16<259.5 352 261 352 261 354> 16 16<261 352 261 358 256 352> 456 16<261 352 261 261>
VStem: 94 16<214 274 214 278 214 278> 472 16<-38 99 99 99 121 367 367 367 389 464 -42 466.5>
LayerCount: 2
Fore
SplineSet
472 464 m 2
 472 469 475 472 480 472 c 0
 485 472 488 469 488 464 c 2
 488 -42 l 1
 456 -137 l 2
 455 -138 455 -139 454 -140 c 2
 421 -173 l 1
 358 -204 l 2
 357 -205 355 -205 354 -205 c 2
 260 -205 l 2
 259 -205 257 -205 256 -204 c 2
 193 -173 l 2
 190 -171 188 -169 188 -166 c 0
 188 -161 193 -156 200 -158 c 2
 261 -189 l 1
 352 -189 l 1
 412 -159 l 1
 442 -130 l 1
 472 -38 l 1
 472 99 l 1
 423 49 l 2
 422 48 422 48 421 48 c 2
 358 16 l 1
 256 16 l 1
 193 48 l 2
 192 48 192 48 191 49 c 2
 128 112 l 2
 127 113 127 114 126 115 c 2
 94 210 l 1
 94 278 l 1
 126 373 l 2
 127 374 127 375 128 376 c 2
 191 439 l 2
 192 440 192 440 193 440 c 2
 256 472 l 1
 358 472 l 1
 421 440 l 2
 422 440 422 440 423 439 c 2
 472 389 l 1
 472 464 l 2
472 367 m 1
 412 426 l 1
 352 456 l 1
 261 456 l 1
 201 426 l 1
 140 366 l 1
 110 274 l 1
 110 214 l 1
 140 122 l 1
 201 62 l 1
 261 32 l 1
 352 32 l 1
 412 62 l 1
 472 121 l 1
 472 367 l 1
EndSplineSet
Validated: 1
EndChar

StartChar: h
Encoding: 104 104 73
Width: 598
GlyphClass: 1
Flags: MW
HStem: 16 21G<131.5 136.5 477.5 482.5> 456 16<293 384 293 293> 673 20G<131.5 136.5>
VStem: 126 16<24 335 358 685> 472 16<24 337 337 337>
LayerCount: 2
Fore
SplineSet
126 685 m 2
 126 690 129 693 134 693 c 0
 139 693 142 690 142 685 c 2
 142 358 l 1
 223 439 l 2
 224 440 224 440 225 440 c 2
 288 472 l 1
 390 472 l 1
 453 440 l 2
 455 439 456 438 457 436 c 2
 488 341 l 1
 488 24 l 2
 488 19 485 16 480 16 c 0
 475 16 472 19 472 24 c 2
 472 337 l 1
 442 427 l 1
 384 456 l 1
 293 456 l 1
 233 426 l 1
 142 335 l 1
 142 24 l 2
 142 19 139 16 134 16 c 0
 129 16 126 19 126 24 c 2
 126 685 l 2
EndSplineSet
Validated: 1
EndChar

StartChar: i
Encoding: 105 105 74
Width: 251
GlyphClass: 1
Flags: MW
HStem: 16 21G<130.5 135.5> 452 20G<130.5 135.5>
VStem: 125 16<24 464>
LayerCount: 2
Fore
SplineSet
125 464 m 2
 125 469 128 472 133 472 c 0
 138 472 141 469 141 464 c 2
 141 24 l 2
 141 19 138 16 133 16 c 0
 128 16 125 19 125 24 c 2
 125 464 l 2
133 705 m 1
 113 685 l 1
 133 665 l 1
 154 685 l 1
 133 705 l 1
96 691 m 2
 128 722 l 2
 131 726 135 726 139 722 c 2
 171 691 l 2
 174 687 174 683 171 679 c 2
 139 648 l 2
 135 644 131 644 128 648 c 2
 96 679 l 2
 95 681 94 683 94 685 c 0
 94 687 95 689 96 691 c 2
EndSplineSet
Validated: 1
EndChar

StartChar: j
Encoding: 106 106 75
Width: 314
GlyphClass: 1
Flags: MW
HStem: -205 16<36.5 100 39 100 39 102> 452 20G<193.5 198.5>
VStem: 188 16<-70 464 -74 466.5>
LayerCount: 2
Fore
SplineSet
188 464 m 2
 188 469 191 472 196 472 c 0
 201 472 204 469 204 464 c 2
 204 -74 l 1
 173 -168 l 2
 172 -170 171 -172 169 -173 c 2
 106 -204 l 2
 105 -205 103 -205 102 -205 c 2
 39 -205 l 2
 34 -205 31 -202 31 -197 c 0
 31 -192 34 -189 39 -189 c 2
 100 -189 l 1
 158 -160 l 1
 188 -70 l 1
 188 464 l 2
196 705 m 1
 176 685 l 1
 196 665 l 1
 217 685 l 1
 196 705 l 1
159 691 m 2
 191 722 l 2
 195 726 199 726 202 722 c 2
 234 691 l 2
 237 687 237 683 234 679 c 2
 202 648 l 2
 198 644 194 644 191 648 c 2
 159 679 l 2
 158 681 157 683 157 685 c 0
 157 687 158 689 159 691 c 2
EndSplineSet
Validated: 1
EndChar

StartChar: k
Encoding: 107 107 76
Width: 536
GlyphClass: 1
Flags: MW
HStem: 16 21G<131.5 136.5> 673 20G<131.5 136.5>
VStem: 126 16<24 146 169 685>
LayerCount: 2
Fore
SplineSet
443 470 m 2
 452 479 461 465 455 459 c 2
 271 275 l 1
 487 29 l 2
 492 22 484 11 474 18 c 2
 260 264 l 1
 142 146 l 1
 142 24 l 2
 142 19 139 16 134 16 c 0
 129 16 126 19 126 24 c 2
 126 685 l 2
 126 690 129 693 134 693 c 0
 139 693 142 690 142 685 c 2
 142 169 l 1
 443 470 l 2
EndSplineSet
Validated: 1
EndChar

StartChar: l
Encoding: 108 108 77
Width: 252
GlyphClass: 1
Flags: MW
HStem: 16 21G<131.5 136.5> 673 20G<131.5 136.5>
VStem: 126 16<24 685>
LayerCount: 2
Fore
SplineSet
126 685 m 2
 126 690 129 693 134 693 c 0
 139 693 142 690 142 685 c 2
 142 24 l 2
 142 19 139 16 134 16 c 0
 129 16 126 19 126 24 c 2
 126 685 l 2
EndSplineSet
Validated: 1
EndChar

StartChar: m
Encoding: 109 109 78
Width: 945
GlyphClass: 1
Flags: MW
HStem: 16 21G<131.5 136.5 477.5 482.5 824.5 829.5> 456 16<293 384 293 293 640 731 640 640>
VStem: 126 16<24 335 358 464> 472 16<24 335> 819 16<24 337 337 337>
LayerCount: 2
Fore
SplineSet
126 464 m 2
 126 469 129 472 134 472 c 0
 139 472 142 469 142 464 c 2
 142 358 l 1
 223 439 l 2
 224 440 224 440 225 440 c 2
 288 472 l 1
 390 472 l 1
 453 440 l 2
 455 439 456 438 457 436 c 2
 484 353 l 1
 569 439 l 2
 570 440 570 440 571 440 c 2
 634 472 l 1
 736 472 l 1
 799 440 l 2
 801 439 802 438 803 436 c 2
 835 341 l 1
 835 24 l 2
 835 19 832 16 827 16 c 0
 822 16 819 19 819 24 c 2
 819 337 l 1
 789 427 l 1
 731 456 l 1
 640 456 l 1
 580 426 l 1
 488 335 l 1
 488 24 l 2
 488 19 485 16 480 16 c 0
 475 16 472 19 472 24 c 2
 472 337 l 1
 442 427 l 1
 384 456 l 1
 293 456 l 1
 233 426 l 1
 142 335 l 1
 142 24 l 2
 142 19 139 16 134 16 c 0
 129 16 126 19 126 24 c 2
 126 464 l 2
EndSplineSet
Validated: 1
EndChar

StartChar: n
Encoding: 110 110 79
Width: 598
GlyphClass: 1
Flags: MW
HStem: 16 21G<131.5 136.5 477.5 482.5> 456 16<293 384 293 293>
VStem: 126 16<24 335 358 464> 472 16<24 337 337 337>
LayerCount: 2
Fore
SplineSet
126 464 m 2
 126 469 129 472 134 472 c 0
 139 472 142 469 142 464 c 2
 142 358 l 1
 223 439 l 2
 224 440 224 440 225 440 c 2
 288 472 l 1
 390 472 l 1
 453 440 l 2
 455 439 456 438 457 436 c 2
 488 341 l 1
 488 24 l 2
 488 19 485 16 480 16 c 0
 475 16 472 19 472 24 c 2
 472 337 l 1
 442 427 l 1
 384 456 l 1
 293 456 l 1
 233 426 l 1
 142 335 l 1
 142 24 l 2
 142 19 139 16 134 16 c 0
 129 16 126 19 126 24 c 2
 126 464 l 2
EndSplineSet
Validated: 1
EndChar

StartChar: o
Encoding: 111 111 80
Width: 598
GlyphClass: 1
Flags: MW
HStem: 16 16<261 352 261 358 256 352> 456 16<261 261 261 352>
VStem: 94 16<214 274 214 278 214 278> 504 16<214 274 274 274>
LayerCount: 2
Fore
SplineSet
261 456 m 1
 201 426 l 1
 140 366 l 1
 110 274 l 1
 110 214 l 1
 140 122 l 1
 201 62 l 1
 261 32 l 1
 352 32 l 1
 412 62 l 1
 473 122 l 1
 504 214 l 1
 504 274 l 1
 473 366 l 1
 412 426 l 1
 352 456 l 1
 261 456 l 1
256 472 m 1
 358 472 l 1
 421 440 l 2
 422 440 422 440 423 439 c 2
 486 376 l 2
 487 375 487 374 488 373 c 2
 519 278 l 2
 520 277 520 277 520 276 c 2
 520 212 l 2
 520 211 520 211 519 210 c 2
 488 115 l 2
 487 114 487 113 486 112 c 2
 423 49 l 2
 422 48 422 48 421 48 c 2
 358 16 l 1
 256 16 l 1
 193 48 l 2
 192 48 192 48 191 49 c 2
 128 112 l 2
 127 113 127 114 126 115 c 2
 94 210 l 1
 94 278 l 1
 126 373 l 2
 127 374 127 375 128 376 c 2
 191 439 l 2
 192 440 192 440 193 440 c 2
 256 472 l 1
EndSplineSet
Validated: 1
EndChar

StartChar: p
Encoding: 112 112 81
Width: 598
GlyphClass: 1
Flags: MW
HStem: -205 21G<131.5 136.5> 16 16<262 353 262 358 256 353> 456 16<262 353 262 262>
VStem: 126 16<-197 99 121 367 389 464> 504 16<214 274 274 274>
LayerCount: 2
Fore
SplineSet
126 464 m 2
 126 469 129 472 134 472 c 0
 139 472 142 469 142 464 c 2
 142 389 l 1
 191 439 l 2
 192 440 192 440 193 440 c 2
 256 472 l 1
 358 472 l 1
 421 440 l 2
 422 440 422 440 423 439 c 2
 486 376 l 2
 487 375 487 374 488 373 c 2
 520 278 l 1
 520 210 l 1
 488 115 l 2
 487 114 487 113 486 112 c 2
 423 49 l 2
 422 48 422 48 421 48 c 2
 358 16 l 1
 256 16 l 1
 193 48 l 2
 192 48 192 48 191 49 c 2
 142 99 l 1
 142 -197 l 2
 142 -202 139 -205 134 -205 c 0
 129 -205 126 -202 126 -197 c 2
 126 464 l 2
142 121 m 1
 202 62 l 1
 262 32 l 1
 353 32 l 1
 413 62 l 1
 474 122 l 1
 504 214 l 1
 504 274 l 1
 474 366 l 1
 413 426 l 1
 353 456 l 1
 262 456 l 1
 202 426 l 1
 142 367 l 1
 142 121 l 1
EndSplineSet
Validated: 1
EndChar

StartChar: q
Encoding: 113 113 82
Width: 598
GlyphClass: 1
Flags: MW
HStem: -205 21G<477.5 482.5> 16 16<261 352 261 358 256 352> 456 16<261 352 261 261>
VStem: 94 16<214 274 214 278 214 278> 472 16<-197 99 99 99 121 367 367 367 389 464>
LayerCount: 2
Fore
SplineSet
472 464 m 2
 472 469 475 472 480 472 c 0
 485 472 488 469 488 464 c 2
 488 -197 l 2
 488 -202 485 -205 480 -205 c 0
 475 -205 472 -202 472 -197 c 2
 472 99 l 1
 423 49 l 2
 422 48 422 48 421 48 c 2
 358 16 l 1
 256 16 l 1
 193 48 l 2
 192 48 192 48 191 49 c 2
 128 112 l 2
 127 113 127 114 126 115 c 2
 94 210 l 1
 94 278 l 1
 126 373 l 2
 127 374 127 375 128 376 c 2
 191 439 l 2
 192 440 192 440 193 440 c 2
 256 472 l 1
 358 472 l 1
 421 440 l 2
 422 440 422 440 423 439 c 2
 472 389 l 1
 472 464 l 2
472 367 m 1
 412 426 l 1
 352 456 l 1
 261 456 l 1
 201 426 l 1
 140 366 l 1
 110 274 l 1
 110 214 l 1
 140 122 l 1
 201 62 l 1
 261 32 l 1
 352 32 l 1
 412 62 l 1
 472 121 l 1
 472 367 l 1
EndSplineSet
Validated: 1
EndChar

StartChar: r
Encoding: 114 114 83
Width: 409
GlyphClass: 1
Flags: MW
HStem: 16 21G<131.5 136.5> 456 16<293 386 293 293>
VStem: 126 16<24 274 325 464>
LayerCount: 2
Fore
SplineSet
126 464 m 2
 126 469 129 472 134 472 c 0
 139 472 142 469 142 464 c 2
 142 325 l 1
 158 373 l 2
 159 374 159 375 160 376 c 2
 223 439 l 2
 224 440 224 440 225 440 c 2
 288 472 l 1
 386 472 l 2
 391 472 394 469 394 464 c 0
 394 459 391 456 386 456 c 2
 293 456 l 1
 233 426 l 1
 172 366 l 1
 142 274 l 1
 142 24 l 2
 142 19 139 16 134 16 c 0
 129 16 126 19 126 24 c 2
 126 464 l 2
EndSplineSet
Validated: 1
EndChar

StartChar: s
Encoding: 115 115 84
Width: 535
GlyphClass: 1
Flags: MW
HStem: 16 16<229 321 229 325 226 321> 456 16<229 321 229 229>
VStem: 441 16<120 148 148 148>
LayerCount: 2
Fore
SplineSet
456 374 m 2
 458 367 454 362 448 362 c 0
 445 362 443 363 441 366 c 2
 411 426 l 1
 321 456 l 1
 229 456 l 1
 139 426 l 1
 111 370 l 1
 140 313 l 1
 199 283 l 1
 356 252 l 2
 357 252 357 252 358 251 c 2
 421 220 l 2
 422 219 423 217 424 216 c 2
 456 153 l 2
 457 152 457 151 457 150 c 2
 457 118 l 2
 457 117 457 115 456 114 c 2
 424 51 l 2
 423 49 422 48 420 47 c 2
 325 16 l 1
 226 16 l 1
 131 47 l 2
 129 48 127 49 126 51 c 2
 95 114 l 2
 91 126 102 126 102 126 c 2
 105 126 107 125 109 122 c 2
 139 62 l 1
 229 32 l 1
 321 32 l 1
 411 62 l 1
 441 120 l 1
 441 148 l 1
 411 207 l 1
 351 236 l 1
 195 268 l 1
 193 268 l 1
 130 300 l 2
 129 301 127 302 126 303 c 2
 95 366 l 2
 94 369 94 371 95 374 c 2
 126 437 l 2
 127 439 129 440 131 441 c 2
 226 472 l 1
 325 472 l 1
 420 441 l 2
 422 440 423 439 424 437 c 2
 456 374 l 2
EndSplineSet
Validated: 1
EndChar

StartChar: t
Encoding: 116 116 85
Width: 378
GlyphClass: 1
Flags: MW
HStem: 16 16<262 323 262 323 256 323> 456 16<68.5 158 71 158 174 292> 673 20G<163.5 168.5>
VStem: 158 16<151 456 151 456 151 456 472 685>
LayerCount: 2
Fore
SplineSet
71 456 m 2
 66 456 63 459 63 464 c 0
 63 469 66 472 71 472 c 2
 158 472 l 1
 158 685 l 2
 158 690 161 693 166 693 c 0
 171 693 174 690 174 685 c 2
 174 472 l 1
 292 472 l 2
 297 472 300 469 300 464 c 0
 300 459 297 456 292 456 c 2
 174 456 l 1
 174 151 l 1
 204 61 l 1
 262 32 l 1
 323 32 l 2
 328 32 331 29 331 24 c 0
 331 19 328 16 323 16 c 2
 256 16 l 1
 193 48 l 2
 191 49 190 50 189 52 c 2
 158 147 l 1
 158 456 l 1
 71 456 l 2
EndSplineSet
Validated: 1
EndChar

StartChar: u
Encoding: 117 117 86
Width: 598
GlyphClass: 1
Flags: MW
HStem: 16 16<230 321 230 327 225 321> 452 20G<131.5 136.5 477.5 482.5>
VStem: 126 16<151 464 151 464 151 466.5> 472 16<24 130 130 130 153 464>
LayerCount: 2
Fore
SplineSet
472 464 m 2
 472 469 475 472 480 472 c 0
 485 472 488 469 488 464 c 2
 488 24 l 2
 488 19 485 16 480 16 c 0
 475 16 472 19 472 24 c 2
 472 130 l 1
 392 49 l 2
 391 48 391 48 390 48 c 2
 327 16 l 1
 225 16 l 1
 162 48 l 2
 160 49 159 50 158 52 c 2
 126 147 l 1
 126 464 l 2
 126 469 129 472 134 472 c 0
 139 472 142 469 142 464 c 2
 142 151 l 1
 172 61 l 1
 230 32 l 1
 321 32 l 1
 381 62 l 1
 472 153 l 1
 472 464 l 2
EndSplineSet
Validated: 1
EndChar

StartChar: v
Encoding: 118 118 87
Width: 504
GlyphClass: 1
Flags: MW
HStem: 15 21G<258.5 261.5> 452 20G<67 73.5 446.5 453>
LayerCount: 2
Fore
SplineSet
442 468 m 2
 443 471 445 472 448 472 c 0
 458 472 457 465 456 461 c 2
 267 20 l 2
 266 17 263 15 260 15 c 0
 257 15 254 17 253 20 c 2
 64 461 l 2
 63 465 62 472 72 472 c 0
 75 472 77 471 78 468 c 2
 260 44 l 1
 442 468 l 2
EndSplineSet
Validated: 1
EndChar

StartChar: w
Encoding: 119 119 88
Width: 692
GlyphClass: 1
Flags: MW
HStem: 15 21G<226 230 478 482> 453 20G<352 356>
LayerCount: 2
Fore
SplineSet
598 467 m 2
 601 476 617 472 614 462 c 2
 488 21 l 2
 487 17 484 15 480 15 c 0
 476 15 473 17 472 21 c 2
 354 435 l 1
 236 21 l 2
 235 17 232 15 228 15 c 0
 224 15 221 17 220 21 c 2
 94 462 l 2
 91 472 107 476 110 467 c 2
 228 53 l 1
 346 467 l 2
 347 471 350 473 354 473 c 0
 358 473 361 471 362 467 c 2
 480 53 l 1
 598 467 l 2
EndSplineSet
Validated: 1
EndChar

StartChar: x
Encoding: 120 120 89
Width: 535
GlyphClass: 1
Flags: MW
HStem: 16 21G<448.5 454> 453 20G<98 102.5>
LayerCount: 2
Fore
SplineSet
442 469 m 2
 445 474 460 475 455 460 c 1
 285 244 l 1
 455 28 l 2
 458 25 458 16 450 16 c 0
 447 16 445 16 442 19 c 2
 275 231 l 1
 108 19 l 2
 103 12 89 17 96 28 c 2
 265 244 l 1
 96 460 l 2
 92 464 95 473 101 473 c 0
 104 473 106 472 108 469 c 2
 275 257 l 1
 442 469 l 2
EndSplineSet
Validated: 1
EndChar

StartChar: y
Encoding: 121 121 90
Width: 504
GlyphClass: 1
Flags: MW
HStem: -205 16<36.5 69 39 69 39 70>
LayerCount: 2
Fore
SplineSet
441 468 m 2
 445 478 460 471 456 461 c 2
 267 20 l 1
 204 -106 l 1
 137 -173 l 1
 74 -204 l 2
 73 -205 71 -205 70 -205 c 2
 39 -205 l 2
 34 -205 31 -202 31 -197 c 0
 31 -192 34 -189 39 -189 c 2
 69 -189 l 1
 129 -159 l 1
 190 -98 l 1
 251 24 l 1
 63 461 l 2
 59 471 74 478 78 468 c 2
 260 44 l 1
 441 468 l 2
EndSplineSet
Validated: 1
EndChar

StartChar: z
Encoding: 122 122 91
Width: 534
GlyphClass: 1
Flags: MW
HStem: 16 16<118 448 118 448> 456 16<99.5 448 102 432>
LayerCount: 2
Fore
SplineSet
102 16 m 2
 97 16 94 19 94 24 c 0
 94 25 95 27 96 28 c 2
 432 456 l 1
 102 456 l 2
 97 456 94 459 94 464 c 0
 94 469 97 472 102 472 c 2
 448 472 l 2
 453 472 456 469 456 464 c 0
 456 463 456 461 455 460 c 2
 118 32 l 1
 448 32 l 2
 453 32 456 29 456 24 c 0
 456 19 453 16 448 16 c 2
 102 16 l 2
EndSplineSet
Validated: 1
EndChar

StartChar: braceleft
Encoding: 123 123 92
Width: 440
GlyphClass: 1
Flags: MW
VStem: 157 16<-69 -10 -69 -8 -69 -7.5 624 683> 189 16<-100 -41 -101 -40 -101 -39.5 655 714 714 714> 252 16<151 209 209 209 405 463 463 463> 283 16<120 179 179 179 435 494 494 494>
LayerCount: 2
Fore
SplineSet
288 818 m 2
 297 821 299 815 299 811 c 0
 299 808 298 806 295 804 c 2
 234 774 l 1
 205 715 l 1
 205 655 l 1
 235 595 l 1
 266 565 l 2
 266 564 266 564 267 563 c 2
 299 500 l 1
 299 429 l 1
 267 366 l 2
 266 365 265 364 263 363 c 2
 152 307 l 1
 263 251 l 2
 265 250 266 249 267 248 c 2
 299 185 l 1
 299 114 l 1
 267 51 l 2
 266 50 266 50 266 49 c 2
 235 19 l 1
 205 -41 l 1
 205 -101 l 1
 234 -160 l 1
 295 -190 l 2
 298 -192 299 -194 299 -197 c 0
 299 -201 296 -207 288 -204 c 2
 225 -173 l 1
 190 -139 190 -139 190 -138 c 2
 158 -75 l 2
 157 -74 157 -72 157 -71 c 2
 157 -8 l 2
 157 -7 157 -5 158 -4 c 2
 190 59 l 2
 190 60 190 60 191 61 c 2
 222 91 l 1
 252 151 l 1
 252 209 l 1
 192 269 l 1
 130 300 l 2
 127 301 126 304 126 307 c 0
 126 310 127 313 130 314 c 2
 192 345 l 1
 252 405 l 1
 252 463 l 1
 222 523 l 1
 191 553 l 2
 190 554 190 554 190 555 c 2
 158 618 l 2
 157 619 157 621 157 622 c 2
 157 685 l 2
 157 686 157 688 158 689 c 2
 190 752 l 2
 190 753 190 753 191 754 c 0
 202 765 214 776 225 787 c 1
 288 818 l 2
237 246 m 1
 262 222 l 1
 254 238 l 1
 237 246 l 1
268 210 m 1
 268 150 l 2
 268 149 268 147 267 146 c 2
 236 83 l 1
 203 50 l 1
 173 -10 l 1
 173 -69 l 1
 189 -100 l 1
 189 -40 l 2
 189 -39 189 -37 190 -36 c 2
 221 27 l 1
 232 38 242 49 253 60 c 1
 283 120 l 1
 283 179 l 1
 268 210 l 1
237 368 m 1
 254 376 l 1
 262 392 l 1
 237 368 l 1
268 404 m 1
 283 435 l 1
 283 494 l 1
 253 554 l 1
 242 565 232 576 221 587 c 1
 190 650 l 2
 189 651 189 653 189 654 c 2
 189 714 l 1
 173 683 l 1
 173 624 l 1
 203 564 l 1
 236 531 l 1
 267 468 l 2
 268 467 268 465 268 464 c 2
 268 404 l 1
EndSplineSet
Validated: 1
EndChar

StartChar: bar
Encoding: 124 124 93
Width: 252
GlyphClass: 1
Flags: MW
HStem: -205 21G<131.5 136.5>
VStem: 126 16<-197 811>
LayerCount: 2
Fore
SplineSet
126 811 m 2
 126 816 129 819 134 819 c 0
 139 819 142 816 142 811 c 2
 142 -197 l 2
 142 -202 139 -205 134 -205 c 0
 129 -205 126 -202 126 -197 c 2
 126 811 l 2
EndSplineSet
Validated: 1
EndChar

StartChar: braceright
Encoding: 125 125 94
Width: 440
GlyphClass: 1
Flags: MW
VStem: 157 16<120 179 120 181 120 181.5 435 494> 188 16<151 209 151 210 151 210 405 463> 252 16<-100 -100 -100 -41 -41 -41 655 714> 283 16<-69 -10 -10 -10 624 683 683 683>
LayerCount: 2
Fore
SplineSet
161 804 m 2
 158 806 157 808 157 811 c 0
 157 816 162 820 169 818 c 2
 232 787 l 1
 267 752 l 1
 298 689 l 2
 299 688 299 686 299 685 c 2
 299 622 l 2
 299 621 299 619 298 618 c 2
 267 555 l 1
 235 523 l 1
 204 463 l 1
 204 405 l 1
 264 345 l 1
 326 314 l 2
 329 313 330 310 330 307 c 0
 330 304 329 301 326 300 c 2
 264 269 l 1
 204 209 l 1
 204 151 l 1
 235 91 l 1
 267 59 l 1
 298 -4 l 2
 299 -5 299 -7 299 -8 c 2
 299 -71 l 2
 299 -72 299 -74 298 -75 c 2
 267 -138 l 1
 232 -173 l 1
 169 -204 l 2
 162 -206 157 -202 157 -197 c 0
 157 -194 158 -192 161 -190 c 2
 222 -160 l 1
 252 -101 l 1
 252 -41 l 1
 221 19 l 1
 189 51 l 1
 158 114 l 2
 157 115 157 117 157 118 c 2
 157 181 l 2
 157 182 157 184 158 185 c 2
 189 248 l 2
 190 249 192 250 193 251 c 2
 305 307 l 1
 193 363 l 2
 192 364 190 365 189 366 c 2
 158 429 l 2
 157 430 157 432 157 433 c 2
 157 496 l 2
 157 497 157 499 158 500 c 2
 189 563 l 1
 221 595 l 1
 252 655 l 1
 252 715 l 1
 222 774 l 1
 161 804 l 2
268 -100 m 1
 283 -69 l 1
 283 -10 l 1
 253 50 l 1
 222 81 l 2
 221 82 221 82 221 83 c 2
 189 146 l 2
 188 147 188 149 188 150 c 2
 188 210 l 1
 173 179 l 1
 173 120 l 1
 203 60 l 1
 234 29 l 2
 235 28 235 28 235 27 c 2
 267 -36 l 2
 268 -37 268 -39 268 -40 c 2
 268 -100 l 1
194 222 m 1
 219 246 l 1
 202 238 l 1
 194 222 l 1
268 714 m 1
 268 654 l 2
 268 653 268 651 267 650 c 2
 235 587 l 2
 235 586 235 586 234 585 c 2
 203 554 l 1
 173 494 l 1
 173 435 l 1
 188 404 l 1
 188 464 l 2
 188 465 188 467 189 468 c 2
 221 531 l 2
 221 532 221 532 222 533 c 2
 253 564 l 1
 283 624 l 1
 283 683 l 1
 268 714 l 1
194 392 m 1
 202 376 l 1
 219 368 l 1
 194 392 l 1
EndSplineSet
Validated: 1
EndChar

StartChar: asciitilde
Encoding: 126 126 95
Width: 755
GlyphClass: 1
Flags: MW
HStem: 204 16<511.5 573 513 573 513 574> 236 16<511.5 573 513 573 513 574> 362 16<198 258 198 198> 394 16<198 258 198 198>
VStem: 94 16<212 274> 661 16<340 402 336 404.5>
LayerCount: 2
Fore
SplineSet
110 212 m 2
 110 207 107 204 102 204 c 0
 97 204 94 207 94 212 c 2
 94 278 l 1
 126 373 l 2
 127 375 128 376 130 377 c 2
 193 409 l 2
 194 410 195 410 196 410 c 2
 260 410 l 2
 261 410 262 410 263 409 c 2
 326 377 l 2
 327 377 327 377 327 376 c 2
 453 282 l 1
 513 252 l 1
 573 252 l 1
 632 281 l 1
 661 340 l 1
 661 402 l 2
 661 407 664 410 669 410 c 0
 674 410 677 407 677 402 c 2
 677 336 l 1
 645 241 l 2
 644 239 643 238 641 237 c 2
 578 205 l 2
 577 204 575 204 574 204 c 2
 512 204 l 2
 511 204 509 204 508 205 c 2
 445 237 l 2
 444 237 444 237 444 238 c 2
 318 332 l 1
 258 362 l 1
 198 362 l 1
 139 333 l 1
 110 274 l 1
 110 212 l 2
135 348 m 1
 193 377 l 2
 194 378 195 378 196 378 c 2
 260 378 l 2
 261 378 262 378 263 377 c 2
 326 346 l 1
 368 314 411 283 453 251 c 1
 513 220 l 1
 573 220 l 1
 631 250 l 1
 636 266 l 1
 578 237 l 2
 577 236 575 236 574 236 c 2
 512 236 l 2
 511 236 509 236 508 237 c 2
 445 268 l 1
 403 300 360 331 318 363 c 1
 258 394 l 1
 198 394 l 1
 140 364 l 1
 135 348 l 1
EndSplineSet
Validated: 1
EndChar

StartChar: uni007F
Encoding: 127 127 96
Width: 440
GlyphClass: 1
Flags: MW
HStem: 425 16<195.5 258 198 258 198 260> 677 16<198 198 198 258>
VStem: 94 16<529 589 529 590 529 590.5> 346 16<529 589 589 589>
LayerCount: 2
Fore
SplineSet
198 677 m 1
 139 648 l 1
 110 589 l 1
 110 529 l 1
 139 470 l 1
 198 441 l 1
 258 441 l 1
 317 470 l 1
 346 529 l 1
 346 589 l 1
 317 648 l 1
 258 677 l 1
 198 677 l 1
193 692 m 2
 194 693 195 693 196 693 c 2
 260 693 l 2
 261 693 262 693 263 692 c 2
 326 661 l 1
 330 657 l 1
 361 594 l 2
 362 593 362 591 362 590 c 2
 362 528 l 2
 362 527 362 525 361 524 c 2
 330 461 l 1
 326 457 l 1
 263 426 l 2
 262 425 261 425 260 425 c 2
 196 425 l 2
 195 425 194 425 193 426 c 2
 130 457 l 1
 126 461 l 1
 95 524 l 2
 94 525 94 527 94 528 c 2
 94 590 l 2
 94 591 94 593 95 594 c 2
 126 657 l 1
 130 661 l 1
 193 692 l 2
EndSplineSet
Validated: 1
EndChar

StartChar: section
Encoding: 167 167 97
Width: 503
GlyphClass: 2
Flags: MW
HStem: -205 16<227.5 289 230 289 230 291> 677 16<230 289 230 230>
VStem: 94 16<246 305 246 307 246 307.5> 126 16<-101 -74 -101 -71 -101 -70 529 589> 378 16<-101 -41 -41 -41 562 589 589 589> 409 16<183 242 242 242>
LayerCount: 2
Fore
SplineSet
348 596 m 2
 356 604 368 593 360 585 c 2
 334 559 l 1
 354 539 l 1
 378 562 l 1
 378 589 l 1
 348 648 l 1
 289 677 l 1
 230 677 l 1
 171 648 l 1
 142 589 l 1
 142 529 l 1
 171 470 l 1
 327 377 l 2
 327 376 327 376 328 376 c 2
 393 311 l 1
 424 248 l 2
 425 247 425 245 425 244 c 2
 425 181 l 2
 425 180 425 178 424 177 c 2
 393 114 l 1
 334 55 l 1
 360 29 l 2
 361 28 361 28 361 27 c 2
 393 -36 l 2
 394 -37 394 -39 394 -40 c 2
 394 -102 l 2
 394 -103 394 -105 393 -106 c 2
 361 -169 l 2
 360 -170 359 -172 358 -173 c 2
 295 -204 l 2
 294 -205 292 -205 291 -205 c 2
 228 -205 l 2
 227 -205 225 -205 224 -204 c 2
 161 -173 l 2
 160 -172 159 -170 158 -169 c 2
 126 -106 l 1
 126 -71 l 2
 126 -69 127 -67 128 -65 c 2
 159 -34 l 2
 163 -30 167 -30 171 -34 c 2
 202 -65 l 2
 206 -69 206 -73 202 -77 c 2
 171 -108 l 2
 162 -117 153 -103 159 -97 c 2
 185 -71 l 1
 165 -51 l 1
 142 -74 l 1
 142 -101 l 1
 171 -160 l 1
 230 -189 l 1
 289 -189 l 1
 348 -160 l 1
 378 -101 l 1
 378 -41 l 1
 348 18 l 1
 192 111 l 2
 192 112 192 112 191 112 c 2
 126 177 l 1
 95 240 l 2
 94 241 94 243 94 244 c 2
 94 307 l 2
 94 308 94 310 95 311 c 2
 126 374 l 1
 185 433 l 1
 159 459 l 2
 158 460 158 460 158 461 c 2
 126 524 l 1
 126 594 l 1
 158 657 l 2
 159 658 160 660 161 661 c 2
 224 692 l 2
 225 693 227 693 228 693 c 2
 291 693 l 2
 292 693 294 693 295 692 c 2
 358 661 l 2
 359 660 360 658 361 657 c 2
 393 594 l 2
 394 593 394 591 394 590 c 2
 394 559 l 2
 394 557 393 555 391 553 c 2
 360 522 l 2
 356 518 352 518 348 522 c 2
 317 553 l 2
 313 557 313 561 317 565 c 2
 348 596 l 2
302 64 m 1
 286 80 l 1
 185 141 l 1
 201 124 l 1
 302 64 l 1
140 187 m 1
 295 93 l 2
 296 93 296 93 297 92 c 2
 322 66 l 1
 379 123 l 1
 409 183 l 1
 409 242 l 1
 379 301 l 1
 224 395 l 2
 223 395 223 395 222 396 c 2
 196 422 l 1
 140 365 l 1
 110 305 l 1
 110 246 l 1
 140 187 l 1
334 347 m 1
 318 364 l 1
 217 424 l 1
 233 408 l 1
 334 347 l 1
EndSplineSet
Validated: 1
EndChar

StartChar: degree
Encoding: 176 176 98
Width: 126
GlyphClass: 2
Flags: MW
HStem: 236 16<38.5 99 43 99 43 102> 362 16<43 43 43 99>
VStem: 0 16<279 335 279 338 279 339.5> 126 16<279 335 335 335>
LayerCount: 2
Fore
SplineSet
43 362 m 1
 16 335 l 1
 16 279 l 1
 43 252 l 1
 99 252 l 1
 126 279 l 1
 126 335 l 1
 99 362 l 1
 43 362 l 1
34 376 m 2
 35 377 37 378 40 378 c 2
 102 378 l 2
 105 378 107 377 108 376 c 2
 140 344 l 2
 141 343 142 341 142 338 c 2
 142 276 l 2
 142 273 141 271 140 270 c 2
 108 238 l 2
 107 237 105 236 102 236 c 2
 40 236 l 2
 37 236 35 237 34 238 c 2
 2 270 l 2
 1 271 0 273 0 276 c 2
 0 338 l 2
 0 341 1 343 2 344 c 2
 34 376 l 2
EndSplineSet
Validated: 1
EndChar

StartChar: plusminus
Encoding: 177 177 99
Width: 756
GlyphClass: 2
Flags: MW
HStem: 16 16<131.5 378 134 378 394 638> 299 16<131.5 378 134 378 394 638>
VStem: 378 16<32 299 32 299 315 559>
LayerCount: 2
Fore
SplineSet
134 16 m 2
 129 16 126 19 126 24 c 0
 126 29 129 32 134 32 c 2
 378 32 l 1
 378 299 l 1
 134 299 l 2
 129 299 126 302 126 307 c 0
 126 312 129 315 134 315 c 2
 378 315 l 1
 378 559 l 2
 378 564 381 567 386 567 c 0
 391 567 394 564 394 559 c 2
 394 315 l 1
 638 315 l 2
 643 315 646 312 646 307 c 0
 646 302 643 299 638 299 c 2
 394 299 l 1
 394 32 l 1
 638 32 l 2
 643 32 646 29 646 24 c 0
 646 19 643 16 638 16 c 2
 134 16 l 2
EndSplineSet
Validated: 1
EndChar

StartChar: multiply
Encoding: 215 215 100
Width: 503
GlyphClass: 2
Flags: MW
HStem: 144 326<108 108 108 411>
VStem: 96 327<155 155 155 459>
LayerCount: 2
Fore
SplineSet
411 470 m 2
 417 476 431 470 423 459 c 2
 271 307 l 1
 423 155 l 2
 429 149 422 137 411 144 c 2
 260 296 l 1
 108 144 l 2
 100 136 89 145 96 155 c 2
 248 307 l 1
 96 459 l 2
 90 465 97 477 108 470 c 2
 260 318 l 1
 411 470 l 2
EndSplineSet
Validated: 1
EndChar

StartChar: divide
Encoding: 247 247 101
Width: 566
GlyphClass: 2
Flags: MW
HStem: 299 16<99.5 480 102 480>
LayerCount: 2
Fore
SplineSet
311 150 m 1
 291 170 l 1
 271 150 l 1
 291 129 l 1
 311 150 l 1
297 187 m 2
 328 155 l 2
 332 151 332 147 328 144 c 2
 297 112 l 2
 293 109 289 109 285 112 c 2
 254 144 l 2
 250 148 250 152 254 155 c 2
 285 187 l 2
 287 188 289 189 291 189 c 0
 293 189 295 188 297 187 c 2
102 299 m 2
 97 299 94 302 94 307 c 0
 94 312 97 315 102 315 c 2
 480 315 l 2
 485 315 488 312 488 307 c 0
 488 302 485 299 480 299 c 2
 102 299 l 2
291 485 m 1
 271 464 l 1
 291 444 l 1
 311 464 l 1
 291 485 l 1
297 502 m 2
 328 470 l 2
 332 466 332 462 328 459 c 2
 297 427 l 2
 293 424 289 424 285 427 c 2
 254 459 l 2
 250 463 250 467 254 470 c 2
 285 502 l 2
 287 503 289 504 291 504 c 0
 293 504 295 503 297 502 c 2
EndSplineSet
Validated: 1
EndChar

StartChar: caron
Encoding: 711 711 102
Width: 315
GlyphClass: 2
Flags: MW
HStem: 224 235<15 167.5>
VStem: 3 327<447 447>
LayerCount: 2
Fore
SplineSet
174 229 m 2
 172 226 169 224 166 224 c 0
 163 224 161 226 159 229 c 2
 128 291 l 1
 66 385 l 1
 3 447 l 2
 -3 455 7 464 15 459 c 2
 78 396 l 2
 78 395 78 395 79 394 c 2
 142 300 l 1
 142 299 l 1
 166 250 l 1
 191 299 l 1
 191 300 l 1
 254 394 l 2
 255 395 255 395 255 396 c 2
 318 459 l 2
 324 463 338 458 330 447 c 2
 267 385 l 1
 205 291 l 1
 174 229 l 2
EndSplineSet
Validated: 1
EndChar

StartChar: Alpha
Encoding: 913 913 103
Width: 566
GlyphClass: 2
Flags: MW
HStem: 16 21G<37.5 41.5 540.5 548> 236 16<133 447 135 447 135 449> 673 20G<290 294>
LayerCount: 2
Fore
SplineSet
284 688 m 2
 285 691 288 693 292 693 c 0
 296 693 298 691 299 688 c 2
 551 26 l 1
 551 26 554 16 542 16 c 0
 539 16 537 18 536 21 c 2
 453 237 l 1
 452 236 450 236 449 236 c 2
 134 236 l 2
 132 236 130 236 129 237 c 1
 47 21 l 2
 46 18 43 16 40 16 c 0
 35 16 29 18 32 26 c 2
 284 688 l 2
447 252 m 1
 291 663 l 1
 135 252 l 1
 447 252 l 1
EndSplineSet
Validated: 1
EndChar

StartChar: Beta
Encoding: 914 914 104
Width: 661
GlyphClass: 2
Flags: MW
HStem: 16 16<131.5 416 142 416 142 420> 362 16<142 416 142 416> 677 16<142 416 142 142>
VStem: 126 16<32 32 32 362 378 677> 567 16<151 242 242 242 498 557 557 557>
LayerCount: 2
Fore
SplineSet
416 378 m 1
 508 408 l 1
 537 438 l 1
 567 498 l 1
 567 557 l 1
 537 617 l 1
 508 647 l 1
 416 677 l 1
 142 677 l 1
 142 378 l 1
 416 378 l 1
443 370 m 1
 515 346 l 2
 516 345 517 345 518 344 c 2
 551 311 l 1
 582 248 l 2
 583 247 583 245 583 244 c 2
 583 150 l 2
 583 149 583 147 582 146 c 2
 551 83 l 1
 515 47 l 1
 420 16 l 1
 134 16 l 2
 129 16 126 19 126 24 c 2
 126 685 l 2
 126 690 129 693 134 693 c 2
 420 693 l 1
 515 661 l 2
 516 660 517 660 518 659 c 2
 551 626 l 1
 582 563 l 2
 583 562 583 560 583 559 c 2
 583 496 l 2
 583 495 583 493 582 492 c 2
 551 429 l 1
 518 396 l 2
 517 395 516 395 515 394 c 2
 443 370 l 1
142 32 m 1
 416 32 l 1
 508 62 l 1
 537 91 l 1
 567 151 l 1
 567 242 l 1
 537 302 l 1
 508 332 l 1
 416 362 l 1
 142 362 l 1
 142 32 l 1
EndSplineSet
Validated: 1
EndChar

StartChar: Gamma
Encoding: 915 915 105
Width: 535
GlyphClass: 2
Flags: MW
HStem: 16 21G<131.5 136.5> 677 16<142 512 142 142>
VStem: 126 16<24 677>
LayerCount: 2
Fore
SplineSet
134 693 m 2
 512 693 l 2
 517 693 520 690 520 685 c 0
 520 680 517 677 512 677 c 2
 142 677 l 1
 142 24 l 2
 142 19 139 16 134 16 c 0
 129 16 126 19 126 24 c 2
 126 685 l 2
 126 690 129 693 134 693 c 2
EndSplineSet
Validated: 1
EndChar

StartChar: uni0394
Encoding: 916 916 106
Width: 566
GlyphClass: 2
Flags: MW
HStem: 16 16<36.5 531 51 531 51 543> 673 20G<289 293>
LayerCount: 2
Fore
SplineSet
39 16 m 2
 34 16 31 19 31 24 c 0
 31 25 31 25 32 26 c 2
 284 688 l 2
 285 691 287 693 291 693 c 0
 295 693 297 691 298 688 c 2
 550 26 l 2
 551 25 551 25 551 24 c 0
 551 19 548 16 543 16 c 2
 39 16 l 2
531 32 m 1
 291 663 l 1
 51 32 l 1
 531 32 l 1
EndSplineSet
Validated: 1
EndChar

StartChar: Epsilon
Encoding: 917 917 107
Width: 598
GlyphClass: 2
Flags: MW
HStem: 16 16<131.5 544 142 544 142 544> 362 16<142 386 142 386> 677 16<142 544 142 142>
VStem: 126 16<32 362 378 677>
LayerCount: 2
Fore
SplineSet
134 693 m 2
 544 693 l 2
 549 693 552 690 552 685 c 0
 552 680 549 677 544 677 c 2
 142 677 l 1
 142 378 l 1
 386 378 l 2
 391 378 394 375 394 370 c 0
 394 365 391 362 386 362 c 2
 142 362 l 1
 142 32 l 1
 544 32 l 2
 549 32 552 29 552 24 c 0
 552 19 549 16 544 16 c 2
 134 16 l 2
 129 16 126 19 126 24 c 2
 126 685 l 2
 126 690 129 693 134 693 c 2
EndSplineSet
Validated: 1
EndChar

StartChar: Zeta
Encoding: 918 918 108
Width: 629
GlyphClass: 2
Flags: MW
HStem: 16 16<99.5 543 117 543 117 543> 677 16<99.5 543 102 528>
LayerCount: 2
Fore
SplineSet
102 16 m 2
 97 16 94 19 94 24 c 0
 94 25 94 27 95 28 c 2
 528 677 l 1
 102 677 l 2
 97 677 94 680 94 685 c 0
 94 690 97 693 102 693 c 2
 543 693 l 2
 548 693 551 690 551 685 c 0
 551 684 551 682 550 681 c 2
 117 32 l 1
 543 32 l 2
 548 32 551 29 551 24 c 0
 551 19 548 16 543 16 c 2
 102 16 l 2
EndSplineSet
Validated: 1
EndChar

StartChar: Eta
Encoding: 919 919 109
Width: 693
GlyphClass: 2
Flags: MW
HStem: 16 21G<131.5 136.5 572.5 577.5> 362 16<142 567 142 567> 673 20G<131.5 136.5 572.5 577.5>
VStem: 126 16<24 362 378 685> 567 16<24 362 362 362 378 685>
LayerCount: 2
Fore
SplineSet
567 685 m 2
 567 690 570 693 575 693 c 0
 580 693 583 690 583 685 c 2
 583 24 l 2
 583 19 580 16 575 16 c 0
 570 16 567 19 567 24 c 2
 567 362 l 1
 142 362 l 1
 142 24 l 2
 142 19 139 16 134 16 c 0
 129 16 126 19 126 24 c 2
 126 685 l 2
 126 690 129 693 134 693 c 0
 139 693 142 690 142 685 c 2
 142 378 l 1
 567 378 l 1
 567 685 l 2
EndSplineSet
Validated: 1
EndChar

StartChar: Theta
Encoding: 920 920 110
Width: 692
GlyphClass: 2
Flags: MW
HStem: 16 16<293 415 293 421 287 415> 362 16<257.5 448 260 448> 677 16<293 293 293 415>
VStem: 94 16<277 432 277 436 277 436> 598 16<277 432 432 432>
LayerCount: 2
Fore
SplineSet
260 362 m 2
 255 362 252 365 252 370 c 0
 252 375 255 378 260 378 c 2
 448 378 l 2
 453 378 456 375 456 370 c 0
 456 365 453 362 448 362 c 2
 260 362 l 2
293 677 m 1
 233 647 l 1
 172 586 l 1
 141 524 l 1
 110 432 l 1
 110 277 l 1
 141 184 l 1
 172 123 l 1
 233 62 l 1
 293 32 l 1
 415 32 l 1
 475 62 l 1
 536 123 l 1
 567 184 l 1
 598 277 l 1
 598 432 l 1
 567 524 l 1
 536 586 l 1
 475 647 l 1
 415 677 l 1
 293 677 l 1
287 692 m 2
 288 693 290 693 291 693 c 2
 417 693 l 2
 418 693 420 693 421 692 c 2
 484 661 l 1
 549 596 l 2
 550 595 550 595 550 594 c 2
 582 531 l 1
 582 530 l 1
 614 436 l 1
 614 273 l 1
 582 178 l 1
 582 177 l 1
 550 114 l 2
 550 113 550 113 549 112 c 2
 486 49 l 2
 485 48 485 48 484 48 c 2
 421 16 l 1
 287 16 l 1
 224 48 l 2
 223 48 223 48 222 49 c 2
 159 112 l 2
 158 113 158 113 158 114 c 2
 126 177 l 1
 126 178 l 1
 94 273 l 1
 94 436 l 1
 126 530 l 1
 126 531 l 1
 158 594 l 2
 158 595 158 595 159 596 c 2
 224 661 l 1
 287 692 l 2
EndSplineSet
Validated: 1
EndChar

StartChar: Iota
Encoding: 921 921 111
Width: 252
GlyphClass: 2
Flags: MW
HStem: 16 21G<131.5 136.5> 673 20G<131.5 136.5>
VStem: 126 16<24 685>
LayerCount: 2
Fore
SplineSet
126 685 m 2
 126 690 129 693 134 693 c 0
 139 693 142 690 142 685 c 2
 142 24 l 2
 142 19 139 16 134 16 c 0
 129 16 126 19 126 24 c 2
 126 685 l 2
EndSplineSet
Validated: 1
EndChar

StartChar: Kappa
Encoding: 922 922 112
Width: 661
GlyphClass: 2
Flags: MW
HStem: 16 21G<131.5 136.5 574.5 579.5> 673 20G<131.5 136.5>
VStem: 126 16<24 241 263 685>
LayerCount: 2
Fore
SplineSet
569 691 m 2
 577 697 587 687 581 679 c 2
 302 401 l 1
 581 28 l 2
 584 23 583 16 576 16 c 0
 573 16 571 16 569 19 c 2
 291 389 l 1
 142 241 l 1
 142 24 l 2
 142 19 139 16 134 16 c 0
 129 16 126 19 126 24 c 2
 126 685 l 2
 126 690 129 693 134 693 c 0
 139 693 142 690 142 685 c 2
 142 263 l 1
 569 691 l 2
EndSplineSet
Validated: 1
EndChar

StartChar: Lambda
Encoding: 923 923 113
Width: 566
GlyphClass: 2
Flags: MW
HStem: 16 21G<37.5 41.5 540.5 548> 673 20G<290 294>
LayerCount: 2
Fore
SplineSet
284 688 m 2
 285 691 288 693 292 693 c 0
 296 693 298 691 299 688 c 2
 551 26 l 1
 551 26 554 16 542 16 c 0
 539 16 537 18 536 21 c 2
 291 663 l 1
 47 21 l 2
 46 18 43 16 40 16 c 0
 35 16 29 18 32 26 c 2
 284 688 l 2
EndSplineSet
Validated: 1
EndChar

StartChar: Mu
Encoding: 924 924 114
Width: 756
GlyphClass: 2
Flags: MW
HStem: 16 21G<131.5 136.5 635.5 640.5> 673 20G<131.5 136 636 640.5>
VStem: 126 16<24 642> 630 16<24 642 642 642>
LayerCount: 2
Fore
SplineSet
638 693 m 0
 643 693 646 690 646 685 c 2
 646 24 l 2
 646 19 643 16 638 16 c 0
 633 16 630 19 630 24 c 2
 630 642 l 1
 393 21 l 2
 392 17 390 15 386 15 c 0
 382 15 380 17 379 21 c 2
 142 642 l 1
 142 24 l 2
 142 19 139 16 134 16 c 0
 129 16 126 19 126 24 c 2
 126 685 l 2
 126 690 129 693 134 693 c 0
 138 693 140 691 141 688 c 2
 386 46 l 1
 631 688 l 2
 632 691 634 693 638 693 c 0
EndSplineSet
Validated: 1
EndChar

StartChar: Nu
Encoding: 925 925 115
Width: 693
GlyphClass: 2
Flags: MW
HStem: 16 21G<131.5 136.5 573.5 577.5> 673 20G<131.5 135.5 572.5 577.5>
VStem: 126 16<24 659> 567 16<50 685>
LayerCount: 2
Fore
SplineSet
126 685 m 2
 126 690 129 693 134 693 c 0
 137 693 139 692 141 689 c 2
 567 50 l 1
 567 685 l 2
 567 690 570 693 575 693 c 0
 580 693 583 690 583 685 c 2
 583 24 l 2
 583 19 580 16 575 16 c 0
 572 16 570 17 568 19 c 2
 142 659 l 1
 142 24 l 2
 142 19 139 16 134 16 c 0
 129 16 126 19 126 24 c 2
 126 685 l 2
EndSplineSet
Validated: 1
EndChar

StartChar: Xi
Encoding: 926 926 116
Width: 567
GlyphClass: 2
Flags: MW
HStem: 16 16<68.5 512 71 512> 362 16<194.5 386 197 386> 677 16<68.5 512 71 512>
LayerCount: 2
Fore
SplineSet
71 16 m 2
 66 16 63 19 63 24 c 0
 63 29 66 32 71 32 c 2
 512 32 l 2
 517 32 520 29 520 24 c 0
 520 19 517 16 512 16 c 2
 71 16 l 2
197 362 m 2
 192 362 189 365 189 370 c 0
 189 375 192 378 197 378 c 2
 386 378 l 2
 391 378 394 375 394 370 c 0
 394 365 391 362 386 362 c 2
 197 362 l 2
71 677 m 2
 66 677 63 680 63 685 c 0
 63 690 66 693 71 693 c 2
 512 693 l 2
 517 693 520 690 520 685 c 0
 520 680 517 677 512 677 c 2
 71 677 l 2
EndSplineSet
Validated: 1
EndChar

StartChar: Omicron
Encoding: 927 927 117
Width: 692
GlyphClass: 2
Flags: MW
HStem: 16 16<293 415 293 421 287 415> 677 16<293 293 293 415>
VStem: 94 16<277 432 277 436 277 436> 598 16<277 432 432 432>
LayerCount: 2
Fore
SplineSet
293 677 m 1
 233 647 l 1
 172 586 l 1
 141 524 l 1
 110 432 l 1
 110 277 l 1
 141 184 l 1
 172 123 l 1
 233 62 l 1
 293 32 l 1
 415 32 l 1
 475 62 l 1
 536 123 l 1
 567 184 l 1
 598 277 l 1
 598 432 l 1
 567 524 l 1
 536 586 l 1
 475 647 l 1
 415 677 l 1
 293 677 l 1
287 692 m 2
 288 693 290 693 291 693 c 2
 417 693 l 2
 418 693 420 693 421 692 c 2
 484 661 l 1
 549 596 l 2
 550 595 550 595 550 594 c 2
 582 531 l 1
 582 530 l 1
 614 436 l 1
 614 273 l 1
 582 178 l 1
 582 177 l 1
 550 114 l 2
 550 113 550 113 549 112 c 2
 486 49 l 2
 485 48 485 48 484 48 c 2
 421 16 l 1
 287 16 l 1
 224 48 l 2
 223 48 223 48 222 49 c 2
 159 112 l 2
 158 113 158 113 158 114 c 2
 126 177 l 1
 126 178 l 1
 94 273 l 1
 94 436 l 1
 126 530 l 1
 126 531 l 1
 158 594 l 2
 158 595 158 595 159 596 c 2
 224 661 l 1
 287 692 l 2
EndSplineSet
Validated: 1
EndChar

StartChar: Pi
Encoding: 928 928 118
Width: 693
GlyphClass: 2
Flags: MW
HStem: 16 21G<131.5 136.5 572.5 577.5> 677 16<142 567 142 142>
VStem: 126 16<24 677> 567 16<24 677 677 677>
LayerCount: 2
Fore
SplineSet
567 677 m 1
 142 677 l 1
 142 24 l 2
 142 19 139 16 134 16 c 0
 129 16 126 19 126 24 c 2
 126 685 l 2
 126 690 129 693 134 693 c 2
 575 693 l 2
 580 693 583 690 583 685 c 2
 583 24 l 2
 583 19 580 16 575 16 c 0
 570 16 567 19 567 24 c 2
 567 677 l 1
EndSplineSet
Validated: 1
EndChar

StartChar: Rho
Encoding: 929 929 119
Width: 661
GlyphClass: 2
Flags: MW
HStem: 16 21G<131.5 136.5> 330 16<142 416 142 418 142 416> 677 16<142 416 142 142>
VStem: 126 16<24 330 346 677> 567 16<466 557 557 557>
LayerCount: 2
Fore
SplineSet
134 693 m 2
 420 693 l 1
 515 661 l 2
 516 660 517 660 518 659 c 2
 551 626 l 1
 582 563 l 2
 583 562 583 560 583 559 c 2
 583 464 l 2
 583 463 583 462 582 461 c 2
 551 398 l 1
 515 362 l 1
 420 331 l 2
 419 330 419 330 418 330 c 2
 142 330 l 1
 142 24 l 2
 142 19 139 16 134 16 c 0
 129 16 126 19 126 24 c 2
 126 685 l 2
 126 690 129 693 134 693 c 2
142 346 m 1
 416 346 l 1
 508 377 l 1
 537 406 l 1
 567 466 l 1
 567 557 l 1
 537 617 l 1
 508 647 l 1
 416 677 l 1
 142 677 l 1
 142 346 l 1
EndSplineSet
Validated: 1
EndChar

StartChar: Sigma
Encoding: 931 931 120
Width: 567
GlyphClass: 2
Flags: MW
HStem: 16 16<68.5 512 86 512 86 512> 677 16<86 512 86 86>
LayerCount: 2
Fore
SplineSet
63 685 m 0
 63 690 66 693 71 693 c 2
 512 693 l 2
 517 693 520 690 520 685 c 0
 520 680 517 677 512 677 c 2
 86 677 l 1
 298 375 l 2
 300 372 300 369 298 366 c 2
 86 32 l 1
 512 32 l 2
 517 32 520 29 520 24 c 0
 520 19 517 16 512 16 c 2
 71 16 l 2
 66 16 63 19 63 24 c 0
 63 25 63 27 64 28 c 2
 282 370 l 1
 64 680 l 2
 63 681 63 683 63 685 c 0
EndSplineSet
Validated: 1
EndChar

StartChar: Tau
Encoding: 932 932 121
Width: 503
GlyphClass: 2
Flags: MW
HStem: 16 21G<257.5 262.5> 677 16<36.5 480 39 252 268 268 268 480>
VStem: 252 16<24 677>
LayerCount: 2
Fore
SplineSet
39 677 m 2
 34 677 31 680 31 685 c 0
 31 690 34 693 39 693 c 2
 480 693 l 2
 485 693 488 690 488 685 c 0
 488 680 485 677 480 677 c 2
 268 677 l 1
 268 24 l 2
 268 19 265 16 260 16 c 0
 255 16 252 19 252 24 c 2
 252 677 l 1
 39 677 l 2
EndSplineSet
Validated: 1
EndChar

StartChar: Upsilon
Encoding: 933 933 122
Width: 567
GlyphClass: 2
Flags: MW
HStem: 16 21G<289.5 294.5> 677 16<137 194 137 137 389 446 389 389>
VStem: 63 16<528 589> 284 16<24 464> 504 16<528 589 589 589>
LayerCount: 2
Fore
SplineSet
520 528 m 2
 520 523 517 520 512 520 c 0
 507 520 504 523 504 528 c 2
 504 589 l 1
 474 649 l 1
 446 677 l 1
 389 677 l 1
 361 649 l 1
 331 588 l 1
 300 464 l 1
 300 24 l 2
 300 19 297 16 292 16 c 0
 287 16 284 19 284 24 c 2
 284 464 l 1
 252 588 l 1
 222 649 l 1
 194 677 l 1
 137 677 l 1
 109 649 l 1
 79 589 l 1
 79 528 l 2
 79 523 76 520 71 520 c 0
 66 520 63 523 63 528 c 2
 63 590 l 2
 63 591 63 593 64 594 c 2
 95 657 l 1
 106 668 117 680 128 691 c 0
 130 692 132 693 134 693 c 2
 197 693 l 2
 199 693 201 692 203 691 c 0
 234 659 234 659 236 657 c 2
 267 594 l 2
 268 593 268 593 268 592 c 2
 292 497 l 1
 315 592 l 2
 315 593 315 593 316 594 c 2
 347 657 l 1
 358 668 369 680 380 691 c 0
 382 692 384 693 386 693 c 2
 449 693 l 2
 451 693 453 692 455 691 c 0
 486 659 486 659 488 657 c 2
 519 594 l 2
 520 593 520 591 520 590 c 2
 520 528 l 2
EndSplineSet
Validated: 1
EndChar

StartChar: Phi
Encoding: 934 934 123
Width: 629
GlyphClass: 2
Flags: MW
HStem: 16 21G<319.5 324.5> 173 16<261 314 261 314 257 314 330 384> 520 16<261 261 261 314 330 384> 673 20G<319.5 324.5>
VStem: 94 16<309 400 309 402 309 402.5> 314 16<24 173 189 520 536 685> 535 16<309 400 400 400>
LayerCount: 2
Fore
SplineSet
257 535 m 2
 258 536 259 536 260 536 c 2
 314 536 l 1
 314 685 l 2
 314 690 317 693 322 693 c 0
 327 693 330 690 330 685 c 2
 330 536 l 1
 386 536 l 2
 387 536 387 536 388 535 c 2
 483 504 l 2
 484 503 485 503 486 502 c 0
 517 470 517 470 519 468 c 2
 550 405 l 2
 551 404 551 403 551 402 c 2
 551 307 l 2
 551 306 551 304 550 303 c 2
 519 240 l 1
 486 207 l 2
 485 206 484 206 483 205 c 2
 388 173 l 1
 330 173 l 1
 330 24 l 2
 330 19 327 16 322 16 c 0
 317 16 314 19 314 24 c 2
 314 173 l 1
 257 173 l 1
 162 205 l 2
 161 206 160 206 159 207 c 2
 126 240 l 1
 95 303 l 2
 94 304 94 306 94 307 c 2
 94 402 l 2
 94 403 94 404 95 405 c 2
 126 468 l 1
 162 504 l 1
 257 535 l 2
261 520 m 1
 169 489 l 1
 140 460 l 1
 110 400 l 1
 110 309 l 1
 140 249 l 1
 169 219 l 1
 261 189 l 1
 314 189 l 1
 314 520 l 1
 261 520 l 1
330 189 m 1
 384 189 l 1
 476 219 l 1
 505 249 l 1
 535 309 l 1
 535 400 l 1
 505 460 l 1
 476 489 l 1
 384 520 l 1
 330 520 l 1
 330 189 l 1
EndSplineSet
Validated: 1
EndChar

StartChar: Chi
Encoding: 935 935 124
Width: 629
GlyphClass: 2
Flags: MW
HStem: 16 21G<98 103.5 542.5 547.5> 673 20G<98 103.5>
LayerCount: 2
Fore
SplineSet
109 19 m 2
 107 16 105 16 102 16 c 0
 94 16 94 24 95 28 c 2
 313 354 l 1
 95 681 l 2
 94 685 94 693 102 693 c 0
 105 693 107 692 109 689 c 2
 323 369 l 1
 536 689 l 2
 538 692 541 692 544 692 c 0
 547 692 553 689 550 681 c 2
 332 354 l 1
 550 28 l 2
 551 24 551 16 544 16 c 0
 541 16 539 16 536 19 c 2
 323 340 l 1
 109 19 l 2
EndSplineSet
Validated: 1
EndChar

StartChar: Psi
Encoding: 936 936 125
Width: 693
GlyphClass: 2
Flags: MW
HStem: 16 21G<351.5 356.5> 204 16<322.5 346 324 346 324 346 362 385> 488 16<68.5 102 71 99 610 610 610 638> 673 20G<351.5 356.5>
VStem: 346 16<24 204 220 685>
LayerCount: 2
Fore
SplineSet
71 488 m 2
 66 488 63 491 63 496 c 0
 63 501 66 504 71 504 c 2
 102 504 l 2
 105 504 107 503 108 502 c 2
 140 470 l 2
 141 469 141 468 142 466 c 2
 173 341 l 1
 204 280 l 1
 233 251 l 1
 324 220 l 1
 346 220 l 1
 346 685 l 2
 346 690 349 693 354 693 c 0
 359 693 362 690 362 685 c 2
 362 220 l 1
 385 220 l 1
 476 251 l 1
 505 280 l 1
 536 341 l 1
 567 466 l 2
 568 468 568 469 569 470 c 2
 601 502 l 2
 602 503 604 504 606 504 c 2
 638 504 l 2
 643 504 646 501 646 496 c 0
 646 491 643 488 638 488 c 2
 610 488 l 1
 582 460 l 1
 551 337 l 1
 551 335 l 1
 519 272 l 2
 519 271 519 271 518 270 c 2
 486 238 l 2
 485 237 484 237 483 236 c 2
 389 205 l 2
 388 204 387 204 386 204 c 2
 362 204 l 1
 362 24 l 2
 362 19 359 16 354 16 c 0
 349 16 346 19 346 24 c 2
 346 204 l 1
 323 204 l 2
 322 204 321 204 320 205 c 2
 226 236 l 2
 225 237 224 237 223 238 c 2
 191 270 l 2
 190 271 190 271 190 272 c 2
 158 335 l 1
 158 337 l 1
 127 460 l 1
 99 488 l 1
 71 488 l 2
EndSplineSet
Validated: 1
EndChar

StartChar: uni03A9
Encoding: 937 937 126
Width: 629
GlyphClass: 2
Flags: MW
HStem: 16 16<99.5 216 102 216 102 228 429 543> 677 16<292 353 292 292>
VStem: 94 16<371 495 371 499 371 499> 535 16<371 495 495 495>
LayerCount: 2
Fore
SplineSet
102 16 m 2
 97 16 94 19 94 24 c 0
 94 29 97 32 102 32 c 2
 216 32 l 1
 126 241 l 1
 126 242 l 1
 94 368 l 1
 94 499 l 1
 126 593 l 2
 127 594 127 595 128 596 c 2
 191 659 l 2
 192 660 193 660 194 661 c 2
 288 693 l 1
 357 693 l 1
 451 661 l 2
 452 660 453 660 454 659 c 2
 517 596 l 2
 518 595 518 594 519 593 c 2
 551 499 l 1
 551 368 l 1
 519 242 l 1
 519 241 l 1
 429 32 l 1
 543 32 l 2
 548 32 551 29 551 24 c 0
 551 19 548 16 543 16 c 2
 417 16 l 1
 417 16 406 16 410 27 c 2
 504 247 l 1
 535 371 l 1
 535 495 l 1
 505 586 l 1
 444 647 l 1
 353 677 l 1
 292 677 l 1
 201 647 l 1
 140 586 l 1
 110 495 l 1
 110 371 l 1
 141 247 l 1
 235 27 l 2
 238 19 229 16 228 16 c 2
 102 16 l 2
EndSplineSet
Validated: 1
EndChar

StartChar: alpha
Encoding: 945 945 127
Width: 661
GlyphClass: 2
Flags: MW
HStem: 16 16<198 258 198 263 193 258 546 574> 456 16<293 351 293 293>
VStem: 94 16<120 211 120 215 120 215>
LayerCount: 2
Fore
SplineSet
287 472 m 1
 354 472 l 2
 356 472 358 471 360 470 c 2
 393 437 l 1
 424 374 l 2
 425 373 425 373 425 372 c 2
 460 229 l 1
 484 267 535 372 536 373 c 2
 567 467 l 2
 568 470 569 472 572 472 c 0
 585 472 582 463 582 462 c 2
 551 367 l 2
 550 367 550 367 550 366 c 2
 487 240 l 1
 466 208 l 1
 488 121 l 1
 518 60 l 1
 546 32 l 1
 574 32 l 2
 579 32 582 29 582 24 c 0
 582 19 579 16 574 16 c 2
 543 16 l 2
 541 16 539 17 537 18 c 2
 504 51 l 1
 473 114 l 2
 472 115 472 115 472 116 c 2
 454 190 l 1
 424 145 l 1
 328 49 l 2
 327 48 327 48 326 48 c 2
 263 16 l 1
 193 16 l 1
 130 48 l 2
 129 49 127 50 126 51 c 2
 95 114 l 2
 94 115 94 117 94 118 c 2
 94 215 l 1
 126 310 l 1
 126 311 l 1
 158 374 l 2
 158 375 158 375 159 376 c 2
 222 439 l 2
 223 440 223 440 224 440 c 2
 287 472 l 1
448 211 m 1
 409 367 l 1
 379 428 l 1
 351 456 l 1
 293 456 l 1
 233 426 l 1
 172 365 l 1
 141 304 l 1
 110 211 l 1
 110 120 l 1
 139 61 l 1
 198 32 l 1
 258 32 l 1
 318 62 l 1
 411 155 l 1
 448 211 l 1
EndSplineSet
Validated: 1
EndChar

StartChar: beta
Encoding: 946 946 128
Width: 598
GlyphClass: 2
Flags: MW
HStem: 16 16<262 321 262 327 256 321> 394 16<288 384 325 384 292 390 325 325> 677 16<388 446 388 388>
VStem: 63 16<-198 -196> 441 16<151 242 242 242> 504 16<529 619 619 619>
LayerCount: 2
Fore
SplineSet
284 402 m 0
 284 407 287 410 292 410 c 2
 384 410 l 1
 444 440 l 1
 474 469 l 1
 504 529 l 1
 504 619 l 1
 446 677 l 1
 388 677 l 1
 328 647 l 1
 267 586 l 1
 204 461 l 1
 173 368 l 1
 142 242 l 1
 133 189 l 1
 138 190 141 188 142 184 c 2
 173 91 l 1
 202 62 l 1
 262 32 l 1
 321 32 l 1
 381 62 l 1
 411 91 l 1
 441 151 l 1
 441 242 l 1
 411 302 l 1
 350 363 l 1
 288 394 l 2
 285 396 284 399 284 402 c 0
325 394 m 1
 358 377 l 2
 359 377 359 377 360 376 c 2
 425 311 l 1
 456 248 l 2
 457 247 457 245 457 244 c 2
 457 150 l 2
 457 149 457 147 456 146 c 2
 425 83 l 1
 391 48 391 48 390 48 c 2
 327 16 l 1
 256 16 l 1
 193 48 l 2
 192 48 192 48 191 49 c 2
 160 81 l 2
 159 82 159 83 158 84 c 2
 130 169 l 1
 110 54 l 1
 79 -198 l 2
 77 -210 61 -205 63 -196 c 2
 95 56 l 1
 126 245 l 1
 126 246 l 1
 158 372 l 1
 158 373 l 1
 189 467 l 1
 190 468 l 1
 253 594 l 2
 253 595 253 595 254 596 c 2
 319 661 l 1
 382 692 l 2
 383 693 385 693 386 693 c 2
 449 693 l 2
 451 693 453 692 455 691 c 2
 518 628 l 2
 519 626 520 624 520 622 c 2
 520 528 l 2
 520 527 520 525 519 524 c 2
 488 461 l 1
 454 426 454 426 453 426 c 2
 390 394 l 1
 325 394 l 1
EndSplineSet
Validated: 1
EndChar

StartChar: gamma
Encoding: 947 947 129
Width: 598
GlyphClass: 2
Flags: MW
HStem: -204 21G<196.5 199.5> 456 16<167 195 167 167>
VStem: 315 16<182 306 306 306>
LayerCount: 2
Fore
SplineSet
535 467 m 2
 536 470 539 472 542 472 c 0
 554 472 551 462 551 462 c 1
 519 367 l 1
 519 366 l 1
 487 303 l 1
 298 19 l 1
 235 -106 l 1
 204 -200 l 2
 203 -203 201 -204 198 -204 c 0
 195 -204 186 -204 189 -194 c 2
 220 -100 l 1
 221 -99 l 1
 283 26 l 1
 315 182 l 1
 315 306 l 1
 284 397 l 1
 255 426 l 1
 195 456 l 1
 167 456 l 1
 107 426 l 1
 45 364 l 2
 34 356 29 370 33 376 c 2
 96 439 l 2
 97 440 97 440 98 440 c 2
 161 472 l 1
 200 472 l 1
 263 440 l 2
 264 440 264 440 265 439 c 2
 297 407 l 2
 298 406 298 405 299 404 c 2
 330 310 l 2
 331 309 331 308 331 307 c 2
 331 181 l 2
 331 180 331 180 330 179 c 2
 307 62 l 1
 473 311 l 1
 504 373 l 1
 535 467 l 2
EndSplineSet
Validated: 1
EndChar

StartChar: delta
Encoding: 948 948 130
Width: 566
GlyphClass: 2
Flags: MW
HStem: 16 16<230 289 230 295 224 289> 456 16<261 335 256 351 261 261> 677 16<294 352 294 294>
VStem: 94 16<182 274 182 278 182 278> 252 16<592 650 592 654 592 655> 440 16<214 306 306 306>
LayerCount: 2
Fore
SplineSet
335 472 m 1
 285 522 l 2
 284 523 284 523 284 524 c 2
 252 587 l 1
 252 654 l 2
 252 656 253 658 254 659 c 2
 285 691 l 2
 287 692 289 693 291 693 c 2
 354 693 l 2
 355 693 357 693 358 692 c 2
 421 661 l 1
 486 596 l 2
 494 588 482 577 474 585 c 2
 412 647 l 1
 352 677 l 1
 294 677 l 1
 268 650 l 1
 268 592 l 1
 298 532 l 1
 423 407 l 2
 424 406 424 405 425 404 c 2
 456 310 l 1
 456 210 l 1
 425 115 l 2
 424 114 424 113 423 112 c 2
 360 49 l 2
 359 48 359 48 358 48 c 2
 295 16 l 1
 224 16 l 1
 161 48 l 2
 160 48 160 48 159 49 c 2
 128 81 l 2
 127 82 127 83 126 84 c 2
 94 178 l 1
 94 278 l 1
 126 373 l 2
 127 374 127 375 128 376 c 2
 191 439 l 2
 192 440 192 440 193 440 c 2
 256 472 l 1
 335 472 l 1
351 456 m 1
 261 456 l 1
 201 426 l 1
 140 366 l 1
 110 274 l 1
 110 182 l 1
 140 91 l 1
 170 62 l 1
 230 32 l 1
 289 32 l 1
 349 62 l 1
 410 122 l 1
 440 214 l 1
 440 306 l 1
 410 397 l 1
 351 456 l 1
EndSplineSet
Validated: 1
EndChar

StartChar: epsilon
Encoding: 949 949 131
Width: 503
GlyphClass: 2
Flags: MW
HStem: 16 16<198 289 198 295 193 289> 456 16<230 321 230 230>
VStem: 94 16<120 178 120 181 120 182> 157 16<372 428 372 433 372 434.5>
LayerCount: 2
Fore
SplineSet
294 283 m 2
 297 282 299 279 299 275 c 0
 299 271 297 269 293 268 c 2
 169 237 l 1
 110 178 l 1
 110 120 l 1
 139 61 l 1
 198 32 l 1
 289 32 l 1
 349 62 l 1
 411 124 l 2
 421 132 429 119 423 112 c 2
 360 49 l 2
 359 48 359 48 358 48 c 2
 295 16 l 1
 193 16 l 1
 130 48 l 2
 129 49 127 50 126 51 c 2
 95 114 l 2
 94 115 94 117 94 118 c 2
 94 181 l 2
 94 183 95 185 96 187 c 2
 159 250 l 1
 163 252 l 1
 262 277 l 1
 194 299 l 2
 192 300 190 301 189 303 c 2
 158 366 l 2
 157 367 157 369 157 370 c 2
 157 433 l 2
 157 436 158 439 161 440 c 2
 224 472 l 1
 326 472 l 1
 389 440 l 2
 390 440 390 440 391 439 c 2
 423 407 l 2
 429 401 420 387 411 396 c 2
 381 426 l 1
 321 456 l 1
 230 456 l 1
 173 428 l 1
 173 372 l 1
 202 314 l 1
 294 283 l 2
EndSplineSet
Validated: 1
EndChar

StartChar: zeta
Encoding: 950 950 132
Width: 472
GlyphClass: 2
Flags: MW
HStem: -205 16<226.5 288 233 288 233 291> 520 16<355 415 351 448 355 452>
VStem: 94 16<151 211 151 215 151 215> 220 16<594 619 594 622 594 623> 314 16<-162 -104 -104 -104>
LayerCount: 2
Fore
SplineSet
448 536 m 2
 453 536 456 533 456 528 c 0
 456 525 455 522 452 520 c 2
 327 458 l 1
 233 395 l 1
 140 303 l 1
 110 211 l 1
 110 151 l 1
 140 91 l 1
 202 30 l 1
 295 -33 l 1
 298 -36 l 1
 330 -99 l 1
 330 -166 l 2
 330 -168 329 -170 328 -171 c 2
 297 -203 l 2
 295 -204 293 -205 291 -205 c 2
 228 -205 l 2
 225 -205 222 -204 221 -201 c 2
 189 -138 l 2
 186 -129 195 -126 197 -126 c 0
 200 -126 202 -127 204 -130 c 2
 233 -189 l 1
 288 -189 l 1
 314 -162 l 1
 314 -104 l 1
 285 -45 l 1
 192 17 l 2
 191 17 191 17 191 18 c 2
 126 83 l 1
 95 146 l 2
 94 147 94 149 94 150 c 2
 94 215 l 1
 126 310 l 2
 127 311 127 312 128 313 c 2
 222 407 l 2
 223 408 223 408 224 408 c 2
 318 471 l 1
 319 472 l 1
 415 520 l 1
 351 520 l 1
 257 551 l 2
 256 552 255 552 254 553 c 2
 222 585 l 2
 221 586 220 588 220 590 c 2
 220 622 l 2
 220 624 221 626 222 628 c 0
 254 659 254 659 256 661 c 2
 319 692 l 2
 322 693 330 696 330 685 c 0
 330 682 329 680 326 678 c 2
 264 647 l 1
 236 619 l 1
 236 594 l 1
 264 566 l 1
 355 536 l 1
 448 536 l 2
EndSplineSet
Validated: 1
EndChar

StartChar: eta
Encoding: 951 951 133
Width: 630
GlyphClass: 2
Flags: MW
HStem: 456 16<137 193 137 137 387 445 387 387>
VStem: 220 16<371 430 430 430> 378 15<-199 -195> 504 16<308 398 398 398>
LayerCount: 2
Fore
SplineSet
46 335 m 2
 42 326 26 333 32 342 c 2
 63 405 l 1
 128 470 l 2
 129 471 131 472 134 472 c 2
 197 472 l 2
 199 472 201 471 202 470 c 2
 234 439 l 2
 235 437 236 435 236 433 c 2
 236 368 l 1
 222 313 l 1
 252 374 l 1
 317 439 l 2
 318 440 318 440 319 440 c 2
 382 472 l 1
 449 472 l 2
 451 472 453 471 454 470 c 2
 517 407 l 2
 519 406 520 404 520 402 c 2
 520 307 l 2
 520 306 520 306 519 305 c 2
 488 148 l 1
 488 147 l 1
 393 -199 l 2
 389 -212 375 -203 378 -195 c 2
 472 151 l 1
 504 308 l 1
 504 398 l 1
 445 456 l 1
 387 456 l 1
 327 426 l 1
 266 365 l 1
 204 241 l 1
 141 21 l 2
 138 11 123 17 126 26 c 2
 189 246 l 1
 220 371 l 1
 220 430 l 1
 193 456 l 1
 137 456 l 1
 77 397 l 1
 46 335 l 2
EndSplineSet
Validated: 1
EndChar

StartChar: theta
Encoding: 952 952 134
Width: 534
GlyphClass: 2
Flags: MW
HStem: 16 16<164 226 168 226 168 232> 362 16<137 417 137 417 134 417> 677 16<324 324 324 382>
VStem: 94 16<120 243 120 246 120 246> 440 16<465 589 589 589>
LayerCount: 2
Fore
SplineSet
324 677 m 1
 265 647 l 1
 203 555 l 1
 172 493 l 1
 141 399 l 1
 137 378 l 1
 417 378 l 2
 419 378 421 377 423 376 c 1
 440 465 l 1
 440 589 l 1
 410 649 l 1
 382 677 l 1
 324 677 l 1
319 692 m 2
 320 693 321 693 322 693 c 2
 386 693 l 2
 388 693 390 692 391 691 c 2
 423 659 l 2
 424 658 424 658 424 657 c 2
 456 594 l 1
 456 463 l 1
 425 305 l 1
 425 304 l 1
 393 210 l 1
 393 209 l 1
 361 146 l 1
 361 145 l 1
 298 51 l 1
 295 48 l 1
 232 16 l 1
 165 16 l 2
 163 16 161 17 159 18 c 2
 126 51 l 1
 95 114 l 2
 94 115 94 117 94 118 c 2
 94 246 l 1
 126 403 l 1
 126 404 l 1
 157 499 l 2
 158 499 158 499 158 500 c 2
 189 563 l 1
 190 563 l 1
 253 658 l 1
 256 661 l 1
 319 692 l 2
420 363 m 1
 419 362 418 362 417 362 c 2
 134 362 l 1
 110 243 l 1
 110 120 l 1
 140 60 l 1
 168 32 l 1
 226 32 l 1
 286 61 l 1
 347 154 l 1
 378 216 l 1
 409 309 l 1
 420 363 l 1
EndSplineSet
Validated: 1
EndChar

StartChar: iota
Encoding: 953 953 135
Width: 346
GlyphClass: 2
Flags: MW
HStem: 16 16<132.5 193 137 193 137 196>
VStem: 94 16<58 117 58 120 58 120>
LayerCount: 2
Fore
SplineSet
189 467 m 0
 192 477 207 471 204 462 c 2
 141 242 l 1
 110 117 l 1
 110 58 l 1
 137 32 l 1
 193 32 l 1
 253 91 l 1
 284 153 l 2
 286 156 288 158 291 158 c 2
 291 158 302 158 298 146 c 2
 267 83 l 1
 202 18 l 2
 201 17 199 16 196 16 c 2
 134 16 l 2
 131 16 129 17 128 18 c 2
 96 49 l 2
 95 51 94 53 94 55 c 2
 94 120 l 1
 107 173 138 288 189 467 c 0
EndSplineSet
Validated: 1
EndChar

StartChar: kappa
Encoding: 954 954 136
Width: 567
GlyphClass: 2
Flags: MW
HStem: 16 16<353.5 383 358 383 358 386> 268 16<162 195 166 201 166 199> 456 16<451 477 451 451>
LayerCount: 2
Fore
SplineSet
158 276 m 0
 158 281 161 284 166 284 c 2
 195 284 l 1
 255 314 l 1
 380 439 l 2
 381 440 381 440 382 440 c 2
 445 472 l 1
 481 472 l 2
 483 472 485 471 486 470 c 2
 518 439 l 2
 526 428 512 423 506 427 c 2
 477 456 l 1
 451 456 l 1
 391 426 l 1
 266 301 l 2
 265 300 265 300 264 300 c 2
 201 268 l 1
 199 268 l 1
 232 251 l 2
 233 251 233 251 234 250 c 2
 266 218 l 2
 267 217 267 216 267 215 c 2
 330 59 l 1
 358 32 l 1
 383 32 l 1
 412 61 l 2
 416 65 431 61 423 49 c 2
 392 18 l 2
 390 17 388 16 386 16 c 2
 355 16 l 2
 352 16 350 17 349 18 c 2
 317 49 l 2
 316 50 316 51 316 52 c 2
 253 208 l 1
 224 237 l 1
 162 268 l 2
 159 270 158 273 158 276 c 0
189 467 m 2
 192 477 208 470 205 462 c 2
 79 21 l 2
 77 12 61 14 63 26 c 2
 189 467 l 2
EndSplineSet
Validated: 1
EndChar

StartChar: lambda
Encoding: 955 955 137
Width: 504
GlyphClass: 2
Flags: MW
HStem: 16 21G<446.5 453> 677 16<36.5 102 39 100>
LayerCount: 2
Fore
SplineSet
39 677 m 2
 34 677 31 680 31 685 c 0
 31 690 34 693 39 693 c 2
 102 693 l 2
 103 693 105 693 106 692 c 2
 169 661 l 1
 202 628 l 2
 203 627 203 626 204 625 c 2
 456 27 l 2
 457 23 458 16 448 16 c 0
 445 16 442 17 441 20 c 2
 261 448 l 1
 78 20 l 2
 74 10 59 17 63 27 c 2
 252 468 l 1
 253 468 l 1
 190 617 l 1
 160 647 l 1
 100 677 l 1
 39 677 l 2
EndSplineSet
Validated: 1
EndChar

StartChar: uni03BC
Encoding: 956 956 138
Width: 661
GlyphClass: 2
Flags: MW
HStem: 16 16<227 289 231 289 231 295 483 540>
VStem: 157 16<90 180 90 183 90 183> 441 16<58 117 58 120 58 120> 535 16<462 467>
LayerCount: 2
Fore
SplineSet
535 467 m 2
 536 471 543 475 548 470 c 0
 550 468 552 465 551 462 c 2
 488 242 l 1
 457 117 l 1
 457 58 l 1
 483 32 l 1
 540 32 l 1
 599 91 l 1
 630 153 l 2
 632 156 634 158 637 158 c 0
 642 158 647 153 645 146 c 2
 613 83 l 2
 613 82 613 82 612 81 c 2
 549 18 l 2
 547 17 545 16 543 16 c 2
 480 16 l 2
 478 16 476 17 474 18 c 2
 443 49 l 2
 442 51 441 53 441 55 c 2
 441 120 l 1
 455 175 l 1
 424 114 l 2
 424 113 424 113 423 112 c 2
 360 49 l 2
 359 48 359 48 358 48 c 2
 295 16 l 1
 228 16 l 2
 226 16 224 17 222 18 c 2
 159 81 l 2
 158 82 157 84 157 86 c 2
 157 183 l 1
 160 199 l 1
 47 -199 l 2
 45 -209 29 -205 31 -195 c 2
 220 467 l 2
 223 476 239 472 236 462 c 2
 202 344 l 2
 204 342 205 340 204 337 c 2
 173 180 l 1
 173 90 l 1
 231 32 l 1
 289 32 l 1
 349 62 l 1
 410 123 l 1
 473 247 l 1
 535 467 l 2
EndSplineSet
Validated: 1
EndChar

StartChar: nu
Encoding: 957 957 139
Width: 567
GlyphClass: 2
Flags: MW
HStem: 16 21G<102 102 102 105> 456 16<99.5 196 102 187>
LayerCount: 2
Fore
SplineSet
102 16 m 2
 97 15 94 18 94 24 c 2
 94 26 l 1
 126 120 l 1
 157 277 l 1
 187 456 l 1
 102 456 l 2
 97 456 94 459 94 464 c 0
 94 469 97 472 102 472 c 2
 196 472 l 2
 201 472 206 466 204 463 c 2
 173 274 l 1
 141 116 l 1
 141 115 l 1
 115 36 l 1
 193 62 l 1
 286 124 l 1
 379 218 l 1
 442 311 l 1
 473 373 l 1
 504 467 l 2
 505 470 507 472 510 472 c 0
 513 472 522 472 519 462 c 2
 488 367 l 2
 487 367 487 367 487 366 c 2
 456 303 l 1
 455 303 l 1
 392 208 l 2
 392 207 392 207 391 207 c 2
 297 112 l 2
 296 112 296 112 295 111 c 2
 201 48 l 2
 200 48 200 48 199 47 c 2
 105 16 l 1
 102 16 l 2
EndSplineSet
Validated: 1
EndChar

StartChar: xi
Encoding: 958 958 140
Width: 504
GlyphClass: 2
Flags: MW
HStem: -205 16<193.5 258 196 258 196 260> 236 16<324 386 324 386 323 386> 520 16<355 448 355 448>
VStem: 94 16<58 116 58 118 58 118.5> 157 16<342 400 342 402 342 402.5> 220 16<594 619 594 622 594 623> 314 16<-161 -106 -106 -106>
LayerCount: 2
Fore
SplineSet
319 692 m 2
 322 693 330 696 330 685 c 0
 330 682 329 680 326 678 c 2
 264 647 l 1
 236 619 l 1
 236 594 l 1
 264 566 l 1
 355 536 l 1
 448 536 l 2
 453 536 456 533 456 528 c 0
 456 523 453 520 448 520 c 2
 355 520 l 1
 263 489 l 1
 202 459 l 1
 173 400 l 1
 173 342 l 1
 232 282 l 1
 324 252 l 1
 386 252 l 2
 391 252 394 249 394 244 c 0
 394 239 391 236 386 236 c 2
 323 236 l 1
 199 205 l 1
 139 175 l 1
 110 116 l 1
 110 58 l 1
 170 -1 l 1
 295 -64 l 2
 296 -64 296 -64 297 -65 c 2
 328 -97 l 2
 329 -98 330 -100 330 -102 c 2
 330 -166 l 2
 330 -169 329 -171 326 -173 c 2
 263 -204 l 2
 262 -205 261 -205 260 -205 c 2
 196 -205 l 2
 191 -205 188 -202 188 -197 c 0
 188 -192 191 -189 196 -189 c 2
 258 -189 l 1
 314 -161 l 1
 314 -106 l 1
 286 -78 l 1
 161 -15 l 2
 160 -15 160 -15 159 -14 c 2
 96 49 l 2
 95 51 94 53 94 55 c 2
 94 118 l 2
 94 119 94 121 95 122 c 2
 126 185 l 2
 127 186 129 187 130 188 c 2
 193 220 l 1
 195 220 l 1
 294 245 l 1
 225 268 l 2
 224 269 223 269 222 270 c 2
 159 333 l 2
 158 334 157 336 157 338 c 2
 157 402 l 2
 157 403 157 404 158 405 c 2
 189 468 l 1
 193 472 l 1
 256 503 l 1
 257 504 l 1
 329 528 l 1
 257 551 l 2
 256 552 255 552 254 553 c 2
 222 585 l 2
 221 586 220 588 220 590 c 2
 220 622 l 2
 220 624 221 626 222 628 c 0
 254 659 254 659 256 661 c 2
 319 692 l 2
EndSplineSet
Validated: 1
EndChar

StartChar: omicron
Encoding: 959 959 141
Width: 534
GlyphClass: 2
Flags: MW
HStem: 16 16<230 289 230 295 224 289> 456 16<261 261 261 321>
VStem: 94 16<182 274 182 278 182 278> 440 16<214 306 306 306>
LayerCount: 2
Fore
SplineSet
261 456 m 1
 201 426 l 1
 140 366 l 1
 110 274 l 1
 110 182 l 1
 140 91 l 1
 170 62 l 1
 230 32 l 1
 289 32 l 1
 349 62 l 1
 410 122 l 1
 440 214 l 1
 440 306 l 1
 410 397 l 1
 381 426 l 1
 321 456 l 1
 261 456 l 1
256 472 m 1
 326 472 l 1
 389 440 l 2
 390 440 390 440 391 439 c 2
 423 407 l 2
 424 406 424 405 425 404 c 2
 456 310 l 1
 456 210 l 1
 425 115 l 2
 424 114 424 113 423 112 c 2
 360 49 l 2
 359 48 359 48 358 48 c 2
 295 16 l 1
 224 16 l 1
 161 48 l 2
 160 48 160 48 159 49 c 2
 128 81 l 2
 127 82 127 83 126 84 c 2
 94 178 l 1
 94 278 l 1
 126 373 l 2
 127 374 127 375 128 376 c 2
 191 439 l 2
 192 440 192 440 193 440 c 2
 256 472 l 1
EndSplineSet
Validated: 1
EndChar

StartChar: pi
Encoding: 960 960 142
Width: 693
GlyphClass: 2
Flags: MW
HStem: 16 21G<540.5 543.5> 456 16<230 281 230 230 298 442 298 298 458 638 458 458>
LayerCount: 2
Fore
SplineSet
77 364 m 2
 66 356 61 370 65 376 c 2
 128 439 l 2
 129 440 130 440 131 441 c 2
 226 472 l 1
 638 472 l 2
 643 472 646 469 646 464 c 0
 646 459 643 456 638 456 c 2
 458 456 l 1
 488 277 l 1
 520 120 l 1
 551 26 l 2
 554 16 545 16 542 16 c 0
 539 16 537 18 536 21 c 2
 504 115 l 1
 504 116 l 1
 473 274 l 1
 442 456 l 1
 298 456 l 1
 173 21 l 2
 170 11 155 17 158 26 c 2
 281 456 l 1
 230 456 l 1
 138 426 l 1
 77 364 l 2
EndSplineSet
Validated: 1
EndChar

StartChar: rho
Encoding: 961 961 143
Width: 567
GlyphClass: 2
Flags: MW
HStem: 16 16<262 321 262 327 256 321> 456 16<293 353 293 293>
VStem: 126 16<182 214 214 214 182 278> 473 16<214 306 306 306>
LayerCount: 2
Fore
SplineSet
126 214 m 1
 16 -199 l 2
 14 -209 -2 -205 0 -195 c 2
 126 278 l 1
 158 373 l 2
 159 374 159 375 160 376 c 2
 223 439 l 2
 224 440 224 440 225 440 c 2
 288 472 l 1
 358 472 l 1
 421 440 l 2
 422 440 422 440 423 439 c 2
 455 407 l 2
 456 406 456 405 457 404 c 2
 488 310 l 2
 489 309 489 308 489 307 c 2
 489 212 l 2
 489 211 489 211 488 210 c 2
 457 115 l 2
 456 114 456 113 455 112 c 2
 392 49 l 2
 391 48 391 48 390 48 c 2
 327 16 l 1
 256 16 l 1
 193 48 l 2
 192 48 192 48 191 49 c 2
 160 81 l 2
 159 82 159 83 158 84 c 2
 126 178 l 1
 126 214 l 1
142 274 m 1
 142 182 l 1
 173 91 l 1
 202 62 l 1
 262 32 l 1
 321 32 l 1
 381 62 l 1
 442 122 l 1
 473 214 l 1
 473 306 l 1
 442 397 l 1
 413 426 l 1
 353 456 l 1
 293 456 l 1
 233 426 l 1
 173 366 l 1
 142 274 l 1
EndSplineSet
Validated: 1
EndChar

StartChar: sigma1
Encoding: 962 962 144
Width: 566
GlyphClass: 2
Flags: MW
HStem: -110 16<257.5 319 260 319 260 322> 456 16<261 352 261 261>
VStem: 114 18<280 336 276 342 276 342.5> 346 16<-68 -10 -10 -10>
LayerCount: 2
Fore
SplineSet
257 472 m 1
 354 472 l 2
 355 472 355 473 357 472 c 2
 425 438 l 2
 426 437 427 437 428 436 c 2
 474 385 l 2
 475 384 480 380 481 378 c 2
 488 370 l 2
 491 367 482 359 474 364 c 2
 412 426 l 1
 352 456 l 1
 261 456 l 1
 191 425 l 1
 162 396 l 1
 132 336 l 1
 132 276 l 1
 162 216 l 1
 328 61 l 1
 330 59 l 1
 361 -4 l 2
 362 -5 362 -7 362 -8 c 2
 362 -71 l 2
 362 -73 361 -75 360 -77 c 2
 328 -108 l 2
 327 -109 325 -110 322 -110 c 2
 260 -110 l 2
 255 -110 252 -107 252 -102 c 0
 252 -97 255 -94 260 -94 c 2
 319 -94 l 1
 346 -68 l 1
 346 -10 l 1
 316 50 l 1
 212 147 l 2
 211 147 211 147 211 148 c 2
 146 213 l 1
 115 276 l 2
 114 277 114 279 114 280 c 2
 114 342 l 2
 114 343 114 345 115 346 c 2
 146 409 l 1
 182 445 l 1
 257 472 l 1
EndSplineSet
Validated: 1
EndChar

StartChar: sigma
Encoding: 963 963 145
Width: 630
GlyphClass: 2
Flags: MW
HStem: 16 16<230 289 230 295 224 289> 456 16<261 321 261 261 356 574 356 356>
VStem: 94 16<182 274 182 278 182 278> 440 16<214 306 306 306>
LayerCount: 2
Fore
SplineSet
321 456 m 1
 261 456 l 1
 201 426 l 1
 140 366 l 1
 110 274 l 1
 110 182 l 1
 140 91 l 1
 170 62 l 1
 230 32 l 1
 289 32 l 1
 349 62 l 1
 410 122 l 1
 440 214 l 1
 440 306 l 1
 410 397 l 1
 381 426 l 1
 321 456 l 1
356 456 m 1
 389 440 l 2
 390 440 390 440 391 439 c 2
 423 407 l 2
 424 406 424 405 425 404 c 2
 456 310 l 1
 456 210 l 1
 425 115 l 2
 424 114 424 113 423 112 c 2
 360 49 l 2
 359 48 359 48 358 48 c 2
 295 16 l 1
 224 16 l 1
 161 48 l 2
 160 48 160 48 159 49 c 2
 128 81 l 2
 127 82 127 83 126 84 c 2
 94 178 l 1
 94 278 l 1
 126 373 l 2
 127 374 127 375 128 376 c 2
 191 439 l 2
 192 440 192 440 193 440 c 2
 256 472 l 1
 574 472 l 2
 579 472 582 469 582 464 c 0
 582 459 579 456 574 456 c 2
 356 456 l 1
EndSplineSet
Validated: 1
EndChar

StartChar: tau
Encoding: 964 964 146
Width: 630
GlyphClass: 2
Flags: MW
HStem: 456 16<230 345 230 230 361 575 361 361>
LayerCount: 2
Fore
SplineSet
77 364 m 2
 66 356 61 370 65 376 c 2
 128 439 l 2
 129 440 130 440 131 441 c 2
 226 472 l 1
 575 472 l 2
 580 472 583 469 583 464 c 0
 583 459 580 456 575 456 c 2
 361 456 l 1
 268 22 l 2
 264 11 249 16 252 25 c 2
 345 456 l 1
 230 456 l 1
 138 426 l 1
 77 364 l 2
EndSplineSet
Validated: 1
EndChar

StartChar: upsilon
Encoding: 965 965 147
Width: 629
GlyphClass: 2
Flags: MW
HStem: 16 16<227 290 231 290 231 294> 456 16<137 193 137 137>
VStem: 157 16<90 180 90 184 90 184> 220 16<371 430 430 430> 535 16<371 464 368 466.5>
LayerCount: 2
Fore
SplineSet
46 335 m 2
 42 326 26 333 32 342 c 2
 63 405 l 1
 128 470 l 2
 129 471 131 472 134 472 c 2
 197 472 l 2
 199 472 201 471 202 470 c 2
 234 439 l 2
 235 437 236 435 236 433 c 2
 236 367 l 1
 173 180 l 1
 173 90 l 1
 231 32 l 1
 290 32 l 1
 381 62 l 1
 442 123 l 1
 504 247 l 1
 535 371 l 1
 535 464 l 2
 535 469 538 472 543 472 c 0
 548 472 551 469 551 464 c 2
 551 368 l 1
 519 242 l 1
 519 240 l 1
 456 114 l 1
 391 49 l 2
 390 48 389 48 388 47 c 2
 294 16 l 1
 228 16 l 2
 226 16 224 17 222 18 c 2
 159 81 l 2
 158 82 157 84 157 86 c 2
 157 184 l 1
 220 371 l 1
 220 430 l 1
 193 456 l 1
 137 456 l 1
 77 397 l 1
 46 335 l 2
EndSplineSet
Validated: 1
EndChar

StartChar: phi
Encoding: 966 966 148
Width: 692
GlyphClass: 2
Flags: MW
HStem: 16 16<230 252 224 257 273 321 230 269> 456 16<483 540 483 483>
VStem: 94 16<151 243 151 247 151 247> 598 16<308 398 398 398>
LayerCount: 2
Fore
SplineSet
273 32 m 1
 321 32 l 1
 413 62 l 1
 506 124 l 1
 567 216 l 1
 598 308 l 1
 598 398 l 1
 540 456 l 1
 483 456 l 1
 424 397 l 1
 361 272 l 1
 299 115 l 1
 273 32 l 1
269 16 m 1
 204 -199 l 2
 203 -204 199 -206 194 -204 c 0
 189 -202 188 -200 189 -195 c 2
 252 16 l 1
 224 16 l 1
 161 48 l 2
 160 48 160 48 159 49 c 0
 128 81 128 81 126 83 c 2
 95 146 l 2
 94 147 94 149 94 150 c 2
 94 247 l 1
 126 341 l 2
 127 342 127 343 128 344 c 2
 193 409 l 1
 256 440 l 2
 268 444 268 433 268 433 c 2
 268 430 266 428 263 426 c 2
 201 395 l 1
 140 334 l 1
 110 243 l 1
 110 151 l 1
 140 91 l 1
 170 62 l 1
 230 32 l 1
 257 32 l 1
 283 120 l 2
 283 121 283 121 284 121 c 2
 347 278 l 1
 347 279 l 1
 410 405 l 2
 410 406 410 406 411 407 c 2
 474 470 l 2
 476 471 478 472 480 472 c 2
 543 472 l 2
 545 472 547 471 549 470 c 2
 612 407 l 2
 613 406 614 404 614 402 c 2
 614 304 l 1
 582 210 l 2
 582 209 582 209 581 208 c 2
 518 114 l 2
 517 113 517 112 516 111 c 2
 421 48 l 1
 420 47 l 1
 325 16 l 1
 269 16 l 1
EndSplineSet
Validated: 1
EndChar

StartChar: chi
Encoding: 967 967 149
Width: 566
GlyphClass: 2
Flags: MW
HStem: -205 16<447.5 512 452 512 452 512> 456 16<68.5 134 71 130>
LayerCount: 2
Fore
SplineSet
536 468 m 2
 538 471 540 472 543 472 c 0
 546 472 554 472 550 461 c 2
 519 398 l 1
 497 367 476 335 455 303 c 0
 455 302 455 302 454 302 c 2
 300 132 l 1
 393 -130 l 1
 452 -189 l 1
 512 -189 l 2
 517 -189 520 -192 520 -197 c 0
 520 -202 517 -205 512 -205 c 2
 449 -205 l 2
 446 -205 444 -204 443 -203 c 2
 380 -140 l 2
 379 -139 379 -138 378 -137 c 2
 288 118 l 1
 140 -44 l 1
 77 -138 l 1
 46 -201 l 2
 42 -210 26 -203 32 -193 c 2
 63 -130 l 1
 64 -130 l 1
 127 -35 l 1
 179 22 230 79 282 136 c 1
 190 397 l 1
 130 456 l 1
 71 456 l 2
 66 456 63 459 63 464 c 0
 63 469 66 472 71 472 c 2
 134 472 l 2
 136 472 138 471 139 470 c 2
 202 407 l 2
 203 406 204 405 204 404 c 2
 294 149 l 1
 442 312 l 1
 505 406 l 1
 536 468 l 2
EndSplineSet
Validated: 1
EndChar

StartChar: psi
Encoding: 968 968 150
Width: 724
GlyphClass: 2
Flags: MW
HStem: 16 16<293 312 287 317 333 353 293 329> 456 16<137 193 137 137>
VStem: 189 16<120 212 120 214 120 214> 220 16<371 430 430 430>
LayerCount: 2
Fore
SplineSet
46 335 m 2
 42 326 26 333 32 342 c 2
 63 405 l 1
 128 470 l 2
 129 471 131 472 134 472 c 2
 197 472 l 2
 199 472 201 471 202 470 c 2
 234 439 l 2
 235 437 236 435 236 433 c 2
 236 368 l 1
 205 212 l 1
 205 120 l 1
 234 61 l 1
 293 32 l 1
 317 32 l 1
 504 687 l 2
 505 691 511 697 518 690 c 0
 520 688 520 686 519 683 c 2
 333 32 l 1
 353 32 l 1
 444 62 l 1
 505 123 l 1
 567 216 l 1
 630 373 l 1
 661 467 l 2
 662 470 665 472 668 472 c 0
 680 472 677 462 677 462 c 1
 645 367 l 1
 582 210 l 2
 582 209 582 209 581 208 c 2
 518 114 l 2
 518 113 518 113 517 112 c 2
 454 49 l 2
 453 48 452 48 451 47 c 2
 357 16 l 1
 329 16 l 1
 267 -199 l 2
 263 -212 250 -202 252 -195 c 2
 312 16 l 1
 287 16 l 1
 224 48 l 1
 221 51 l 1
 189 114 l 1
 189 214 l 1
 220 371 l 1
 220 430 l 1
 193 456 l 1
 137 456 l 1
 77 397 l 1
 46 335 l 2
EndSplineSet
Validated: 1
EndChar

StartChar: omega
Encoding: 969 969 151
Width: 724
GlyphClass: 2
Flags: MW
HStem: 16 16<164 226 168 226 168 232 420 478>
VStem: 94 16<151 243 151 247 151 247> 630 16<245 337 337 337>
LayerCount: 2
Fore
SplineSet
378 277 m 2
 382 288 396 283 393 274 c 2
 362 150 l 1
 392 59 l 1
 420 32 l 1
 478 32 l 1
 538 61 l 1
 599 153 l 1
 630 245 l 1
 630 337 l 1
 599 429 l 1
 569 459 l 2
 560 465 574 479 580 470 c 2
 612 439 l 2
 613 438 613 437 614 436 c 2
 645 341 l 2
 646 340 646 339 646 338 c 2
 646 244 l 2
 646 243 646 242 645 241 c 2
 614 147 l 2
 613 146 613 146 613 145 c 2
 550 51 l 1
 547 48 l 1
 484 16 l 1
 417 16 l 2
 415 16 413 17 411 18 c 2
 380 49 l 2
 379 50 379 51 378 52 c 2
 352 131 l 1
 298 51 l 1
 295 48 l 1
 232 16 l 1
 165 16 l 2
 163 16 161 17 159 18 c 2
 128 49 l 2
 127 50 127 51 126 52 c 2
 94 147 l 1
 94 247 l 1
 126 341 l 2
 126 342 126 342 127 343 c 2
 190 437 l 1
 193 440 l 1
 256 472 l 2
 263 474 268 469 268 464 c 0
 268 461 266 459 263 457 c 2
 202 427 l 1
 141 335 l 1
 110 243 l 1
 110 151 l 1
 140 59 l 1
 168 32 l 1
 226 32 l 1
 286 61 l 1
 347 153 l 1
 378 277 l 2
EndSplineSet
Validated: 1
EndChar

StartChar: theta1
Encoding: 977 977 152
Width: 661
GlyphClass: 2
Flags: MW
HStem: 16 16<258.5 321 263 321 263 326> 456 16<137 193 137 137> 677 16<391 447 391 391>
VStem: 189 16<120 212 120 214 120 214> 220 16<371 430 430 430> 346 16<560 620 560 622 560 622.5> 535 16<465 558 558 558>
LayerCount: 2
Fore
SplineSet
507 323 m 1
 535 465 l 1
 535 558 l 1
 505 648 l 1
 447 677 l 1
 391 677 l 1
 362 620 l 1
 362 560 l 1
 393 468 l 1
 455 375 l 1
 507 323 l 1
520 311 m 1
 610 251 l 2
 619 245 613 233 602 237 c 2
 516 295 l 1
 488 210 l 1
 487 209 l 1
 456 146 l 2
 455 145 393 52 389 48 c 2
 326 16 l 1
 260 16 l 2
 257 16 255 17 254 18 c 2
 222 49 l 2
 221 50 221 50 221 51 c 2
 189 114 l 1
 189 214 l 1
 220 371 l 1
 220 430 l 1
 193 456 l 1
 137 456 l 1
 77 397 l 1
 46 335 l 2
 42 326 26 333 32 342 c 2
 63 405 l 1
 128 470 l 2
 129 471 131 472 134 472 c 2
 197 472 l 2
 199 472 201 471 202 470 c 2
 234 439 l 2
 235 437 236 435 236 433 c 2
 236 368 l 1
 205 212 l 1
 205 120 l 1
 235 60 l 1
 263 32 l 1
 321 32 l 1
 380 61 l 1
 442 154 l 1
 473 216 l 1
 502 305 l 1
 443 364 l 2
 442 365 442 365 442 366 c 2
 379 460 l 2
 378 461 378 461 378 462 c 2
 346 556 l 1
 346 622 l 2
 346 623 346 625 347 626 c 2
 378 689 l 2
 380 692 383 693 386 693 c 2
 449 693 l 2
 450 693 451 693 452 692 c 2
 515 661 l 2
 517 660 518 658 519 656 c 2
 551 562 l 1
 551 463 l 1
 520 311 l 1
EndSplineSet
Validated: 1
EndChar

StartChar: phi1
Encoding: 981 981 153
Width: 629
GlyphClass: 2
Flags: MW
HStem: 16 16<292 353 292 357 288 353> 28 15<252 257> 445 15<388 393> 456 16<292 292 292 353>
VStem: 94 16<183 274 183 278 183 278> 535 16<214 305 305 305>
LayerCount: 2
Fore
SplineSet
288 472 m 1x5c
 357 472 l 1x5c
 377 465 l 1
 441 687 l 2
 445 700 458 690 456 683 c 2
 393 460 l 1
 451 441 l 2
 452 440 453 440 454 439 c 2
 519 374 l 1
 550 311 l 2
 551 310 551 308 551 307 c 2
 551 210 l 1
 519 115 l 2
 518 114 518 113 517 112 c 2
 454 49 l 2
 453 48 452 48 451 47 c 2
 357 16 l 1
 288 16 l 1xac
 268 23 l 1
 204 -199 l 2
 203 -203 197 -209 190 -202 c 0
 188 -200 188 -198 189 -195 c 2
 252 28 l 1
 194 47 l 2
 193 48 192 48 191 49 c 2
 126 114 l 1
 95 177 l 2
 94 178 94 180 94 181 c 2
 94 278 l 1
 126 373 l 2
 127 374 127 375 128 376 c 2
 191 439 l 2
 192 440 193 440 194 441 c 2
 288 472 l 1x5c
292 456 m 1
 201 426 l 1
 140 366 l 1
 110 274 l 1
 110 183 l 1
 140 123 l 1
 201 62 l 1
 257 43 l 1
 373 450 l 1
 353 456 l 1
 292 456 l 1
272 38 m 1
 292 32 l 1
 353 32 l 1
 444 62 l 1
 505 122 l 1
 535 214 l 1
 535 305 l 1
 505 365 l 1
 444 426 l 1
 388 445 l 1xac
 272 38 l 1
EndSplineSet
Validated: 1
EndChar

StartChar: bullet
Encoding: 8226 8226 154
Width: 251
GlyphClass: 2
Flags: MW
HStem: 270 74<128 139 128 128>
VStem: 96 75<301 313 301 313>
LayerCount: 2
Fore
SplineSet
154 307 m 1
 133 327 l 1
 113 307 l 1
 133 287 l 1
 154 307 l 1
139 344 m 2
 171 313 l 2
 174 309 174 305 171 301 c 2
 139 270 l 2
 135 266 131 266 128 270 c 2
 96 301 l 2
 93 305 93 309 96 313 c 2
 128 344 l 2
 129 345 132 346 134 346 c 0
 136 346 138 345 139 344 c 2
EndSplineSet
Validated: 1
EndChar

StartChar: minute
Encoding: 8242 8242 155
Width: 283
GlyphClass: 2
Flags: MW
HStem: 673 20G<256.5 259.5>
VStem: 157 110
LayerCount: 2
Fore
SplineSet
252 688 m 2
 253 691 255 693 258 693 c 0
 261 693 270 692 267 682 c 2
 172 461 l 2
 170 454 155 456 157 467 c 2
 220 687 l 2
 224 699 239 691 236 683 c 2
 207 584 l 1
 252 688 l 2
EndSplineSet
Validated: 1
EndChar

StartChar: second
Encoding: 8243 8243 156
Width: 386
GlyphClass: 2
Flags: MW
HStem: 673 20G<256.5 259.5 366.5 369.5>
VStem: 157 220<467 682>
LayerCount: 2
Fore
SplineSet
362 688 m 2
 363 691 365 693 368 693 c 0
 371 693 380 692 377 682 c 2
 282 461 l 2
 280 454 265 456 267 467 c 2
 330 687 l 2
 334 699 349 691 346 683 c 2
 317 584 l 1
 362 688 l 2
252 688 m 2
 253 691 255 693 258 693 c 0
 261 693 270 692 267 682 c 2
 172 461 l 2
 170 454 155 456 157 467 c 2
 220 687 l 2
 224 699 239 691 236 683 c 2
 207 584 l 1
 252 688 l 2
EndSplineSet
Validated: 1
EndChar

StartChar: fraction
Encoding: 8260 8260 157
Width: 314
GlyphClass: 2
Flags: MW
VStem: 33 265
LayerCount: 2
Fore
SplineSet
285 501 m 2
 287 508 302 504 298 491 c 1
 46 145 l 2
 44 142 41 142 38 142 c 0
 31 142 30 149 33 154 c 2
 285 501 l 2
EndSplineSet
Validated: 1
EndChar

StartChar: arrowleft
Encoding: 8592 8592 158
Width: 566
GlyphClass: 2
Flags: MW
HStem: 299 16<153 480 153 480>
LayerCount: 2
Fore
SplineSet
222 407 m 2
 230 415 241 406 234 396 c 2
 153 315 l 1
 480 315 l 2
 485 315 488 312 488 307 c 0
 488 302 485 299 480 299 c 2
 153 299 l 1
 234 218 l 2
 240 212 233 200 222 207 c 2
 191 238 l 1
 97 300 l 2
 95 302 94 304 94 307 c 0
 94 310 95 312 97 314 c 2
 191 376 l 1
 222 407 l 2
134 295 m 1
 128 301 125 305 125 307 c 0
 125 309 128 313 134 319 c 1
 116 307 l 1
 134 295 l 1
EndSplineSet
Validated: 1
EndChar

StartChar: arrowup
Encoding: 8593 8593 159
Width: 503
GlyphClass: 2
Flags: MW
HStem: 16 21G<257.5 262.5>
VStem: 252 16<24 540>
LayerCount: 2
Fore
SplineSet
108 396 m 2
 102 390 88 396 96 407 c 2
 190 501 l 1
 253 595 l 2
 256 600 261 600 266 595 c 2
 329 501 l 1
 423 407 l 2
 427 403 423 388 411 396 c 2
 268 540 l 1
 268 24 l 2
 268 19 265 16 260 16 c 0
 255 16 252 19 252 24 c 2
 252 540 l 1
 108 396 l 2
248 559 m 1
 253 564 258 567 260 567 c 0
 262 567 266 564 271 559 c 1
 260 576 l 1
 248 559 l 1
EndSplineSet
Validated: 1
EndChar

StartChar: arrowright
Encoding: 8594 8594 160
Width: 566
GlyphClass: 2
Flags: MW
HStem: 299 16<99.5 429 102 429>
LayerCount: 2
Fore
SplineSet
102 299 m 2
 97 299 94 302 94 307 c 0
 94 312 97 315 102 315 c 2
 429 315 l 1
 348 396 l 2
 342 402 351 416 360 407 c 2
 391 376 l 1
 484 314 l 2
 490 310 490 305 484 300 c 2
 391 238 l 1
 360 207 l 2
 351 198 342 212 348 218 c 2
 429 299 l 1
 102 299 l 2
448 319 m 1
 453 313 456 309 456 307 c 0
 456 305 453 301 448 295 c 1
 466 307 l 1
 448 319 l 1
EndSplineSet
Validated: 1
EndChar

StartChar: arrowdown
Encoding: 8595 8595 161
Width: 315
GlyphClass: 2
Flags: MW
VStem: 158 16<169 496 169 498.5>
LayerCount: 2
Fore
SplineSet
65 238 m 2
 59 247 67 257 77 250 c 2
 158 169 l 1
 158 496 l 2
 158 501 161 504 166 504 c 0
 171 504 174 501 174 496 c 2
 174 169 l 1
 214 209 l 2
 232 227 245 241 254 250 c 0
 264 258 272 245 266 238 c 2
 235 207 l 1
 172 114 l 2
 171 111 169 110 166 110 c 0
 163 110 160 111 159 114 c 2
 96 207 l 1
 65 238 l 2
177 150 m 1
 172 145 167 142 165 142 c 0
 163 142 159 145 154 150 c 1
 166 132 l 1
 177 150 l 1
EndSplineSet
Validated: 1
EndChar

StartChar: universal
Encoding: 8704 8704 162
Width: 566
GlyphClass: 2
Flags: MW
HStem: 374 16<161 161 161 403>
LayerCount: 2
Fore
SplineSet
290 25 m 2
 289 22 286 20 282 20 c 0
 278 20 276 22 275 25 c 2
 23 687 l 2
 21 693 29 698 32 698 c 0
 35 698 38 692 38 692 c 1
 156 389 l 1
 157 390 158 390 159 390 c 2
 404 390 l 2
 406 390 407 390 408 389 c 1
 527 692 l 2
 527 693 531 698 534 698 c 2
 534 698 545 696 542 687 c 2
 290 25 l 2
161 374 m 1
 283 50 l 1
 403 374 l 1
 161 374 l 1
EndSplineSet
Validated: 1
EndChar

StartChar: partialdiff
Encoding: 8706 8706 163
Width: 566
GlyphClass: 2
Flags: MW
HStem: 16 16<230 289 230 295 224 289> 456 16<261 321 261 261> 677 16<293 352 293 293>
VStem: 94 16<182 274 182 278 182 278> 440 16<293 306 306 306> 472 16<371 526 526 526>
LayerCount: 2
Fore
SplineSet
456 293 m 1
 472 371 l 1
 472 526 l 1
 442 618 l 1
 412 647 l 1
 352 677 l 1
 293 677 l 1
 233 647 l 1
 171 585 l 2
 162 576 153 590 159 596 c 2
 224 661 l 1
 287 692 l 2
 288 693 290 693 291 693 c 2
 354 693 l 2
 355 693 357 693 358 692 c 2
 421 661 l 1
 454 628 l 2
 455 627 455 626 456 625 c 2
 488 530 l 1
 488 368 l 1
 456 211 l 1
 456 210 l 1
 425 115 l 2
 424 114 424 113 423 112 c 2
 360 49 l 2
 359 48 359 48 358 48 c 2
 295 16 l 1
 224 16 l 1
 161 48 l 2
 160 48 160 48 159 49 c 2
 128 81 l 2
 127 82 127 83 126 84 c 2
 94 178 l 1
 94 278 l 1
 126 373 l 2
 127 374 127 375 128 376 c 2
 191 439 l 2
 192 440 192 440 193 440 c 2
 256 472 l 1
 326 472 l 1
 389 440 l 2
 390 440 390 440 391 439 c 2
 423 407 l 2
 424 406 424 405 425 404 c 2
 456 310 l 1
 456 293 l 1
440 214 m 1
 440 306 l 1
 410 397 l 1
 381 426 l 1
 321 456 l 1
 261 456 l 1
 201 426 l 1
 140 366 l 1
 110 274 l 1
 110 182 l 1
 140 91 l 1
 170 62 l 1
 230 32 l 1
 289 32 l 1
 349 62 l 1
 410 122 l 1
 440 214 l 1
EndSplineSet
Validated: 1
EndChar

StartChar: existential
Encoding: 8707 8707 164
Width: 598
GlyphClass: 2
Flags: MW
HStem: 16 16<68.5 472 71 472 71 480> 362 16<225.5 472 228 472> 677 16<68.5 480 71 472>
VStem: 472 16<32 362 362 362 378 677 677 677>
LayerCount: 2
Fore
SplineSet
71 16 m 2
 66 16 63 19 63 24 c 0
 63 29 66 32 71 32 c 2
 472 32 l 1
 472 362 l 1
 228 362 l 2
 223 362 220 365 220 370 c 0
 220 375 223 378 228 378 c 2
 472 378 l 1
 472 677 l 1
 71 677 l 2
 66 677 63 680 63 685 c 0
 63 690 66 693 71 693 c 2
 480 693 l 2
 485 693 488 690 488 685 c 2
 488 24 l 2
 488 19 485 16 480 16 c 2
 71 16 l 2
EndSplineSet
Validated: 1
EndChar

StartChar: gradient
Encoding: 8711 8711 165
Width: 566
GlyphClass: 2
Flags: MW
HStem: 15 21G<289 293> 677 16<51 531 51 51>
LayerCount: 2
Fore
SplineSet
543 693 m 2
 548 693 551 690 551 685 c 0
 551 684 551 683 550 682 c 2
 298 21 l 2
 297 17 295 15 291 15 c 0
 287 15 285 17 284 21 c 2
 32 682 l 2
 31 683 31 684 31 685 c 0
 31 690 34 693 39 693 c 2
 543 693 l 2
531 677 m 1
 51 677 l 1
 291 46 l 1
 531 677 l 1
EndSplineSet
Validated: 1
EndChar

StartChar: element
Encoding: 8712 8712 166
Width: 503
GlyphClass: 2
Flags: MW
HStem: 142 16<230 417 230 417 224 417> 299 16<110 354 110 354> 456 16<230 417 230 230>
VStem: 94 16<277 299 315 337>
CounterMasks: 1 e0
LayerCount: 2
Fore
SplineSet
417 472 m 2
 422 472 425 469 425 464 c 0
 425 459 422 456 417 456 c 2
 230 456 l 1
 170 426 l 1
 140 397 l 1
 110 337 l 1
 110 315 l 1
 354 315 l 2
 359 315 362 312 362 307 c 0
 362 302 359 299 354 299 c 2
 110 299 l 1
 110 277 l 1
 140 217 l 1
 170 188 l 1
 230 158 l 1
 417 158 l 2
 422 158 425 155 425 150 c 0
 425 145 422 142 417 142 c 2
 224 142 l 1
 161 174 l 2
 160 174 160 174 159 175 c 0
 148 186 137 198 126 209 c 1
 95 272 l 2
 94 273 94 275 94 276 c 2
 94 338 l 2
 94 339 94 341 95 342 c 2
 126 405 l 1
 160 440 160 440 161 440 c 2
 224 472 l 1
 417 472 l 2
EndSplineSet
Validated: 1
EndChar

StartChar: product
Encoding: 8719 8719 167
Width: 756
GlyphClass: 2
Flags: MW
HStem: -16 16<68.5 158 71 158 174 189 205 292 480 567 583 598 614 701> 614 16<68.5 701 71 158 174 174 174 189 205 567 205 205 583 583 583 598 614 614 614 701>
VStem: 158 16<0 614 0 614> 189 16<0 614 0 614> 567 16<0 614 0 614> 598 16<0 614 0 614>
LayerCount: 2
Fore
SplineSet
480 -16 m 2
 475 -16 472 -13 472 -8 c 0
 472 -3 475 0 480 0 c 2
 567 0 l 1
 567 614 l 1
 205 614 l 1
 205 0 l 1
 292 0 l 2
 297 0 300 -3 300 -8 c 0
 300 -13 297 -16 292 -16 c 2
 71 -16 l 2
 66 -16 63 -13 63 -8 c 0
 63 -3 66 0 71 0 c 2
 158 0 l 1
 158 614 l 1
 71 614 l 2
 66 614 63 617 63 622 c 0
 63 627 66 630 71 630 c 2
 701 630 l 2
 706 630 709 627 709 622 c 0
 709 617 706 614 701 614 c 2
 614 614 l 1
 614 0 l 1
 701 0 l 2
 706 0 709 -3 709 -8 c 0
 709 -13 706 -16 701 -16 c 2
 480 -16 l 2
598 614 m 1
 583 614 l 1
 583 0 l 1
 598 0 l 1
 598 614 l 1
189 614 m 1
 174 614 l 1
 174 0 l 1
 189 0 l 1
 189 614 l 1
EndSplineSet
Validated: 1
EndChar

StartChar: summation
Encoding: 8721 8721 168
Width: 661
GlyphClass: 2
Flags: MW
HStem: -16 16<87 507 524 537> 16 16<110 512 512 513 99 512> 614 16<87 99 87 87 119 507 119 119 524 524 524 537>
LayerCount: 2
Fore
SplineSet
524 0 m 1
 537 0 l 1
 550 66 l 1
 524 0 l 1
524 614 m 1
 550 548 l 1
 537 614 l 1
 524 614 l 1
513 16 m 1
 99 16 l 1
 87 0 l 1
 507 0 l 1
 513 16 l 1
63 622 m 0
 63 627 66 630 71 630 c 2
 544 630 l 2
 548 630 550 628 551 624 c 2
 583 466 l 2
 585 456 570 453 568 462 c 2
 507 614 l 1
 119 614 l 1
 329 343 l 2
 332 340 332 337 329 334 c 2
 110 32 l 1
 512 32 l 2
 515 32 517 31 518 29 c 1
 568 152 l 2
 570 161 585 158 583 148 c 2
 551 -10 l 2
 550 -14 548 -16 544 -16 c 2
 71 -16 l 2
 66 -16 63 -13 63 -8 c 0
 63 -6 64 -4 65 -3 c 2
 313 338 l 1
 99 614 l 1
 87 614 l 1
 298 343 l 2
 302 339 299 330 293 330 c 0
 290 330 288 331 285 334 c 2
 65 617 l 2
 64 618 63 620 63 622 c 0
EndSplineSet
Validated: 1
EndChar

StartChar: minus
Encoding: 8722 8722 169
Width: 441
GlyphClass: 2
Flags: MW
HStem: 299 16<5.5 449 8 449>
LayerCount: 2
Fore
SplineSet
8 299 m 2
 3 299 0 302 0 307 c 0
 0 312 3 315 8 315 c 2
 449 315 l 2
 454 315 457 312 457 307 c 0
 457 302 454 299 449 299 c 2
 8 299 l 2
EndSplineSet
Validated: 1
EndChar

StartChar: uni2213
Encoding: 8723 8723 170
Width: 756
GlyphClass: 2
Flags: MW
HStem: 16 21G<383.5 388.5> 299 16<131.5 378 134 378 394 638> 551 16<131.5 638 134 378 394 394 394 638>
VStem: 378 16<24 299 315 551>
LayerCount: 2
Fore
SplineSet
134 299 m 2
 129 299 126 302 126 307 c 0
 126 312 129 315 134 315 c 2
 378 315 l 1
 378 551 l 1
 134 551 l 2
 129 551 126 554 126 559 c 0
 126 564 129 567 134 567 c 2
 638 567 l 2
 643 567 646 564 646 559 c 0
 646 554 643 551 638 551 c 2
 394 551 l 1
 394 315 l 1
 638 315 l 2
 643 315 646 312 646 307 c 0
 646 302 643 299 638 299 c 2
 394 299 l 1
 394 24 l 2
 394 19 391 16 386 16 c 0
 381 16 378 19 378 24 c 2
 378 299 l 1
 134 299 l 2
EndSplineSet
Validated: 1
EndChar

StartChar: uni2219
Encoding: 8729 8729 171
Width: 251
GlyphClass: 2
Flags: MW
HStem: 270 74<128 139 128 128>
VStem: 96 75<301 313 301 313>
LayerCount: 2
Fore
SplineSet
133 327 m 1
 113 307 l 1
 133 287 l 1
 154 307 l 1
 133 327 l 1
139 344 m 2
 171 313 l 2
 174 309 174 305 171 301 c 2
 139 270 l 2
 135 266 131 266 128 270 c 2
 96 301 l 2
 93 305 93 309 96 313 c 2
 128 344 l 2
 129 345 132 346 134 346 c 0
 136 346 138 345 139 344 c 2
EndSplineSet
Validated: 1
EndChar

StartChar: radical
Encoding: 8730 8730 172
Width: 630
GlyphClass: 2
Flags: MW
HStem: 394 16<68.5 166 71 130 150 150 150 162> 673 20G<636.5 639>
LayerCount: 2
Fore
SplineSet
631 689 m 2
 633 692 635 693 638 693 c 0
 640 693 648 689 645 681 c 2
 362 114 l 2
 361 112 359 110 356 110 c 0
 353 110 350 111 348 113 c 2
 130 394 l 1
 71 394 l 2
 66 394 63 397 63 402 c 0
 63 407 66 410 71 410 c 2
 166 410 l 2
 168 410 170 409 172 406 c 2
 361 154 l 2
 362 153 362 152 362 151 c 1
 631 689 l 2
353 133 m 1
 358 142 l 1
 354 141 351 142 348 145 c 2
 162 394 l 1
 150 394 l 1
 353 133 l 1
EndSplineSet
Validated: 1
EndChar

StartChar: proportional
Encoding: 8733 8733 173
Width: 598
GlyphClass: 2
Flags: MW
HStem: 204 16<195.5 226 198 226 198 228 482 543> 425 16<198 226 198 198 482 482 482 543>
VStem: 94 16<309 337 309 338 309 338.5>
LayerCount: 2
Fore
SplineSet
344 323 m 1
 316 365 l 1
 286 395 l 1
 226 425 l 1
 198 425 l 1
 139 396 l 1
 110 337 l 1
 110 309 l 1
 139 250 l 1
 198 220 l 1
 226 220 l 1
 286 251 l 1
 316 281 l 1
 344 323 l 1
354 337 m 1
 379 374 l 2
 379 375 379 375 380 376 c 2
 413 409 l 1
 476 440 l 2
 477 441 479 441 480 441 c 2
 543 441 l 2
 548 441 551 438 551 433 c 0
 551 428 548 425 543 425 c 2
 482 425 l 1
 422 395 l 1
 392 365 l 1
 364 323 l 1
 392 281 l 1
 422 251 l 1
 482 220 l 1
 543 220 l 2
 548 220 551 217 551 212 c 0
 551 207 548 204 543 204 c 2
 480 204 l 2
 479 204 477 204 476 205 c 2
 413 237 l 2
 412 237 412 237 411 238 c 2
 380 270 l 2
 379 270 379 270 379 271 c 2
 354 308 l 1
 329 271 l 2
 329 270 329 270 328 270 c 2
 297 238 l 2
 296 237 296 237 295 237 c 2
 232 205 l 2
 231 204 229 204 228 204 c 2
 196 204 l 2
 195 204 194 204 193 205 c 2
 130 237 l 2
 129 238 127 239 126 240 c 2
 95 303 l 2
 94 304 94 306 94 307 c 2
 94 338 l 2
 94 339 94 341 95 342 c 2
 126 405 l 1
 130 409 l 1
 193 440 l 2
 194 441 195 441 196 441 c 2
 228 441 l 2
 229 441 231 441 232 440 c 2
 295 409 l 1
 328 376 l 2
 329 375 329 375 329 374 c 2
 354 337 l 1
EndSplineSet
Validated: 1
EndChar

StartChar: infinity
Encoding: 8734 8734 174
Width: 630
GlyphClass: 2
Flags: MW
HStem: 204 16<165.5 195 167 195 167 197 451 479> 425 16<167 195 167 167 451 451 451 479>
VStem: 63 16<309 337 309 338 309 338.5> 567 16<309 337 337 337>
LayerCount: 2
Fore
SplineSet
313 323 m 1
 285 365 l 1
 255 395 l 1
 195 425 l 1
 167 425 l 1
 108 396 l 1
 79 337 l 1
 79 309 l 1
 108 250 l 1
 167 220 l 1
 195 220 l 1
 255 251 l 1
 285 281 l 1
 313 323 l 1
567 309 m 1
 567 337 l 1
 538 396 l 1
 479 425 l 1
 451 425 l 1
 391 395 l 1
 361 365 l 1
 333 323 l 1
 361 281 l 1
 391 251 l 1
 451 220 l 1
 479 220 l 1
 538 250 l 1
 567 309 l 1
323 308 m 1
 298 271 l 2
 298 270 298 270 297 270 c 2
 266 238 l 2
 265 237 265 237 264 237 c 2
 201 205 l 2
 200 204 198 204 197 204 c 2
 166 204 l 2
 165 204 163 204 162 205 c 2
 99 237 l 2
 98 238 96 239 95 240 c 2
 64 303 l 2
 63 304 63 306 63 307 c 2
 63 338 l 2
 63 339 63 341 64 342 c 2
 95 405 l 1
 99 409 l 1
 162 440 l 2
 163 441 165 441 166 441 c 2
 197 441 l 2
 198 441 200 441 201 440 c 2
 264 409 l 1
 297 376 l 2
 298 375 298 375 298 374 c 2
 323 337 l 1
 348 374 l 2
 348 375 348 375 349 376 c 2
 382 409 l 1
 445 440 l 2
 446 441 448 441 449 441 c 2
 480 441 l 2
 481 441 483 441 484 440 c 2
 547 409 l 1
 551 405 l 1
 582 342 l 2
 583 341 583 339 583 338 c 2
 583 307 l 2
 583 306 583 304 582 303 c 2
 551 240 l 2
 550 239 548 238 547 237 c 2
 484 205 l 2
 483 204 481 204 480 204 c 2
 449 204 l 2
 448 204 446 204 445 205 c 2
 382 237 l 2
 381 237 381 237 380 238 c 2
 349 270 l 2
 348 270 348 270 348 271 c 2
 323 308 l 1
EndSplineSet
Validated: 1
EndChar

StartChar: angle
Encoding: 8736 8736 175
Width: 755
GlyphClass: 2
Flags: MW
HStem: 16 16<118 669 118 669>
LayerCount: 2
Fore
SplineSet
662 816 m 2
 668 824 681 815 675 806 c 2
 118 32 l 1
 669 32 l 2
 674 32 677 29 677 24 c 0
 677 19 674 16 669 16 c 2
 102 16 l 2
 94 16 94 24 95 28 c 2
 662 816 l 2
EndSplineSet
Validated: 1
EndChar

StartChar: logicaland
Encoding: 8743 8743 176
Width: 504
GlyphClass: 2
Flags: W
LayerCount: 2
Fore
SplineSet
253 642 m 2
 254 645 257 646 260 646 c 0
 263 646 266 645 267 642 c 2
 489 13 l 2
 493 2 483 1 483 1 c 2
 481 1 478 2 476 5 c 2
 260 622 l 1
 18 5 l 2
 16 2 13 1 11 1 c 2
 11 1 1 2 5 13 c 2
 253 642 l 2
EndSplineSet
Validated: 1
EndChar

StartChar: logicalor
Encoding: 8744 8744 177
Width: 504
GlyphClass: 2
Flags: W
LayerCount: 2
Fore
SplineSet
251 4 m 2
 3 593 l 2
 -1 604 9 605 9 605 c 2
 11 605 14 604 16 601 c 2
 258 24 l 1
 474 601 l 2
 476 604 479 605 481 605 c 2
 481 605 491 604 487 593 c 2
 265 4 l 2
 264 1 261 0 258 0 c 0
 255 0 252 1 251 4 c 2
EndSplineSet
Validated: 1
EndChar

StartChar: intersection
Encoding: 8745 8745 178
Width: 503
GlyphClass: 2
Flags: MW
HStem: 456 16<230 289 230 230>
VStem: 94 16<150 337> 409 16<150 337 337 337>
LayerCount: 2
Fore
SplineSet
110 150 m 2
 110 145 107 142 102 142 c 0
 97 142 94 145 94 150 c 2
 94 338 l 2
 94 339 94 341 95 342 c 2
 126 405 l 1
 160 440 160 440 161 440 c 2
 224 472 l 1
 295 472 l 1
 358 440 l 2
 359 440 359 440 360 439 c 0
 371 428 382 416 393 405 c 1
 424 342 l 2
 425 341 425 339 425 338 c 2
 425 150 l 2
 425 145 422 142 417 142 c 0
 412 142 409 145 409 150 c 2
 409 337 l 1
 379 397 l 1
 349 426 l 1
 289 456 l 1
 230 456 l 1
 170 426 l 1
 140 397 l 1
 110 337 l 1
 110 150 l 2
EndSplineSet
Validated: 1
EndChar

StartChar: union
Encoding: 8746 8746 179
Width: 503
GlyphClass: 2
Flags: MW
HStem: 142 16<230 289 230 295 224 289> 452 20G<99.5 104.5 414.5 419.5>
VStem: 94 16<277 464 277 464 277 466.5> 409 16<277 464>
LayerCount: 2
Fore
SplineSet
94 464 m 2
 94 469 97 472 102 472 c 0
 107 472 110 469 110 464 c 2
 110 277 l 1
 140 217 l 1
 170 188 l 1
 230 158 l 1
 289 158 l 1
 349 188 l 1
 379 217 l 1
 409 277 l 1
 409 464 l 2
 409 469 412 472 417 472 c 0
 422 472 425 469 425 464 c 2
 425 276 l 2
 425 275 425 273 424 272 c 2
 393 209 l 1
 359 174 359 174 358 174 c 2
 295 142 l 1
 224 142 l 1
 161 174 l 2
 160 174 160 174 159 175 c 0
 148 186 137 198 126 209 c 1
 95 272 l 2
 94 273 94 275 94 276 c 2
 94 464 l 2
EndSplineSet
Validated: 1
EndChar

StartChar: integral
Encoding: 8747 8747 180
Width: 756
GlyphClass: 2
Flags: MW
HStem: -205 16<101 164 106 164 106 166> 803 16<608 666 608 608>
VStem: 63 16<-162 -137 -162 -134 -162 -133> 693 16<751 776 776 776>
LayerCount: 2
Fore
SplineSet
664 785 m 2
 670 794 684 780 675 774 c 2
 649 748 l 1
 670 728 l 1
 693 751 l 1
 693 776 l 1
 666 803 l 1
 608 803 l 1
 548 773 l 1
 519 743 l 1
 474 674 l 1
 437 557 l 1
 364 180 l 1
 364 179 l 1
 342 53 l 1
 342 52 l 1
 320 -42 l 1
 319 -43 l 1
 282 -126 l 1
 282 -126 233 -172 232 -173 c 2
 169 -204 l 2
 168 -205 167 -205 166 -205 c 2
 102 -205 l 2
 100 -205 98 -204 97 -203 c 2
 65 -171 l 2
 64 -170 63 -168 63 -166 c 2
 63 -134 l 2
 63 -132 64 -130 65 -128 c 2
 97 -97 l 2
 100 -93 104 -93 108 -97 c 2
 140 -128 l 2
 143 -132 143 -136 140 -140 c 2
 108 -171 l 2
 102 -180 88 -166 97 -160 c 2
 123 -134 l 1
 102 -114 l 1
 79 -137 l 1
 79 -162 l 1
 106 -189 l 1
 164 -189 l 1
 224 -159 l 1
 253 -129 l 1
 284 -68 l 1
 315 57 l 1
 378 434 l 1
 378 435 l 1
 410 561 l 1
 410 562 l 1
 441 656 l 1
 442 657 l 1
 473 720 l 1
 540 787 l 1
 603 818 l 2
 604 819 605 819 606 819 c 2
 670 819 l 2
 672 819 674 818 675 817 c 2
 707 785 l 2
 708 784 709 782 709 780 c 2
 709 748 l 2
 709 746 708 744 707 742 c 2
 675 711 l 2
 671 707 667 707 664 711 c 2
 632 742 l 2
 629 746 629 750 632 754 c 2
 664 785 l 2
EndSplineSet
Validated: 1
EndChar

StartChar: uni222C
Encoding: 8748 8748 181
Width: 1016
GlyphClass: 2
Flags: MW
HStem: -205 16<101 164 106 164 106 166 386 444> 803 16<608 666 608 608 888 946 888 888>
VStem: 63 16<-162 -137 -162 -134 -162 -133> 343 16<-162 -137 -162 -134 -162 -133> 693 16<751 776 776 776> 973 16<751 776 776 776>
LayerCount: 2
Fore
SplineSet
944 785 m 2
 950 794 964 780 955 774 c 2
 929 748 l 1
 950 728 l 1
 973 751 l 1
 973 776 l 1
 946 803 l 1
 888 803 l 1
 828 773 l 1
 799 743 l 1
 754 674 l 1
 717 557 l 1
 644 180 l 1
 644 179 l 1
 622 53 l 1
 622 52 l 1
 600 -42 l 1
 599 -43 l 1
 562 -126 l 1
 562 -126 513 -172 512 -173 c 2
 449 -204 l 2
 448 -205 447 -205 446 -205 c 2
 382 -205 l 2
 380 -205 378 -204 377 -203 c 2
 345 -171 l 2
 344 -170 343 -168 343 -166 c 2
 343 -134 l 2
 343 -132 344 -130 345 -128 c 2
 377 -97 l 2
 380 -93 384 -93 388 -97 c 2
 420 -128 l 2
 423 -132 423 -136 420 -140 c 2
 388 -171 l 2
 382 -180 368 -166 377 -160 c 2
 403 -134 l 1
 382 -114 l 1
 359 -137 l 1
 359 -162 l 1
 386 -189 l 1
 444 -189 l 1
 504 -159 l 1
 533 -129 l 1
 564 -68 l 1
 595 57 l 1
 658 434 l 1
 658 435 l 1
 690 561 l 1
 690 562 l 1
 721 656 l 1
 722 657 l 1
 753 720 l 1
 820 787 l 1
 883 818 l 2
 884 819 885 819 886 819 c 2
 950 819 l 2
 952 819 954 818 955 817 c 2
 987 785 l 2
 988 784 989 782 989 780 c 2
 989 748 l 2
 989 746 988 744 987 742 c 2
 955 711 l 2
 951 707 947 707 944 711 c 2
 912 742 l 2
 909 746 909 750 912 754 c 2
 944 785 l 2
664 785 m 2
 670 794 684 780 675 774 c 2
 649 748 l 1
 670 728 l 1
 693 751 l 1
 693 776 l 1
 666 803 l 1
 608 803 l 1
 548 773 l 1
 519 743 l 1
 474 674 l 1
 437 557 l 1
 364 180 l 1
 364 179 l 1
 342 53 l 1
 342 52 l 1
 320 -42 l 1
 319 -43 l 1
 282 -126 l 1
 282 -126 233 -172 232 -173 c 2
 169 -204 l 2
 168 -205 167 -205 166 -205 c 2
 102 -205 l 2
 100 -205 98 -204 97 -203 c 2
 65 -171 l 2
 64 -170 63 -168 63 -166 c 2
 63 -134 l 2
 63 -132 64 -130 65 -128 c 2
 97 -97 l 2
 100 -93 104 -93 108 -97 c 2
 140 -128 l 2
 143 -132 143 -136 140 -140 c 2
 108 -171 l 2
 102 -180 88 -166 97 -160 c 2
 123 -134 l 1
 102 -114 l 1
 79 -137 l 1
 79 -162 l 1
 106 -189 l 1
 164 -189 l 1
 224 -159 l 1
 253 -129 l 1
 284 -68 l 1
 315 57 l 1
 378 434 l 1
 378 435 l 1
 410 561 l 1
 410 562 l 1
 441 656 l 1
 442 657 l 1
 473 720 l 1
 540 787 l 1
 603 818 l 2
 604 819 605 819 606 819 c 2
 670 819 l 2
 672 819 674 818 675 817 c 2
 707 785 l 2
 708 784 709 782 709 780 c 2
 709 748 l 2
 709 746 708 744 707 742 c 2
 675 711 l 2
 671 707 667 707 664 711 c 2
 632 742 l 2
 629 746 629 750 632 754 c 2
 664 785 l 2
EndSplineSet
Validated: 1
EndChar

StartChar: uni222D
Encoding: 8749 8749 182
Width: 1295
GlyphClass: 2
Flags: MW
HStem: -205 16<101 164 106 164 106 166 386 444 666 724> 803 16<608 666 608 608 888 946 888 888 1168 1226 1168 1168>
VStem: 63 16<-162 -137 -162 -134 -162 -133> 343 16<-162 -137 -162 -134 -162 -133> 623 16<-162 -137 -162 -134 -162 -133> 693 16<751 776 776 776> 973 16<751 776 776 776> 1253 16<751 776 776 776>
LayerCount: 2
Fore
SplineSet
1224 785 m 2
 1230 794 1244 780 1235 774 c 2
 1209 748 l 1
 1230 728 l 1
 1253 751 l 1
 1253 776 l 1
 1226 803 l 1
 1168 803 l 1
 1108 773 l 1
 1079 743 l 1
 1034 674 l 1
 997 557 l 1
 924 180 l 1
 924 179 l 1
 902 53 l 1
 902 52 l 1
 880 -42 l 1
 879 -43 l 1
 842 -126 l 1
 842 -126 793 -172 792 -173 c 2
 729 -204 l 2
 728 -205 727 -205 726 -205 c 2
 662 -205 l 2
 660 -205 658 -204 657 -203 c 2
 625 -171 l 2
 624 -170 623 -168 623 -166 c 2
 623 -134 l 2
 623 -132 624 -130 625 -128 c 2
 657 -97 l 2
 660 -93 664 -93 668 -97 c 2
 700 -128 l 2
 703 -132 703 -136 700 -140 c 2
 668 -171 l 2
 662 -180 648 -166 657 -160 c 2
 683 -134 l 1
 662 -114 l 1
 639 -137 l 1
 639 -162 l 1
 666 -189 l 1
 724 -189 l 1
 784 -159 l 1
 813 -129 l 1
 844 -68 l 1
 875 57 l 1
 938 434 l 1
 938 435 l 1
 970 561 l 1
 970 562 l 1
 1001 656 l 1
 1002 657 l 1
 1033 720 l 1
 1100 787 l 1
 1163 818 l 2
 1164 819 1165 819 1166 819 c 2
 1230 819 l 2
 1232 819 1234 818 1235 817 c 2
 1267 785 l 2
 1268 784 1269 782 1269 780 c 2
 1269 748 l 2
 1269 746 1268 744 1267 742 c 2
 1235 711 l 2
 1231 707 1227 707 1224 711 c 2
 1192 742 l 2
 1189 746 1189 750 1192 754 c 2
 1224 785 l 2
944 785 m 2
 950 794 964 780 955 774 c 2
 929 748 l 1
 950 728 l 1
 973 751 l 1
 973 776 l 1
 946 803 l 1
 888 803 l 1
 828 773 l 1
 799 743 l 1
 754 674 l 1
 717 557 l 1
 644 180 l 1
 644 179 l 1
 622 53 l 1
 622 52 l 1
 600 -42 l 1
 599 -43 l 1
 562 -126 l 1
 562 -126 513 -172 512 -173 c 2
 449 -204 l 2
 448 -205 447 -205 446 -205 c 2
 382 -205 l 2
 380 -205 378 -204 377 -203 c 2
 345 -171 l 2
 344 -170 343 -168 343 -166 c 2
 343 -134 l 2
 343 -132 344 -130 345 -128 c 2
 377 -97 l 2
 380 -93 384 -93 388 -97 c 2
 420 -128 l 2
 423 -132 423 -136 420 -140 c 2
 388 -171 l 2
 382 -180 368 -166 377 -160 c 2
 403 -134 l 1
 382 -114 l 1
 359 -137 l 1
 359 -162 l 1
 386 -189 l 1
 444 -189 l 1
 504 -159 l 1
 533 -129 l 1
 564 -68 l 1
 595 57 l 1
 658 434 l 1
 658 435 l 1
 690 561 l 1
 690 562 l 1
 721 656 l 1
 722 657 l 1
 753 720 l 1
 820 787 l 1
 883 818 l 2
 884 819 885 819 886 819 c 2
 950 819 l 2
 952 819 954 818 955 817 c 2
 987 785 l 2
 988 784 989 782 989 780 c 2
 989 748 l 2
 989 746 988 744 987 742 c 2
 955 711 l 2
 951 707 947 707 944 711 c 2
 912 742 l 2
 909 746 909 750 912 754 c 2
 944 785 l 2
664 785 m 2
 670 794 684 780 675 774 c 2
 649 748 l 1
 670 728 l 1
 693 751 l 1
 693 776 l 1
 666 803 l 1
 608 803 l 1
 548 773 l 1
 519 743 l 1
 474 674 l 1
 437 557 l 1
 364 180 l 1
 364 179 l 1
 342 53 l 1
 342 52 l 1
 320 -42 l 1
 319 -43 l 1
 282 -126 l 1
 282 -126 233 -172 232 -173 c 2
 169 -204 l 2
 168 -205 167 -205 166 -205 c 2
 102 -205 l 2
 100 -205 98 -204 97 -203 c 2
 65 -171 l 2
 64 -170 63 -168 63 -166 c 2
 63 -134 l 2
 63 -132 64 -130 65 -128 c 2
 97 -97 l 2
 100 -93 104 -93 108 -97 c 2
 140 -128 l 2
 143 -132 143 -136 140 -140 c 2
 108 -171 l 2
 102 -180 88 -166 97 -160 c 2
 123 -134 l 1
 102 -114 l 1
 79 -137 l 1
 79 -162 l 1
 106 -189 l 1
 164 -189 l 1
 224 -159 l 1
 253 -129 l 1
 284 -68 l 1
 315 57 l 1
 378 434 l 1
 378 435 l 1
 410 561 l 1
 410 562 l 1
 441 656 l 1
 442 657 l 1
 473 720 l 1
 540 787 l 1
 603 818 l 2
 604 819 605 819 606 819 c 2
 670 819 l 2
 672 819 674 818 675 817 c 2
 707 785 l 2
 708 784 709 782 709 780 c 2
 709 748 l 2
 709 746 708 744 707 742 c 2
 675 711 l 2
 671 707 667 707 664 711 c 2
 632 742 l 2
 629 746 629 750 632 754 c 2
 664 785 l 2
EndSplineSet
Validated: 1
EndChar

StartChar: therefore
Encoding: 8756 8756 183
Width: 818
GlyphClass: 2
Flags: W
LayerCount: 2
Fore
SplineSet
721 55 m 1
 700 75 l 1
 680 55 l 1
 700 35 l 1
 721 55 l 1
706 92 m 2
 738 61 l 2
 741 57 741 53 738 49 c 2
 706 18 l 2
 702 14 698 14 695 18 c 2
 663 49 l 2
 660 53 660 57 663 61 c 2
 695 92 l 2
 696 93 699 94 701 94 c 0
 703 94 705 93 706 92 c 2
154 55 m 1
 133 75 l 1
 113 55 l 1
 133 35 l 1
 154 55 l 1
139 92 m 2
 171 61 l 2
 174 57 174 53 171 49 c 2
 139 18 l 2
 135 14 131 14 128 18 c 2
 96 49 l 2
 93 53 93 57 96 61 c 2
 128 92 l 2
 129 93 132 94 134 94 c 0
 136 94 138 93 139 92 c 2
437 559 m 1
 417 579 l 1
 397 559 l 1
 417 539 l 1
 437 559 l 1
423 596 m 2
 454 565 l 2
 458 561 458 557 454 553 c 2
 423 522 l 2
 419 518 415 518 411 522 c 2
 380 553 l 2
 376 557 376 561 380 565 c 2
 411 596 l 2
 413 597 415 598 417 598 c 0
 419 598 421 597 423 596 c 2
EndSplineSet
Validated: 1
EndChar

StartChar: uni2235
Encoding: 8757 8757 184
Width: 818
GlyphClass: 2
Flags: W
LayerCount: 2
Fore
SplineSet
105 552 m 1
 126 532 l 1
 146 552 l 1
 126 572 l 1
 105 552 l 1
120 515 m 2
 88 546 l 2
 85 550 85 554 88 558 c 2
 120 589 l 2
 124 593 128 593 131 589 c 2
 163 558 l 2
 166 554 166 550 163 546 c 2
 131 515 l 2
 130 514 127 513 125 513 c 0
 123 513 121 514 120 515 c 2
672 552 m 1
 693 532 l 1
 713 552 l 1
 693 572 l 1
 672 552 l 1
687 515 m 2
 655 546 l 2
 652 550 652 554 655 558 c 2
 687 589 l 2
 691 593 695 593 698 589 c 2
 730 558 l 2
 733 554 733 550 730 546 c 2
 698 515 l 2
 697 514 694 513 692 513 c 0
 690 513 688 514 687 515 c 2
389 48 m 1
 409 28 l 1
 429 48 l 1
 409 68 l 1
 389 48 l 1
403 11 m 2
 372 42 l 2
 368 46 368 50 372 54 c 2
 403 85 l 2
 407 89 411 89 415 85 c 2
 446 54 l 2
 450 50 450 46 446 42 c 2
 415 11 l 2
 413 10 411 9 409 9 c 0
 407 9 405 10 403 11 c 2
EndSplineSet
Validated: 1
EndChar

StartChar: uni2236
Encoding: 8758 8758 185
Width: 819
GlyphClass: 2
Flags: MW
VStem: 380 75<49 61 49 61 553 565>
LayerCount: 2
Fore
SplineSet
418 75 m 1
 397 55 l 1
 418 35 l 1
 438 55 l 1
 418 75 l 1
423 92 m 2
 455 61 l 2
 458 57 458 53 455 49 c 2
 423 18 l 2
 419 14 415 14 412 18 c 2
 380 49 l 2
 377 53 377 57 380 61 c 2
 412 92 l 2
 413 93 416 94 418 94 c 0
 420 94 422 93 423 92 c 2
418 579 m 1
 397 559 l 1
 418 539 l 1
 438 559 l 1
 418 579 l 1
423 596 m 2
 455 565 l 2
 458 561 458 557 455 553 c 2
 423 522 l 2
 419 518 415 518 412 522 c 2
 380 553 l 2
 377 557 377 561 380 565 c 2
 412 596 l 2
 413 597 416 598 418 598 c 0
 420 598 422 597 423 596 c 2
EndSplineSet
Validated: 1
EndChar

StartChar: similar
Encoding: 8764 8764 186
Width: 755
GlyphClass: 2
Flags: MW
HStem: 234 18<511.5 573 513 573 513 574> 392 18<198 258 198 198>
VStem: 94 16<212 274> 661 16<340 402 336 404.5>
LayerCount: 2
Fore
SplineSet
110 212 m 2
 110 207 107 204 102 204 c 0
 97 204 94 207 94 212 c 2
 94 278 l 1
 126 373 l 2
 127 375 128 376 130 377 c 2
 193 409 l 2
 194 410 195 410 196 410 c 2
 260 410 l 2
 261 410 262 410 263 409 c 2
 326 377 l 2
 327 377 327 377 327 376 c 2
 453 282 l 1
 513 252 l 1
 573 252 l 1
 632 281 l 1
 661 340 l 1
 661 402 l 2
 661 407 664 410 669 410 c 0
 674 410 677 407 677 402 c 2
 677 336 l 1
 645 271 l 2
 644 269 643 268 641 267 c 2
 578 235 l 2
 577 234 575 234 574 234 c 2
 512 234 l 2
 511 234 509 234 508 235 c 2
 445 267 l 2
 444 267 444 267 444 268 c 2
 318 362 l 1
 258 392 l 1
 198 392 l 1
 139 363 l 1
 110 274 l 1
 110 212 l 2
EndSplineSet
Validated: 1
EndChar

StartChar: uni223D
Encoding: 8765 8765 187
Width: 693
GlyphClass: 2
Flags: MW
HStem: 142 16<125 184 125 190 119 184> 456 16<503 562 503 503>
VStem: -11 16<277 368 277 370 277 370.5> 682 16<246 337 337 337>
LayerCount: 2
Fore
SplineSet
621 155 m 2
 652 186 l 1
 682 246 l 1
 682 337 l 1
 652 397 l 1
 622 426 l 1
 562 456 l 1
 503 456 l 1
 443 426 l 1
 413 396 l 1
 287 208 l 2
 287 207 287 207 286 207 c 2
 255 175 l 2
 254 174 254 174 253 174 c 2
 190 142 l 1
 119 142 l 1
 56 174 l 2
 55 174 55 174 54 175 c 0
 23 207 23 207 21 209 c 2
 -10 272 l 2
 -11 273 -11 275 -11 276 c 2
 -11 370 l 2
 -11 371 -11 373 -10 374 c 2
 21 437 l 1
 54 470 l 2
 62 478 74 467 66 459 c 2
 35 428 l 1
 5 368 l 1
 5 277 l 1
 35 217 l 1
 65 188 l 1
 125 158 l 1
 184 158 l 1
 244 188 l 1
 274 218 l 1
 400 406 l 2
 400 407 400 407 401 407 c 2
 432 439 l 2
 433 440 433 440 434 440 c 2
 497 472 l 1
 568 472 l 1
 631 440 l 2
 632 440 632 440 633 439 c 0
 664 407 664 407 666 405 c 2
 697 342 l 2
 698 341 698 339 698 338 c 2
 698 244 l 2
 698 243 698 241 697 240 c 2
 666 177 l 1
 633 144 l 2
 624 135 615 149 621 155 c 2
EndSplineSet
Validated: 1
EndChar

StartChar: uni2243
Encoding: 8771 8771 188
Width: 755
GlyphClass: 2
Flags: MW
HStem: 159 16<103.5 673 107 673> 334 18<511.5 573 513 573 513 574> 492 18<198 258 198 198>
VStem: 94 16<312 374> 661 16<440 502 436 504.5>
LayerCount: 2
Fore
SplineSet
107 159 m 2
 100 159 97 162 97 167 c 0
 97 172 100 175 107 175 c 2
 673 175 l 2
 680 175 683 172 683 167 c 0
 683 162 680 159 673 159 c 2
 107 159 l 2
110 312 m 2
 110 307 107 304 102 304 c 0
 97 304 94 307 94 312 c 2
 94 378 l 1
 126 473 l 2
 127 475 128 476 130 477 c 2
 193 509 l 2
 194 510 195 510 196 510 c 2
 260 510 l 2
 261 510 262 510 263 509 c 2
 326 477 l 2
 327 477 327 477 327 476 c 2
 453 382 l 1
 513 352 l 1
 573 352 l 1
 632 381 l 1
 661 440 l 1
 661 502 l 2
 661 507 664 510 669 510 c 0
 674 510 677 507 677 502 c 2
 677 436 l 1
 645 371 l 2
 644 369 643 368 641 367 c 2
 578 335 l 2
 577 334 575 334 574 334 c 2
 512 334 l 2
 511 334 509 334 508 335 c 2
 445 367 l 2
 444 367 444 367 444 368 c 2
 318 462 l 1
 258 492 l 1
 198 492 l 1
 139 463 l 1
 110 374 l 1
 110 312 l 2
EndSplineSet
Validated: 1
EndChar

StartChar: congruent
Encoding: 8773 8773 189
Width: 755
GlyphClass: 2
Flags: MW
HStem: 119 16<103.5 673 107 673> 229 16<103.5 673 107 673> 334 18<511.5 573 513 573 513 574> 492 18<198 258 198 198>
VStem: 94 16<312 374> 661 16<440 502 436 504.5>
LayerCount: 2
Fore
SplineSet
107 229 m 2
 100 229 97 232 97 237 c 0
 97 242 100 245 107 245 c 2
 673 245 l 2
 680 245 683 242 683 237 c 0
 683 232 680 229 673 229 c 2
 107 229 l 2
107 119 m 2
 100 119 97 122 97 127 c 0
 97 132 100 135 107 135 c 2
 673 135 l 2
 680 135 683 132 683 127 c 0
 683 122 680 119 673 119 c 2
 107 119 l 2
110 312 m 2
 110 307 107 304 102 304 c 0
 97 304 94 307 94 312 c 2
 94 378 l 1
 126 473 l 2
 127 475 128 476 130 477 c 2
 193 509 l 2
 194 510 195 510 196 510 c 2
 260 510 l 2
 261 510 262 510 263 509 c 2
 326 477 l 2
 327 477 327 477 327 476 c 2
 453 382 l 1
 513 352 l 1
 573 352 l 1
 632 381 l 1
 661 440 l 1
 661 502 l 2
 661 507 664 510 669 510 c 0
 674 510 677 507 677 502 c 2
 677 436 l 1
 645 371 l 2
 644 369 643 368 641 367 c 2
 578 335 l 2
 577 334 575 334 574 334 c 2
 512 334 l 2
 511 334 509 334 508 335 c 2
 445 367 l 2
 444 367 444 367 444 368 c 2
 318 462 l 1
 258 492 l 1
 198 492 l 1
 139 463 l 1
 110 374 l 1
 110 312 l 2
EndSplineSet
Validated: 1
EndChar

StartChar: approxequal
Encoding: 8776 8776 190
Width: 755
GlyphClass: 2
Flags: MW
HStem: 154 18<511.5 573 513 573 513 574> 312 18<198 258 198 198> 364 18<511.5 573 513 573 513 574> 522 18<198 258 198 198>
LayerCount: 2
Fore
SplineSet
677 466 m 1
 645 401 l 2
 644 399 643 398 641 397 c 2
 578 365 l 2
 577 364 575 364 574 364 c 2
 512 364 l 2
 511 364 509 364 508 365 c 2
 445 397 l 2
 444 397 444 397 444 398 c 2
 318 492 l 1
 258 522 l 1
 198 522 l 1
 139 493 l 1
 110 404 l 1
 94 408 l 1
 126 503 l 2
 127 505 128 506 130 507 c 2
 193 539 l 2
 194 540 195 540 196 540 c 2
 260 540 l 2
 261 540 262 540 263 539 c 2
 326 507 l 2
 327 507 327 507 327 506 c 2
 453 412 l 1
 513 382 l 1
 573 382 l 1
 632 411 l 1
 661 470 l 1
 677 466 l 1
677 256 m 1
 645 191 l 2
 644 189 643 188 641 187 c 2
 578 155 l 2
 577 154 575 154 574 154 c 2
 512 154 l 2
 511 154 509 154 508 155 c 2
 445 187 l 2
 444 187 444 187 444 188 c 2
 318 282 l 1
 258 312 l 1
 198 312 l 1
 139 283 l 1
 110 194 l 1
 94 198 l 1
 126 293 l 2
 127 295 128 296 130 297 c 2
 193 329 l 2
 194 330 195 330 196 330 c 2
 260 330 l 2
 261 330 262 330 263 329 c 2
 326 297 l 2
 327 297 327 297 327 296 c 2
 453 202 l 1
 513 172 l 1
 573 172 l 1
 632 201 l 1
 661 260 l 1
 677 256 l 1
EndSplineSet
Validated: 1
EndChar

StartChar: notequal
Encoding: 8800 8800 191
Width: 566
GlyphClass: 2
Flags: MW
HStem: 236 16<99.5 235 102 221 102 242 256 480> 362 16<99.5 340 102 326 102 347 361 480>
LayerCount: 2
Fore
SplineSet
102 236 m 2
 97 236 94 239 94 244 c 0
 94 249 97 252 102 252 c 2
 235 252 l 1
 326 362 l 1
 102 362 l 2
 97 362 94 365 94 370 c 0
 94 375 97 378 102 378 c 2
 340 378 l 1
 442 501 l 2
 445 506 460 507 455 491 c 1
 361 378 l 1
 480 378 l 2
 485 378 488 375 488 370 c 0
 488 365 485 362 480 362 c 2
 347 362 l 1
 256 252 l 1
 480 252 l 2
 485 252 488 249 488 244 c 0
 488 239 485 236 480 236 c 2
 242 236 l 1
 140 113 l 2
 137 108 122 107 127 123 c 1
 221 236 l 1
 102 236 l 2
EndSplineSet
Validated: 1
EndChar

StartChar: equivalence
Encoding: 8801 8801 192
Width: 566
GlyphClass: 2
Flags: MW
HStem: 173 16<99.5 480 102 480> 299 16<99.5 480 102 480> 425 16<99.5 480 102 480>
CounterMasks: 1 e0
LayerCount: 2
Fore
SplineSet
102 173 m 2
 97 173 94 176 94 181 c 0
 94 186 97 189 102 189 c 2
 480 189 l 2
 485 189 488 186 488 181 c 0
 488 176 485 173 480 173 c 2
 102 173 l 2
102 299 m 2
 97 299 94 302 94 307 c 0
 94 312 97 315 102 315 c 2
 480 315 l 2
 485 315 488 312 488 307 c 0
 488 302 485 299 480 299 c 2
 102 299 l 2
102 425 m 2
 97 425 94 428 94 433 c 0
 94 438 97 441 102 441 c 2
 480 441 l 2
 485 441 488 438 488 433 c 0
 488 428 485 425 480 425 c 2
 102 425 l 2
EndSplineSet
Validated: 1
EndChar

StartChar: lessequal
Encoding: 8804 8804 193
Width: 503
GlyphClass: 2
Flags: MW
HStem: 236 16<99.5 417 102 417>
VStem: 94 331<241.5 246.5 241.5 404>
LayerCount: 2
Fore
SplineSet
102 236 m 2
 97 236 94 239 94 244 c 0
 94 249 97 252 102 252 c 2
 417 252 l 2
 422 252 425 249 425 244 c 0
 425 239 422 236 417 236 c 2
 102 236 l 2
414 535 m 2
 424 538 425 529 425 526 c 0
 425 523 423 521 420 520 c 2
 124 402 l 1
 420 283 l 2
 423 282 424 279 424 276 c 0
 424 271 422 265 414 268 c 2
 99 394 l 2
 96 395 94 398 94 402 c 0
 94 406 96 408 99 409 c 2
 414 535 l 2
EndSplineSet
Validated: 1
EndChar

StartChar: greaterequal
Encoding: 8805 8805 194
Width: 503
GlyphClass: 2
Flags: MW
HStem: 236 16<99.5 417 102 417>
VStem: 94 331<241.5 246.5 241.5 277.5 241.5 527.5>
LayerCount: 2
Fore
SplineSet
102 236 m 2
 97 236 94 239 94 244 c 0
 94 249 97 252 102 252 c 2
 417 252 l 2
 422 252 425 249 425 244 c 0
 425 239 422 236 417 236 c 2
 102 236 l 2
99 520 m 2
 96 521 94 523 94 526 c 0
 94 529 95 538 105 535 c 2
 420 409 l 2
 423 408 425 406 425 402 c 0
 425 398 423 395 420 394 c 2
 105 268 l 2
 97 265 94 272 94 276 c 0
 94 279 96 282 99 283 c 2
 395 402 l 1
 99 520 l 2
EndSplineSet
Validated: 1
EndChar

StartChar: uni2266
Encoding: 8806 8806 195
Width: 503
GlyphClass: 2
Flags: MW
HStem: 110 16<99.5 417 102 417> 236 16<99.5 417 102 417>
VStem: 94 331<115.5 120.5 241.5 246.5 115.5 404>
LayerCount: 2
Fore
SplineSet
102 110 m 2
 97 110 94 113 94 118 c 0
 94 123 97 126 102 126 c 2
 417 126 l 2
 422 126 425 123 425 118 c 0
 425 113 422 110 417 110 c 2
 102 110 l 2
102 236 m 2
 97 236 94 239 94 244 c 0
 94 249 97 252 102 252 c 2
 417 252 l 2
 422 252 425 249 425 244 c 0
 425 239 422 236 417 236 c 2
 102 236 l 2
414 535 m 2
 424 538 425 529 425 526 c 0
 425 523 423 521 420 520 c 2
 124 402 l 1
 420 283 l 2
 423 282 424 279 424 276 c 0
 424 271 422 265 414 268 c 2
 99 394 l 2
 96 395 94 398 94 402 c 0
 94 406 96 408 99 409 c 2
 414 535 l 2
EndSplineSet
Validated: 1
EndChar

StartChar: uni2267
Encoding: 8807 8807 196
Width: 503
GlyphClass: 2
Flags: MW
HStem: 110 16<99.5 417 102 417> 236 16<99.5 417 102 417>
VStem: 94 331<115.5 120.5 241.5 246.5 115.5 277.5>
LayerCount: 2
Fore
SplineSet
102 110 m 2
 97 110 94 113 94 118 c 0
 94 123 97 126 102 126 c 2
 417 126 l 2
 422 126 425 123 425 118 c 0
 425 113 422 110 417 110 c 2
 102 110 l 2
102 236 m 2
 97 236 94 239 94 244 c 0
 94 249 97 252 102 252 c 2
 417 252 l 2
 422 252 425 249 425 244 c 0
 425 239 422 236 417 236 c 2
 102 236 l 2
99 520 m 2
 96 521 94 523 94 526 c 0
 94 529 95 538 105 535 c 2
 420 409 l 2
 423 408 425 406 425 402 c 0
 425 398 423 395 420 394 c 2
 105 268 l 2
 97 265 94 272 94 276 c 0
 94 279 96 282 99 283 c 2
 395 402 l 1
 99 520 l 2
EndSplineSet
Validated: 1
EndChar

StartChar: uni226A
Encoding: 8810 8810 197
Width: 503
GlyphClass: 2
Flags: MW
HStem: 263 267<315 315 315 485>
LayerCount: 2
Fore
SplineSet
491 515 m 2
 195 397 l 1
 491 278 l 2
 494 277 496 275 496 272 c 0
 496 269 495 260 485 263 c 2
 170 389 l 2
 167 390 165 392 165 396 c 0
 165 400 167 403 170 404 c 2
 485 530 l 2
 493 533 496 526 496 522 c 0
 496 519 494 516 491 515 c 2
321 515 m 2
 25 397 l 1
 321 278 l 2
 324 277 326 275 326 272 c 0
 326 269 325 260 315 263 c 2
 0 389 l 2
 -3 390 -5 392 -5 396 c 0
 -5 400 -3 403 0 404 c 2
 315 530 l 2
 323 533 326 526 326 522 c 0
 326 519 324 516 321 515 c 2
EndSplineSet
Validated: 1
EndChar

StartChar: uni226B
Encoding: 8811 8811 198
Width: 503
GlyphClass: 2
Flags: MW
HStem: 268 267<15 15 15 185>
LayerCount: 2
Fore
SplineSet
9 520 m 2
 6 521 4 523 4 526 c 0
 4 529 5 538 15 535 c 2
 330 409 l 2
 333 408 335 406 335 402 c 0
 335 398 333 395 330 394 c 2
 15 268 l 2
 7 265 4 272 4 276 c 0
 4 279 6 282 9 283 c 2
 305 402 l 1
 9 520 l 2
179 520 m 2
 176 521 174 523 174 526 c 0
 174 529 175 538 185 535 c 2
 500 409 l 2
 503 408 505 406 505 402 c 0
 505 398 503 395 500 394 c 2
 185 268 l 2
 177 265 174 272 174 276 c 0
 174 279 176 282 179 283 c 2
 475 402 l 1
 179 520 l 2
EndSplineSet
Validated: 1
EndChar

StartChar: uni2272
Encoding: 8818 8818 199
Width: 503
GlyphClass: 2
Flags: MW
HStem: 172 20<343 383 348 383 348 384> 262 20<153 188 153 153>
VStem: 83 18
LayerCount: 2
Fore
SplineSet
414 535 m 2
 424 538 425 529 425 526 c 0
 425 523 423 521 420 520 c 2
 124 402 l 1
 420 283 l 2
 423 282 424 279 424 276 c 0
 424 271 422 265 414 268 c 2
 99 394 l 2
 96 395 94 398 94 402 c 0
 94 406 96 408 99 409 c 2
 414 535 l 2
103 258 m 0
 103 263 150 282 151 282 c 2
 190 282 l 2
 194 282 233 263 235 261 c 2
 312 208 l 1
 348 192 l 1
 383 192 l 1
 416 207 l 1
 434 242 434 242 438 242 c 2
 438 242 453 240 453 235 c 0
 453 234 433 193 428 191 c 0
 387 172 386 172 384 172 c 2
 346 172 l 2
 340 172 301 192 300 193 c 2
 224 245 l 1
 188 262 l 1
 153 262 l 1
 119 246 l 1
 101 196 102 197 101 196 c 0
 100 195 98 195 97 195 c 0
 92 195 83 196 83 202 c 0
 83 203 83 203 103 258 c 0
94 205 m 1
 95 207 l 1
 94 205 l 1
EndSplineSet
Validated: 1
EndChar

StartChar: uni2273
Encoding: 8819 8819 200
Width: 503
GlyphClass: 2
Flags: MW
HStem: 142 20<377 417 382 417 382 418> 232 20<187 222 187 187>
VStem: 117 18
LayerCount: 2
Fore
SplineSet
144 535 m 2
 459 409 l 2
 462 408 464 406 464 402 c 0
 464 398 462 395 459 394 c 2
 144 268 l 2
 139 266 134 267 134 276 c 0
 134 279 135 282 138 283 c 2
 434 402 l 1
 138 520 l 2
 135 521 133 523 133 526 c 0
 133 529 134 538 144 535 c 2
137 228 m 0
 137 233 184 252 185 252 c 2
 224 252 l 2
 228 252 267 233 269 231 c 2
 346 178 l 1
 382 162 l 1
 417 162 l 1
 450 177 l 1
 468 212 468 212 472 212 c 2
 472 212 487 210 487 205 c 0
 487 204 467 163 462 161 c 0
 421 142 420 142 418 142 c 2
 380 142 l 2
 374 142 335 162 334 163 c 2
 258 215 l 1
 222 232 l 1
 187 232 l 1
 153 216 l 1
 135 166 136 167 135 166 c 0
 134 165 132 165 131 165 c 0
 126 165 117 166 117 172 c 0
 117 173 117 173 137 228 c 0
128 175 m 1
 129 177 l 1
 128 175 l 1
EndSplineSet
Validated: 1
EndChar

StartChar: propersubset
Encoding: 8834 8834 201
Width: 503
GlyphClass: 2
Flags: MW
HStem: 142 16<230 417 230 417 224 417> 456 16<230 417 230 230>
VStem: 94 16<277 337 277 338 277 338.5>
LayerCount: 2
Fore
SplineSet
417 472 m 2
 422 472 425 469 425 464 c 0
 425 459 422 456 417 456 c 2
 230 456 l 1
 170 426 l 1
 140 397 l 1
 110 337 l 1
 110 277 l 1
 140 217 l 1
 170 188 l 1
 230 158 l 1
 417 158 l 2
 422 158 425 155 425 150 c 0
 425 145 422 142 417 142 c 2
 224 142 l 1
 161 174 l 2
 160 174 160 174 159 175 c 0
 148 186 137 198 126 209 c 1
 95 272 l 2
 94 273 94 275 94 276 c 2
 94 338 l 2
 94 339 94 341 95 342 c 2
 126 405 l 1
 160 440 160 440 161 440 c 2
 224 472 l 1
 417 472 l 2
EndSplineSet
Validated: 1
EndChar

StartChar: propersuperset
Encoding: 8835 8835 202
Width: 503
GlyphClass: 2
Flags: MW
HStem: 142 16<99.5 289 102 289 102 295> 456 16<99.5 295 102 289>
VStem: 409 16<277 337 337 337>
LayerCount: 2
Fore
SplineSet
102 456 m 2
 97 456 94 459 94 464 c 0
 94 469 97 472 102 472 c 2
 295 472 l 1
 358 440 l 2
 359 440 359 440 360 439 c 0
 371 428 382 416 393 405 c 1
 424 342 l 2
 425 341 425 339 425 338 c 2
 425 276 l 2
 425 275 425 273 424 272 c 2
 393 209 l 1
 359 174 359 174 358 174 c 2
 295 142 l 1
 102 142 l 2
 97 142 94 145 94 150 c 0
 94 155 97 158 102 158 c 2
 289 158 l 1
 349 188 l 1
 379 217 l 1
 409 277 l 1
 409 337 l 1
 379 397 l 1
 349 426 l 1
 289 456 l 1
 102 456 l 2
EndSplineSet
Validated: 1
EndChar

StartChar: circleplus
Encoding: 8853 8853 203
Width: 881
GlyphClass: 2
Flags: MW
HStem: -16 16<387 440 456 510 383 440> 330 16<110 440 110 440 456 787> 677 16<387 387 387 440 456 456 456 510>
VStem: 94 16<277 330 346 400> 440 16<0 330 0 330 346 677> 787 16<277 330 330 330 346 400 400 400>
LayerCount: 2
Fore
SplineSet
383 693 m 1
 514 693 l 1
 609 661 l 2
 610 661 610 661 610 660 c 2
 705 597 l 1
 727 565 748 532 770 500 c 0
 771 500 771 500 771 499 c 2
 803 404 l 1
 803 273 l 1
 771 178 l 2
 771 177 771 177 770 177 c 2
 707 82 l 1
 675 60 642 39 610 17 c 0
 610 16 610 16 609 16 c 2
 514 -16 l 1
 383 -16 l 1
 288 16 l 2
 287 16 287 16 287 17 c 2
 192 80 l 1
 170 112 149 145 127 177 c 0
 126 177 126 177 126 178 c 2
 94 273 l 1
 94 404 l 1
 126 499 l 2
 126 500 126 500 127 500 c 2
 190 595 l 1
 222 617 255 638 287 660 c 0
 287 661 287 661 288 661 c 2
 383 693 l 1
387 677 m 1
 295 646 l 1
 202 585 l 1
 141 492 l 1
 110 400 l 1
 110 346 l 1
 440 346 l 1
 440 677 l 1
 387 677 l 1
440 330 m 1
 110 330 l 1
 110 277 l 1
 141 185 l 1
 202 92 l 1
 295 31 l 1
 387 0 l 1
 440 0 l 1
 440 330 l 1
456 346 m 1
 787 346 l 1
 787 400 l 1
 756 492 l 1
 695 585 l 1
 602 646 l 1
 510 677 l 1
 456 677 l 1
 456 346 l 1
456 330 m 1
 456 0 l 1
 510 0 l 1
 602 31 l 1
 695 92 l 1
 756 185 l 1
 787 277 l 1
 787 330 l 1
 456 330 l 1
EndSplineSet
Validated: 1
EndChar

StartChar: circlemultiply
Encoding: 8855 8855 204
Width: 881
GlyphClass: 2
Flags: W
LayerCount: 2
Fore
SplineSet
149 572 m 2
 150 573 151 573 152 574 c 2
 241 663 l 2
 242 664 241 664 242 665 c 2
 332 709 l 1
 333 709 l 1
 445 732 l 1
 448 732 l 1
 560 709 l 1
 561 709 l 1
 651 665 l 2
 652 664 651 664 652 663 c 2
 743 572 l 1
 788 482 l 1
 788 481 l 1
 811 369 l 1
 811 366 l 1
 788 255 l 1
 788 253 l 1
 743 163 l 1
 651 71 l 1
 561 26 l 1
 560 26 l 1
 448 4 l 1
 445 4 l 1
 333 26 l 1
 332 26 l 1
 242 71 l 1
 151 162 l 2
 150 163 150 162 149 163 c 2
 105 253 l 1
 105 255 l 1
 82 366 l 1
 82 369 l 1
 105 481 l 1
 105 482 l 1
 149 572 l 2
164 564 m 1
 120 477 l 1
 98 368 l 1
 120 259 l 1
 164 172 l 1
 202 134 l 1
 435 367 l 1
 201 601 l 1
 164 564 l 1
446 356 m 1
 213 122 l 1
 251 85 l 1
 338 42 l 1
 446 19 l 1
 555 42 l 1
 642 85 l 1
 680 122 l 1
 446 356 l 1
446 378 m 1
 680 612 l 1
 642 651 l 1
 555 694 l 1
 446 716 l 1
 338 694 l 1
 251 651 l 1
 212 612 l 1
 446 378 l 1
458 367 m 1
 691 134 l 1
 729 172 l 1
 772 259 l 1
 795 368 l 1
 772 477 l 1
 729 564 l 1
 692 601 l 1
 458 367 l 1
EndSplineSet
Validated: 1
EndChar

StartChar: perpendicular
Encoding: 8869 8869 205
Width: 755
GlyphClass: 2
Flags: MW
HStem: 16 16<99.5 378 102 378 394 669>
VStem: 378 16<32 811 32 813.5>
LayerCount: 2
Fore
SplineSet
102 16 m 2
 97 16 94 19 94 24 c 0
 94 29 97 32 102 32 c 2
 378 32 l 1
 378 811 l 2
 378 816 381 819 386 819 c 0
 391 819 394 816 394 811 c 2
 394 32 l 1
 669 32 l 2
 674 32 677 29 677 24 c 0
 677 19 674 16 669 16 c 2
 102 16 l 2
EndSplineSet
Validated: 1
EndChar

StartChar: uni22C4
Encoding: 8900 8900 206
Width: 378
GlyphClass: 2
Flags: W
LayerCount: 2
Fore
SplineSet
197 558 m 1
 15 307 l 1
 197 56 l 1
 379 307 l 1
 197 558 l 1
190 575 m 2
 192 578 194 579 197 579 c 0
 200 579 202 577 204 575 c 2
 395 311 l 2
 396 309 396 306 395 304 c 2
 204 39 l 2
 203 37 200 36 197 36 c 0
 194 36 192 37 190 39 c 2
 -1 304 l 2
 -2 306 -2 309 -1 311 c 2
 190 575 l 2
EndSplineSet
Validated: 1
EndChar

StartChar: uni2312
Encoding: 8978 8978 207
Width: 882
GlyphClass: 2
Flags: MW
HStem: 362 16<387 511 387 387>
LayerCount: 2
Fore
SplineSet
12 206 m 2
 6 202 0 208 0 212 c 0
 0 215 1 217 3 219 c 2
 98 282 l 1
 99 283 l 1
 225 346 l 1
 227 346 l 1
 384 378 l 1
 514 378 l 1
 671 346 l 1
 673 346 l 1
 799 283 l 2
 799 282 799 282 800 282 c 2
 894 219 l 2
 897 217 898 215 898 212 c 0
 898 206 892 204 885 206 c 2
 791 269 l 1
 667 331 l 1
 511 362 l 1
 387 362 l 1
 231 331 l 1
 106 269 l 1
 12 206 l 2
EndSplineSet
Validated: 1
EndChar

StartChar: angleleft
Encoding: 9001 9001 208
Width: 314
GlyphClass: 2
Flags: MW
VStem: 95 140
LayerCount: 2
Fore
SplineSet
221 625 m 2
 222 628 223 630 226 630 c 0
 229 630 238 629 235 619 c 2
 111 307 l 1
 235 -5 l 2
 238 -15 229 -16 226 -16 c 0
 223 -16 222 -14 221 -11 c 2
 95 304 l 2
 94 306 94 308 95 310 c 2
 221 625 l 2
EndSplineSet
Validated: 1
EndChar

StartChar: angleright
Encoding: 9002 9002 209
Width: 314
GlyphClass: 2
Flags: MW
VStem: 95 140
LayerCount: 2
Fore
SplineSet
95 619 m 2
 92 629 101 630 104 630 c 0
 107 630 108 628 109 625 c 2
 235 310 l 2
 236 308 236 306 235 304 c 2
 109 -11 l 2
 108 -14 107 -16 104 -16 c 0
 101 -16 92 -15 95 -5 c 2
 219 307 l 1
 95 619 l 2
EndSplineSet
Validated: 1
EndChar

StartChar: uni2661
Encoding: 9825 9825 210
Width: 756
GlyphClass: 2
Flags: MW
HStem: 614 16<230 258 230 230 514 514 514 542>
VStem: 126 16<403 526 403 528 403 528.5> 630 16<403 526 526 526>
LayerCount: 2
Fore
SplineSet
394 430 m 2
 393 427 390 425 386 425 c 0
 382 425 379 427 378 430 c 2
 347 524 l 1
 317 585 l 1
 258 614 l 1
 230 614 l 1
 171 585 l 1
 142 526 l 1
 142 403 l 1
 173 310 l 1
 204 248 l 1
 266 154 l 1
 386 5 l 1
 506 154 l 1
 568 248 l 1
 599 310 l 1
 630 403 l 1
 630 526 l 1
 601 585 l 1
 542 614 l 1
 514 614 l 1
 455 585 l 1
 425 524 l 1
 394 430 l 2
386 458 m 1
 410 530 l 1
 410 531 l 1
 442 594 l 2
 443 595 444 597 445 598 c 2
 508 629 l 2
 509 630 511 630 512 630 c 2
 544 630 l 2
 545 630 546 630 547 629 c 2
 610 598 l 1
 614 594 l 1
 645 531 l 2
 646 530 646 529 646 528 c 2
 646 399 l 1
 614 304 l 1
 614 303 l 1
 582 240 l 1
 519 145 l 1
 518 145 l 1
 392 -13 l 2
 391 -15 389 -16 386 -16 c 0
 383 -16 381 -15 380 -13 c 2
 254 145 l 1
 253 145 l 1
 190 240 l 1
 158 303 l 1
 158 304 l 1
 126 399 l 1
 126 528 l 2
 126 529 126 530 127 531 c 2
 158 594 l 1
 162 598 l 1
 225 629 l 2
 226 630 227 630 228 630 c 2
 260 630 l 2
 261 630 263 630 264 629 c 2
 327 598 l 2
 328 597 329 595 330 594 c 2
 362 531 l 1
 362 530 l 1
 386 458 l 1
EndSplineSet
Validated: 1
EndChar

StartChar: uni2662
Encoding: 9826 9826 211
Width: 755
GlyphClass: 2
Flags: W
LayerCount: 2
Fore
SplineSet
379 658 m 2
 380 660 383 661 386 661 c 0
 389 661 391 660 392 658 c 2
 455 564 l 1
 580 407 l 1
 675 313 l 2
 676 311 677 309 677 307 c 0
 677 305 676 303 675 301 c 2
 580 207 l 1
 455 50 l 1
 392 -44 l 2
 391 -46 389 -47 386 -47 c 0
 383 -47 380 -46 379 -44 c 2
 316 50 l 1
 190 207 l 1
 96 301 l 2
 95 303 94 305 94 307 c 0
 94 309 95 311 96 313 c 2
 190 407 l 1
 316 564 l 1
 379 658 l 2
385 -25 m 1
 442 59 l 1
 442 60 l 1
 568 217 l 1
 658 307 l 1
 569 396 l 2
 568 396 568 396 568 397 c 2
 442 554 l 1
 442 555 l 1
 385 639 l 1
 329 555 l 1
 329 554 l 1
 203 397 l 1
 113 307 l 1
 203 217 l 1
 329 60 l 1
 329 59 l 1
 385 -25 l 1
EndSplineSet
Validated: 1
EndChar

StartChar: uni2664
Encoding: 9828 9828 212
Width: 756
GlyphClass: 2
Flags: MW
HStem: -16 16<320.5 438 334 438 334 449> 110 16<227.5 290 230 290 230 292 482 542>
VStem: 126 16<214 274 214 278 214 278> 630 16<214 274 274 274>
LayerCount: 2
Fore
SplineSet
379 216 m 2
 380 219 383 221 386 221 c 0
 389 221 392 219 393 216 c 2
 423 155 l 1
 482 126 l 1
 542 126 l 1
 601 155 l 1
 630 214 l 1
 630 274 l 1
 599 366 l 1
 506 491 l 1
 386 611 l 1
 266 491 l 1
 173 366 l 1
 142 274 l 1
 142 214 l 1
 171 155 l 1
 230 126 l 1
 290 126 l 1
 349 155 l 1
 379 216 l 2
438 0 m 1
 410 84 l 1
 410 85 l 1
 386 180 l 1
 362 85 l 1
 362 84 l 1
 334 0 l 1
 438 0 l 1
457 -8 m 2
 457 -13 454 -16 449 -16 c 2
 323 -16 l 2
 318 -16 315 -13 315 -8 c 2
 315 -5 l 1
 347 89 l 1
 361 145 l 1
 358 142 l 1
 295 111 l 2
 294 110 293 110 292 110 c 2
 228 110 l 2
 227 110 226 110 225 111 c 2
 162 142 l 1
 158 146 l 1
 127 209 l 2
 126 210 126 211 126 212 c 2
 126 278 l 1
 158 373 l 2
 158 374 158 374 159 375 c 2
 254 501 l 1
 254 502 l 1
 380 628 l 2
 382 629 384 630 386 630 c 0
 388 630 390 629 392 628 c 2
 518 502 l 1
 518 501 l 1
 613 375 l 2
 614 374 614 374 614 373 c 2
 646 278 l 1
 646 212 l 2
 646 211 646 210 645 209 c 2
 614 146 l 1
 610 142 l 1
 547 111 l 2
 546 110 545 110 544 110 c 2
 480 110 l 2
 479 110 478 110 477 111 c 2
 414 142 l 1
 411 145 l 1
 425 89 l 1
 457 -5 l 1
 457 -8 l 2
EndSplineSet
Validated: 1
EndChar

StartChar: uni2667
Encoding: 9831 9831 213
Width: 755
GlyphClass: 2
Flags: MW
HStem: -16 16<319.5 437 334 437 334 448> 110 16<195.5 258 198 258 198 260 513 573> 362 16<198 258 198 198 513 573 513 513> 614 16<356 415 356 356>
VStem: 94 16<214 274 214 276 214 276.5> 252 16<466 526 466 531 466 531> 504 16<466 526 526 526> 661 16<214 274 274 274>
LayerCount: 2
Fore
SplineSet
379 248 m 2
 380 251 382 252 385 252 c 0
 388 252 391 251 392 248 c 2
 454 156 l 1
 513 126 l 1
 573 126 l 1
 632 155 l 1
 661 214 l 1
 661 274 l 1
 632 333 l 1
 573 362 l 1
 513 362 l 1
 420 331 l 2
 410 329 405 338 411 344 c 2
 473 406 l 1
 504 466 l 1
 504 526 l 1
 474 585 l 1
 415 614 l 1
 356 614 l 1
 297 585 l 1
 268 526 l 1
 268 466 l 1
 298 406 l 1
 360 344 l 2
 364 340 360 329 351 331 c 2
 258 362 l 1
 198 362 l 1
 139 333 l 1
 110 274 l 1
 110 214 l 1
 139 155 l 1
 198 126 l 1
 258 126 l 1
 317 156 l 1
 379 248 l 2
437 0 m 1
 409 84 l 1
 409 85 l 1
 386 203 l 1
 362 85 l 1
 362 84 l 1
 334 0 l 1
 437 0 l 1
456 -8 m 2
 456 -13 453 -16 448 -16 c 2
 322 -16 l 2
 317 -16 314 -13 314 -8 c 0
 314 -7 314 -6 315 -5 c 2
 346 89 l 1
 370 206 l 1
 329 145 l 1
 326 142 l 1
 263 111 l 2
 262 110 261 110 260 110 c 2
 196 110 l 2
 195 110 194 110 193 111 c 2
 130 142 l 1
 126 146 l 1
 95 209 l 2
 94 210 94 211 94 212 c 2
 94 276 l 2
 94 277 94 278 95 279 c 2
 126 342 l 1
 130 346 l 1
 193 377 l 2
 194 378 195 378 196 378 c 2
 262 378 l 1
 324 357 l 1
 285 396 l 2
 284 397 284 397 284 398 c 2
 252 461 l 1
 252 531 l 1
 284 594 l 2
 285 595 286 597 287 598 c 2
 350 629 l 2
 351 630 353 630 354 630 c 2
 417 630 l 2
 418 630 420 630 421 629 c 2
 484 598 l 2
 485 597 486 595 487 594 c 2
 519 531 l 2
 520 530 520 529 520 528 c 2
 520 464 l 2
 520 463 520 462 519 461 c 2
 487 398 l 2
 487 397 487 397 486 396 c 2
 447 357 l 1
 509 378 l 1
 574 378 l 2
 575 378 577 378 578 377 c 2
 641 346 l 1
 645 342 l 1
 676 279 l 2
 677 278 677 277 677 276 c 2
 677 212 l 2
 677 211 677 210 676 209 c 2
 645 146 l 1
 641 142 l 1
 578 111 l 2
 577 110 575 110 574 110 c 2
 512 110 l 2
 511 110 509 110 508 111 c 2
 445 142 l 2
 442 145 442 145 401 206 c 1
 425 89 l 1
 456 -5 l 1
 456 -8 l 2
EndSplineSet
Validated: 1
EndChar

StartChar: uni266D
Encoding: 9837 9837 214
Width: 504
GlyphClass: 2
Flags: MW
HStem: 456 16<230 321 230 230> 488 16<231 321 231 231>
VStem: 126 16<161 427 448 811> 378 16<340 400 400 400> 410 16<340 400 400 400>
LayerCount: 2
Fore
SplineSet
134 142 m 2
 129 142 126 145 126 150 c 2
 126 811 l 2
 126 816 129 819 134 819 c 0
 139 819 142 816 142 811 c 2
 142 448 l 1
 224 503 l 2
 225 504 227 504 228 504 c 2
 323 504 l 2
 324 504 326 504 327 503 c 2
 390 472 l 2
 391 471 392 469 393 468 c 2
 425 405 l 2
 426 404 426 403 426 402 c 2
 426 338 l 2
 426 337 426 336 425 335 c 2
 393 272 l 2
 387 266 298 208 295 205 c 2
 232 174 l 1
 231 173 l 1
 137 142 l 1
 134 142 l 2
359 438 m 1
 321 456 l 1
 230 456 l 1
 142 427 l 1
 142 161 l 1
 225 188 l 1
 287 219 l 1
 348 280 l 1
 378 340 l 1
 378 400 l 1
 359 438 l 1
394 431 m 1
 393 425 389 423 383 426 c 1
 393 405 l 2
 394 404 394 403 394 402 c 2
 394 338 l 2
 394 337 394 336 393 335 c 2
 362 272 l 1
 354 264 l 1
 380 281 l 1
 410 340 l 1
 410 400 l 1
 394 431 l 1
371 449 m 1
 389 440 l 1
 380 459 l 1
 362 468 l 1
 371 449 l 1
347 461 m 1
 344 467 346 471 353 472 c 1
 321 488 l 1
 231 488 l 1
 188 459 l 1
 226 472 l 1
 327 472 l 1
 347 461 l 1
EndSplineSet
Validated: 1
EndChar

StartChar: uni266E
Encoding: 9838 9838 215
Width: 504
GlyphClass: 2
Flags: MW
HStem: 171 16<378 378> 427 16<142 142> 673 20G<131.5 136.5>
VStem: 126 16<128 143 160 395 412 427 443 685> 378 16<-71 171 171 171 187 202 202 202 219 454 454 454 471 486 486 486>
LayerCount: 2
Fore
SplineSet
134 110 m 2
 129 110 126 113 126 118 c 2
 126 685 l 2
 126 690 129 693 134 693 c 0
 139 693 142 690 142 685 c 2
 142 443 l 1
 384 504 l 1
 386 504 l 2
 391 504 394 501 394 496 c 2
 394 -71 l 2
 394 -76 391 -79 386 -79 c 0
 381 -79 378 -76 378 -71 c 2
 378 171 l 1
 136 110 l 1
 134 110 l 2
378 486 m 1
 142 427 l 1
 142 412 l 1
 378 471 l 1
 378 486 l 1
378 454 m 1
 142 395 l 1
 142 160 l 1
 378 219 l 1
 378 454 l 1
378 202 m 1
 142 143 l 1
 142 128 l 1
 378 187 l 1
 378 202 l 1
EndSplineSet
Validated: 1
EndChar

StartChar: uni266F
Encoding: 9839 9839 216
Width: 503
GlyphClass: 2
Flags: MW
HStem: 673 20G<351.5 356.5>
VStem: 157 16<-71 121 121 121 140 152 152 152 172 404 404 404 424 436 436 436 455 654> 346 16<-40 159 159 159 178 190 190 190 210 442 442 442 462 474 474 474 493 685>
LayerCount: 2
Fore
SplineSet
103 110 m 2
 94 107 89 122 100 126 c 2
 157 137 l 1
 157 152 l 1
 103 142 l 2
 95 139 88 153 100 157 c 2
 157 169 l 1
 157 404 l 1
 103 394 l 2
 97 392 92 399 94 404 c 0
 95 407 97 408 100 409 c 2
 157 421 l 1
 157 436 l 1
 103 425 l 2
 97 423 87 437 100 441 c 2
 157 452 l 1
 157 654 l 2
 157 659 160 662 165 662 c 0
 170 662 173 659 173 654 c 2
 173 455 l 1
 346 490 l 1
 346 685 l 2
 346 690 349 693 354 693 c 0
 359 693 362 690 362 685 c 2
 362 493 l 1
 415 504 l 2
 424 507 429 492 418 488 c 2
 362 477 l 1
 362 462 l 1
 415 472 l 2
 423 475 430 461 418 457 c 2
 362 445 l 1
 362 210 l 1
 415 220 l 2
 423 223 430 209 418 205 c 2
 362 193 l 1
 362 178 l 1
 415 189 l 2
 421 191 431 177 418 173 c 2
 362 162 l 1
 362 -40 l 2
 362 -45 359 -48 354 -48 c 0
 349 -48 346 -45 346 -40 c 2
 346 159 l 1
 173 124 l 1
 173 -71 l 2
 173 -76 170 -79 165 -79 c 0
 160 -79 157 -76 157 -71 c 2
 157 121 l 1
 103 110 l 2
346 474 m 1
 173 439 l 1
 173 424 l 1
 346 458 l 1
 346 474 l 1
346 442 m 1
 173 408 l 1
 173 172 l 1
 346 206 l 1
 346 442 l 1
346 190 m 1
 173 156 l 1
 173 140 l 1
 346 175 l 1
 346 190 l 1
EndSplineSet
Validated: 1
EndChar

StartChar: uni29BF
Encoding: 10687 10687 217
Width: 850
GlyphClass: 2
Flags: MW
HStem: 16 16<387 479 387 483 383 479> 299 16<416 445 420 445 420 448> 330 16<413.5 440 425 440 425 448> 362 16<425 425 425 440> 394 16<420 420 420 445> 677 16<387 387 387 479>
VStem: 94 16<308 400 308 404 308 404> 378 16<342 367 342 370 342 371> 409 16<346 362 346 370 346 372.5> 440 16<346 362 362 362> 472 16<342 367 367 367> 756 16<308 400 400 400>
LayerCount: 2
Fore
SplineSet
425 362 m 1
 425 346 l 1
 440 346 l 1
 440 362 l 1
 425 362 l 1
417 330 m 2
 410 330 409 338 409 338 c 1
 409 370 l 2
 409 375 412 378 417 378 c 2
 448 378 l 2
 454 378 456 376 456 370 c 2
 456 338 l 2
 456 333 453 330 448 330 c 2
 417 330 l 2
420 394 m 1
 394 367 l 1
 394 342 l 1
 420 315 l 1
 445 315 l 1
 472 342 l 1
 472 367 l 1
 445 394 l 1
 420 394 l 1
411 407 m 2
 413 409 415 410 417 410 c 2
 448 410 l 2
 451 410 453 409 454 407 c 2
 486 376 l 2
 487 374 488 372 488 370 c 2
 488 338 l 2
 488 336 487 334 486 333 c 2
 454 301 l 2
 453 300 451 299 448 299 c 2
 417 299 l 2
 415 299 413 300 411 301 c 2
 380 333 l 2
 379 334 378 336 378 338 c 2
 378 370 l 2
 378 372 379 374 380 376 c 2
 411 407 l 2
383 693 m 1
 483 693 l 1
 577 661 l 2
 578 661 578 661 579 660 c 2
 673 597 l 2
 674 596 675 596 676 595 c 2
 739 500 l 1
 740 499 l 1
 771 404 l 2
 772 403 772 403 772 402 c 2
 772 307 l 2
 772 306 772 305 771 304 c 2
 740 210 l 2
 739 209 739 209 739 208 c 2
 676 114 l 2
 673 111 673 111 579 48 c 0
 578 48 578 48 577 47 c 2
 483 16 l 1
 383 16 l 1
 288 47 l 1
 256 69 224 90 192 111 c 0
 191 112 191 113 190 114 c 2
 127 208 l 2
 126 209 126 209 126 210 c 2
 94 304 l 1
 94 404 l 1
 126 499 l 2
 126 500 126 500 127 500 c 2
 190 595 l 1
 222 617 255 638 287 660 c 0
 287 661 287 661 288 661 c 2
 383 693 l 1
387 677 m 1
 295 646 l 1
 202 585 l 1
 141 492 l 1
 110 400 l 1
 110 308 l 1
 141 216 l 1
 202 124 l 1
 295 62 l 1
 387 32 l 1
 479 32 l 1
 571 62 l 1
 663 124 l 1
 725 216 l 1
 756 308 l 1
 756 400 l 1
 725 492 l 1
 663 585 l 1
 571 646 l 1
 479 677 l 1
 387 677 l 1
EndSplineSet
Validated: 1
EndChar

